<?xml version="1.0" standalone="no"?>
<!DOCTYPE svg PUBLIC "-//W3C//DTD SVG 1.1//EN" "http://www.w3.org/Graphics/SVG/1.1/DTD/svg11.dtd" >
<svg xmlns="http://www.w3.org/2000/svg">
<metadata></metadata>
<defs>
<font id="BonJoviRegular" horiz-adv-x="681" >
<font-face units-per-em="2048" ascent="1638" descent="-410" />
<missing-glyph horiz-adv-x="614" />
<glyph horiz-adv-x="0" />
<glyph horiz-adv-x="2048" />
<glyph unicode="&#xd;" horiz-adv-x="614" />
<glyph unicode=" "  horiz-adv-x="614" />
<glyph unicode="&#x09;" horiz-adv-x="614" />
<glyph unicode="&#xa0;" horiz-adv-x="614" />
<glyph unicode="!" d="M84 1404q0 -11 10 -11q41 -2 41 -72l72 -837q0 -9 1 -32.5t-1 -32.5t-11.5 -10t-9.5 -12.5t21 -11.5h260q20 0 20 12t-9 13q-13 0 -12 32.5t1 41.5l72 837q0 70 41 72q10 0 10 12t-14 12h-240q-225 -2 -238.5 -2t-13.5 -11zM156 158q0 76 54 130t131 54t131 -54.5 t54 -131t-54 -131t-130 -54.5t-131 55.5t-55 131.5z" />
<glyph unicode="&#x22;" horiz-adv-x="862" d="M70 1475h321l-55 -445h-211zM479 1475h322l-56 -445h-210z" />
<glyph unicode="#" horiz-adv-x="1366" d="M178 455v190h234l26 180h-202v191h227l61 434h178l-59 -434h176l60 434h184l-62 -434h185v-191h-211l-25 -180h183v-190h-209l-66 -455h-182l63 455h-174l-65 -455h-181l64 455h-205zM592 645h174l27 180h-177z" />
<glyph unicode="$" horiz-adv-x="2060" d="M23 146q0 9 11 20.5t181 168.5t180.5 168t19.5 11t13 -10q2 -10 -4 -15q-25 -27 -8 -53q303 -141 592 -141q131 0 228 35t97 100t-149 107q-74 20 -256 49q-369 55 -504 114q-190 86 -190.5 259.5t176.5 289.5q170 115 460 152l7 129h161l-6 -115q41 2 81 2t77 -2l6 115 h158l-6 -123q334 -27 571 -100q51 -16 86 18q6 4 14 0q10 -2 10.5 -11t-11 -20.5t-171 -163t-171 -163t-20.5 -11.5t-11 11q-2 10 2 14q25 25 6 53q-203 90 -441 90q-104 0 -194 -30.5t-90 -81.5q0 -80 297 -129l170 -27q301 -49 448 -123q182 -94 182 -244 q0 -246 -264 -362q-196 -88 -489 -115l-6 -121h-154l6 111q-41 -2 -82 -2t-82 2l-4 -111h-159l6 119q-360 31 -666 144q-49 18 -86 -17q-6 -6 -14 -3t-8 12z" />
<glyph unicode="%" horiz-adv-x="2136" d="M43 1008.5q0 181.5 139.5 309.5t335 128t334.5 -123q78 -27 170 -27t220 36t194 95q25 23 114 23l-843 -1481h-115l756 1327q-145 -80 -334 -79q-41 0 -76 6q59 -98 59 -213q0 -182 -139 -310.5t-338 -128.5t-338 128t-139 309.5zM238 1008.5q0 -107.5 82.5 -183 t199.5 -75.5t200 75.5t83 183t-83 183.5t-200 76t-199.5 -76t-82.5 -183.5zM1137 409q0 181 140 310t338 129t338 -129t140 -310t-140.5 -309.5t-338 -128.5t-337.5 128.5t-140 309.5zM1333 408.5q0 -107.5 82 -183t199 -75.5t199.5 75.5t82.5 183t-82.5 183.5t-199.5 76 t-199 -76t-82 -183.5z" />
<glyph unicode="&#x26;" horiz-adv-x="2361" d="M25 444q0 -197 238.5 -335t582.5 -138t584 146l38 -25q6 -4 7 -8q0 -16 -34 -34.5t-51.5 -17.5t-17.5 -15.5t31 -16.5h891q29 0 28 16q0 15 -14 17q-39 0 -117 26.5t-123 65.5l-362 217l375 320q109 92 157 94q14 0 15 16q0 14 -29 14h-766q-31 0 -31 -16t17.5 -15 t50.5 -17.5t33 -32.5q0 -6 -4 -11l-164 -145l-240 143q180 47 291 144.5t111 216.5q0 162 -200 277.5t-481.5 115.5t-481 -116t-199.5 -277q0 -139 151 -248q-287 -143 -286 -361zM504 452q0 90 137 150l457 -283q-102 -71 -249.5 -71t-246 57t-98.5 147zM612 1050.5 q0 55.5 66.5 94.5t162 39t162 -39t66.5 -93t-67.5 -94t-136 -40t-117.5 -3l-70 41q-66 39 -66 94.5z" />
<glyph unicode="'" horiz-adv-x="452" d="M70 1475h321l-55 -445h-211z" />
<glyph unicode="(" horiz-adv-x="589" d="M41 680q0 274 154 489q145 207 348 248l10 -16q-92 -68 -165 -271.5t-73 -449.5t73 -450t165 -271l-10 -16q-203 41 -352.5 251.5t-149.5 485.5z" />
<glyph unicode=")" horiz-adv-x="589" d="M37 -41q92 68 164.5 271.5t72.5 449.5t-72.5 450t-164.5 271l12 16q201 -41 350.5 -252t149.5 -485t-149.5 -485.5t-350.5 -251.5z" />
<glyph unicode="*" horiz-adv-x="673" d="M27 1176q-2 -8 4 -11q6 -2 8 2q10 31 47 19q45 -2 180 -27q-63 -59 -131 -123q-25 -33 -49 -14q-6 -4 -4 -14q80 -57 166 -121q6 -4 10 2t0 8q-25 18 0 51q16 41 80 162q37 -78 76 -162q25 -33 0 -51q-4 -2 0 -8t10 -2q80 57 166 121q6 4 3 10t-7 4q-25 -18 -49 14 q-35 29 -129 125q86 12 178 25q37 12 47 -19q8 -1 12 9q-31 94 -63 196q-2 8 -9.5 6t-5.5 -6q10 -31 -28 -43q-37 -25 -160 -84q6 55 19 116.5t14 59.5q0 41 30 41q4 0 4 6t-8 7h-205q-8 0 -8 -7q0 -6 4 -6q31 0 31 -41l12 -57q14 -66 19 -121q-76 43 -158 86q-39 12 -29 43 q2 4 -5 6t-9 -6q-31 -94 -63 -196z" />
<glyph unicode="+" horiz-adv-x="1228" d="M98 406v237h398v391h237v-391h397v-237h-397v-406h-237v406h-398z" />
<glyph unicode="," d="M156 158q0 76 54 130t131 54t131 -54.5t54 -135t-30 -125.5q-78 -121 -267 -254q-8 -6 -15 -6t-9 8t4 14q106 117 133 182q-76 0 -131 55.5t-55 131.5z" />
<glyph unicode="-" d="M51.5 374.5q-0.5 20.5 1.5 354.5h455q55 0 67 4q31 10 31 51q0 14 17 15q18 0 18 -20.5t-2 -354.5h-455q-55 0 -67 -4q-31 -10 -31 -51q0 -14 -16 -15q-18 0 -18.5 20.5z" />
<glyph unicode="." d="M156 158q0 76 54 130t131 54t131 -54.5t54 -131t-54 -131t-130 -54.5t-131 55.5t-55 131.5z" />
<glyph unicode="/" horiz-adv-x="569" d="M-219 0l721 1450h286l-720 -1450h-287z" />
<glyph unicode="0" horiz-adv-x="2224" d="M49 709q0 305 310.5 521t750.5 216t751.5 -216t311.5 -521t-311.5 -521.5t-751.5 -216.5t-750.5 216.5t-310.5 521.5zM483 709q0 -180 183.5 -308.5t443.5 -128.5t444.5 128t184.5 309q0 180 -184.5 308t-444.5 128t-443.5 -128t-183.5 -308z" />
<glyph unicode="1" horiz-adv-x="1171" d="M84 16q0 -16 29 -16h972q29 0 29 16t-14 17q-68 0 -147 31.5t-79 66.5v1315l-761 -186q-29 0 -29 -17q0 -16 14 -16q68 0 147 -32t79 -67v-997q0 -35 -79 -66.5t-147 -31.5q-14 0 -14 -17z" />
<glyph unicode="2" horiz-adv-x="1714" d="M51 0q0 166 281 352q260 152 520 303q278 175 278 308q0 82 -101 141t-230.5 59t-251 -23.5t-174.5 -68.5q-33 -18 -67 -40t-34 -73q0 -14 -16 -14t-16 21.5t-2 230.5v225q0 29 16 29t16 -14q0 -43 31 -54q14 -6 68 -6q186 70 415 70q346 0 592 -141.5t246 -341.5 q0 -307 -604 -539q-162 -57 -322 -117h836q98 0 98 115q0 12 17 12q16 0 16 -21t1 -230.5t1 -231t-16 -21.5t-17 13q0 43 -30 53q-12 4 -68 4h-1483z" />
<glyph unicode="3" horiz-adv-x="1413" d="M49 1424.5q0 21.5 17 21.5q16 0 16 -14q0 -41 31 -54q14 -4 67 -4q182 68 414 68q317 0 542.5 -130t225.5 -315q0 -163 -188 -288q188 -125 188 -289q0 -184 -225.5 -314.5t-542.5 -130.5q-231 0 -414 68q-53 0 -67 -4q-31 -12 -31 -53q0 -14 -16 -15q-16 0 -16.5 21.5 t1.5 230.5v223q0 29 17 29q16 0 16 -14q0 -51 34 -72.5t66 -40.5q76 -63 410 -63q96 0 163.5 40t67.5 95t-67.5 94t-143 39t-88.5 -4q-31 -10 -30 -51q0 -14 -17 -15q-16 0 -16 29v393q0 29 16 29t17 -14q0 -41 30 -52q12 -4 88 -4t143.5 39t67.5 94t-67.5 95.5t-163.5 40.5 q-334 0 -410 -64q-33 -18 -66.5 -40t-33.5 -73q0 -14 -16 -14t-16.5 21.5t-0.5 230.5q-2 209 -2 230.5z" />
<glyph unicode="4" horiz-adv-x="1687" d="M49 311h811v-180q0 -35 -79 -66.5t-146 -31.5q-14 0 -14 -17q0 -16 28 -16h973q29 0 29 16t-15 17q-68 0 -146.5 31.5t-78.5 66.5q0 4 -4 137q0 49 49 93.5t85 44.5t36 17t-34 17t-85 45t-51 93l4 706q0 35 79 67t146 31q14 0 15 17q0 16 -29 16h-719l-852 -883zM532 537 l328 366v-366h-328z" />
<glyph unicode="5" horiz-adv-x="1810" d="M49 410q0 -16 14 -17q47 0 61.5 -16t37.5 -96q35 -123 272 -216.5t488 -93.5q348 0 593.5 142.5t245.5 343.5t-245.5 344t-593.5 143q-121 0 -258 -29l26 193h895q98 0 98 -113q0 -14 17.5 -14t17.5 21.5t2 232.5v225q0 29 -16 29t-16 -14q0 -43 -31 -54q-14 -4 -70 -4 h-1397q-27 0 -26 -16q0 -16 14 -17q57 0 70.5 -24t13.5 -76l-28 -343q-29 -349 -29 -394q45 49 241.5 81t475.5 31q143 0 244.5 -59t101.5 -143t-101.5 -142.5t-237.5 -58.5t-234.5 49t-116.5 123l-500 -2q-29 0 -29 -16z" />
<glyph unicode="6" horiz-adv-x="1775" d="M49 600q0 -279 225.5 -453t590 -176t613.5 154t248.5 359.5t-249 359.5t-590.5 155q-96 0 -225 -34q94 293 358 458q184 117 541 209q23 6 22 25q0 18 -31 18q-332 -4 -681 -124.5t-568 -344.5q-254 -260 -254 -606zM541 485q0 84 102 149.5t244 65.5q141 0 244.5 -65.5 t103.5 -149.5t-103.5 -149.5t-244.5 -65.5t-243.5 65.5t-102.5 149.5z" />
<glyph unicode="7" horiz-adv-x="1777" d="M49 1004v456q0 29 17 29q16 0 16 -14q0 -41 31 -54q14 -4 43 -4h790q758 -2 777.5 -2t19.5 -16t-14 -17l-969 -1286q-4 -6 -4 -14q0 -18 32 -33.5t51 -15.5t19 -16.5t-33 -16.5h-622l913 1104h-934q-100 0 -100 -115q0 -14 -16 -14t-17 29z" />
<glyph unicode="8" horiz-adv-x="1730" d="M49 444q0 -197 239.5 -335t577.5 -138t576.5 138.5t238.5 334.5q1 218 -286 359q152 109 151 250q0 164 -198.5 278.5t-481.5 114.5t-482.5 -114.5t-199.5 -278.5q0 -141 152 -250q-287 -141 -287 -359zM528 443q0 81 99.5 138.5t238.5 57.5t237.5 -56.5t98.5 -138.5 t-98.5 -139t-237.5 -57t-238.5 57t-99.5 138zM637 1053q0 55 67.5 93t161.5 38t161 -38t67 -93t-66.5 -94t-161.5 -39q-94 0 -161.5 38.5t-67.5 94.5z" />
<glyph unicode="9" horiz-adv-x="1775" d="M49 933q0 -204 249 -359.5t591 -155.5q96 0 225 35q-94 -293 -358 -459q-184 -117 -541 -209q-23 -6 -22 -25q0 -18 30 -18q332 4 681.5 125t568.5 344q254 260 253 606q0 279 -225 453t-589.5 176t-613.5 -153.5t-249 -359.5zM541 932q0 84 103.5 149.5t244.5 65.5 t243.5 -65.5t102.5 -149.5t-102.5 -149.5t-243.5 -65.5t-244.5 65.5t-103.5 149.5z" />
<glyph unicode=":" d="M156 157q0 77 54 131t131 54t131 -54.5t54 -131t-54 -131t-131 -54.5t-131 54.5t-54 131.5zM156 689q0 77 54 131t131 54t131 -54t54 -131t-54 -131t-131 -54t-131 54t-54 131z" />
<glyph unicode=";" d="M156 158q0 76 54 130t131 54t131 -54.5t54 -135t-30 -125.5q-78 -121 -267 -254q-8 -6 -15 -6t-9 8t4 14q106 117 133 182q-76 0 -131 55.5t-55 131.5zM156 689q0 77 54 131t131 54t131 -54t54 -131t-54 -131t-131 -54t-131 54t-54 131z" />
<glyph unicode="&#x3c;" horiz-adv-x="1228" d="M94 422v203l1043 465v-263l-729 -307l729 -299v-262z" />
<glyph unicode="=" horiz-adv-x="1228" d="M98 205v237h1032v-237h-1032zM98 606v238h1032v-238h-1032z" />
<glyph unicode="&#x3e;" horiz-adv-x="1228" d="M94 -41v262l729 299l-729 307v263l1043 -465v-203z" />
<glyph unicode="?" horiz-adv-x="1359" d="M25 1424.5q0 21.5 16 21.5t16 -14q0 -41 31 -54q14 -4 68 -4q182 68 413 68q322 0 546 -127t224 -318q0 -109 -149 -215q-139 -88 -277 -176q-149 -100 -149 -188h-301q0 88 85 175t167 169q88 109 88 235q0 57 -68 109q-74 53 -168 53t-217 -27.5t-173 -54t-83 -43.5 q-35 -27 -35 -80q0 -14 -16 -14t-16 22v232q-2 209 -2 230.5zM434 156q0 -76 53 -130.5t129 -54.5t130.5 54.5t54.5 130.5t-54.5 130t-130.5 54t-129 -54.5t-53 -129.5z" />
<glyph unicode="@" horiz-adv-x="1515" d="M10 706.5q0 315.5 227.5 529.5t555.5 214q276 0 481 -166q229 -186 229 -435t-157 -403q-63 -61 -168 -113t-187 -52q-125 0 -119 100q-88 -92 -212.5 -92t-228 102.5t-103.5 243.5q0 180 116.5 314t290.5 134.5t262 -114.5l21 98h194l-100 -569q-6 -41 -6 -47 q2 -23 31 -23q72 0 135.5 103.5t62.5 252.5q0 231 -152 360.5t-402.5 129.5t-408 -160t-157.5 -410.5t170 -404.5t436 -154q217 0 391 131h203q-233 -307 -610 -307q-334 0 -564.5 211t-230.5 526.5zM573 670q0 -76 42 -126t124 -50t140.5 65.5t58.5 145.5t-45 126t-124 46 t-137.5 -65.5t-58.5 -141.5z" />
<glyph unicode="A" horiz-adv-x="3543" d="M37 33q51 0 182 29.5t170 66.5l1383 1317l1382 -1317q39 -37 169 -67q126 -29 178 -29h3q12 0 12 -17q0 -16 -24 -16h-957q-29 0 -28 18q0 14 16.5 14.5t47 19t30.5 34.5q0 6 -4 10l-160 142h-1339l-154 -142q-4 -4 -4 -10q0 -16 32 -34.5t47 -18.5t15 -16.5t-28 -16.5 h-955q-26 0 -26 15q0 17 12 18zM1337 496h848l-413 401z" />
<glyph unicode="B" horiz-adv-x="2613" d="M39 35q68 0 146.5 31.5t78.5 68.5t-2 461q0 49 -49 93t-84 44t-35 17.5t34 17.5t84 44t50 93l2 375q0 35 -79 66.5t-146 31.5q-14 0 -14 17q0 16 28 16q104 0 1585 4q342 0 568.5 -103t226.5 -280q0 -88 -25.5 -137t-93.5 -115q145 -74 210 -149.5t65 -204.5 q0 -188 -250 -307t-617 -119l-1669 2q-28 0 -28 15q0 17 14 18zM815 313h782q268 0 269 142q0 141 -269 141h-782v-283zM815 905h709q225 0 225 99.5t-225 99.5h-709v-199z" />
<glyph unicode="C" horiz-adv-x="2402" d="M25 709q0 305 465.5 521t1125.5 216q330 0 614 -88q41 -12 62 -12q49 0 49 65q0 14 18 14t19 -28v-527q0 -27 -19 -26q-18 0 -18 14q0 59 -26 89t-83 52q-262 107 -626 107h-4q-363 0 -626 -116q-265 -116 -265 -281q0 -164 265 -281t629.5 -117t626.5 107q57 23 83 52.5 t26 88.5q0 14 18 14t19 -26v-527q0 -29 -19 -28q-18 0 -18 14q0 66 -49 66q-20 0 -62 -13q-285 -88 -614 -88q-659 0 -1125 216t-466 522z" />
<glyph unicode="D" horiz-adv-x="2723" d="M25 18q0 -16 28 -16h568q707 -2 890 -2q492 0 840 207t348 500t-348 500.5t-840 207.5l-1458 -2q-28 0 -28 -15q0 -17 14 -18q68 0 146.5 -31.5t78.5 -66.5v-1149q0 -35 -79 -66.5t-146 -31.5q-14 0 -14 -17zM817 313v793l694 -2q233 0 399.5 -117t166.5 -280 q0 -164 -165 -279t-401 -115h-694z" />
<glyph unicode="E" horiz-adv-x="2095" d="M39 33q70 0 148.5 31.5t78.5 66.5v465q0 49 -49 94t-85 45t-36 17.5t34 17.5t85 44t51 93v377q0 35 -78.5 66.5t-148.5 31.5q-14 0 -14 17.5t20 17.5h954q936 -2 964.5 -2t43.5 4q31 10 31 54q0 14 16 14q16 1 16 -21q0 -7 1 -36q0 -56 -1 -196q-1 -210 -1.5 -231.5 t-16.5 -21.5t-16 14q0 113 -98 113h-1121v-197h694q55 0 68 4q31 10 31 52q0 14 16 14t16 -29v-395q0 -29 -16 -29t-16 15q-2 45 -33 53q-8 4 -760 4v-287l1118 2q100 0 101 113q0 14 16 14t16 -21t1.5 -235.5t1.5 -236t-17 -21.5q-16 0 -16 15q0 41 -31 53q-14 4 -70 4 h-1884q-28 0 -28 15q0 17 14 18z" />
<glyph unicode="F" horiz-adv-x="2088" d="M25 16q0 -16 28 -16h973q29 0 29 16t-15 17q-68 0 -146.5 31.5t-78.5 66.5v473h690q59 0 66 -2q31 -10 33 -55q0 -14 16 -15q16 0 16 29v395q0 29 -16 29t-16 -14q0 -41 -31 -53q-17 -5 -758 -5v197h1116q98 0 99 -113q0 -14 17 -14t17 29v448q0 29 -17 29t-17 -14 q0 -41 -31 -54q-14 -4 -68 -4h-1878q-28 0 -28 -15q0 -17 14 -18q68 0 146.5 -31.5t79.5 -66.5t1 -375q0 -49 -51 -93t-85 -44t-34 -17t36 -17.5t85 -44.5t49 -93l-2 -471q0 -35 -79 -66.5t-146 -31.5q-14 0 -14 -17z" />
<glyph unicode="G" horiz-adv-x="2580" d="M25 709q0 -305 423.5 -521.5t1021.5 -216.5q360 0 687 90q20 6 41 7q81 0 81 -86q0 -16 21 -17q20 0 20 29q0 10 -6 524q0 35 79 67q77 31 145 31h4q14 0 14 17q0 16 -29 16h-979q-29 0 -28 -16q0 -16 14 -17q70 0 148.5 -31.5t78.5 -66.5v-188q-154 -18 -291 -19 q-340 0 -580.5 117t-240.5 281t240.5 280.5t572.5 116.5t570 -107q100 -45 100 -141q0 -14 16 -14t17 28v525q0 29 -17 28q-16 0 -16 -14q0 -65 -46 -65h-1q-18 0 -55 12q-260 88 -560 88q-600 0 -1022.5 -216t-422.5 -521z" />
<glyph unicode="H" horiz-adv-x="2568" d="M25 16q0 -16 28 -16h975q29 0 29 16t-15 17q-68 0 -146.5 31.5t-78.5 66.5q0 2 -4 469h938l-4 -469q0 -35 -80 -66.5t-147 -31.5q-14 0 -15 -17q0 -16 29 -16h977q29 0 29 16t-15 17q-68 0 -147.5 31.5t-79.5 66.5v469q0 49 49 93t85 44t36 17.5t-34 17.5t-85 44t-51 93 v375q0 35 80 66.5t147 31.5q14 0 15 17q0 16 -29 16h-977q-29 0 -29 -16t15 -17q68 0 147.5 -31.5t79.5 -66.5q0 -2 4 -375h-938l4 375q0 35 79 67q77 31 142 31h4q14 0 15 17q0 16 -29 16h-975q-28 0 -28 -15q0 -17 14 -18q68 0 146.5 -31.5t78.5 -66.5v-375q0 -49 -50 -93 t-84 -44t-34 -17t36 -17.5t84 -44.5t48 -93v-469q0 -35 -79 -66.5t-146 -31.5q-14 0 -14 -17z" />
<glyph unicode="I" horiz-adv-x="1081" d="M25 16q0 -16 28 -16h973q29 0 29 16t-15 17q-68 0 -146.5 31.5t-78.5 66.5v1153q0 35 79 66.5t146 31.5q14 0 15 17q0 16 -29 16h-973q-28 0 -28 -15q0 -17 14 -18q68 0 146.5 -31.5t78.5 -66.5v-1153q0 -35 -79 -66.5t-146 -31.5q-14 0 -14 -17z" />
<glyph unicode="J" horiz-adv-x="1163" d="M-588 -641q0 -18 26 -18h5q567 39 944 276q490 308 494 879v338q0 139 -2 307l-2 145q0 35 79 67q76 31 144 31h4q14 0 14 17q0 16 -28 16h-977q-29 0 -29 -16t14 -17q70 0 149 -31.5t79 -66.5v-887q0 -457 -277 -708q-190 -172 -616 -307q-20 -6 -21 -25z" />
<glyph unicode="K" horiz-adv-x="2596" d="M39 33q68 0 146.5 31.5t78.5 66.5v1153q0 35 -79 66.5t-146 31.5q-14 0 -14 17q0 16 28 16h973q29 0 29 -16t-15 -17q-68 0 -146.5 -31.5t-78.5 -66.5v-498l610 533q6 4 7 10q0 16 -35 34.5t-53.5 18.5t-18.5 16.5t33 16.5h1052q27 0 27 -16t-14 -17q-57 0 -200 -28.5 t-185 -65.5l-602 -516l731 -643q43 -37 185 -66q137 -28 198 -28h4q14 0 14 -17.5t-28 -17.5h-1051q-33 0 -33 20q0 14 18.5 14.5t52.5 18t34 33.5q0 6 -7 10l-444 402l-295 -258v-109q0 -35 79 -66.5t146 -31.5q14 0 15 -17q0 -16 -29 -16h-973q-28 0 -28 15q0 17 14 18z " />
<glyph unicode="L" horiz-adv-x="2091" d="M25 16q0 -16 28 -16h1878q55 0 68 -4q31 -10 31 -51q0 -14 16 -15q18 0 18 29l-4 447q0 29 -16 28q-16 0 -16 -14q0 -113 -99 -113q-84 2 -1114 2v977q0 35 79 66.5t146 31.5q14 0 15 17q0 16 -29 16h-973q-28 0 -28 -15q0 -17 14 -18q68 0 146.5 -31.5t78.5 -66.5v-1153 q0 -35 -79 -67.5t-146 -32.5q-14 0 -14 -17z" />
<glyph unicode="M" horiz-adv-x="2904" d="M25 16q0 -16 28 -16h973q29 0 29 16t-15 17q-68 0 -146.5 31.5t-78.5 66.5v664l633 -541l637 541v-664q0 -35 -79 -66.5t-146 -31.5q-14 0 -15 -17q0 -16 27 -16h975q28 0 28 15q0 17 -14 18q-68 0 -147.5 31.5t-79.5 66.5v1153q0 35 79.5 66.5t147.5 31.5q14 0 14 17 q0 16 -28 16h-721l-678 -571l-676 571h-719q-28 0 -28 -15q0 -17 14 -18q68 0 146.5 -31.5t78.5 -66.5v-1153q0 -35 -79 -66.5t-146 -31.5q-14 0 -14 -17z" />
<glyph unicode="N" horiz-adv-x="2521" d="M25 16q0 -16 28 -16h973q29 0 29 16t-15 17q-68 0 -146.5 31.5t-78.5 66.5v664l930 -795h721q28 0 28 15q0 17 -14 18q-68 0 -147.5 31.5t-79.5 66.5v1153q0 35 80 66.5t147 31.5q14 0 14 17q0 16 -28 16h-975q-27 0 -27 -16t15 -17q68 0 146.5 -31.5t78.5 -66.5v-659 l-932 790h-719q-28 0 -28 -15q0 -17 14 -18q68 0 146.5 -31.5t78.5 -66.5v-1153q0 -35 -79 -66.5t-146 -31.5q-14 0 -14 -17z" />
<glyph unicode="O" horiz-adv-x="2940" d="M25 709q0 -305 423.5 -521.5t1021.5 -216.5t1022 216t424 522q0 305 -424 521t-1022 216t-1021.5 -216t-423.5 -521zM649 709q0 164 240.5 280.5t580.5 116.5t582 -117t242 -280q0 -164 -242 -281t-582 -117t-580.5 117t-240.5 281z" />
<glyph unicode="P" horiz-adv-x="2387" d="M39 33q68 0 146.5 31.5t79.5 65.5t1 382q0 49 -51 93t-85 44t-34 17.5t36 17.5t85 44t49 93v463q0 35 -78.5 66.5t-146.5 31.5q-14 0 -14 17q0 16 28 16l633 -2h911q315 0 539.5 -133t224.5 -319t-223 -317.5t-538 -131.5l-783 -2l-2 -379q0 -35 79 -66.5t146 -31.5 q14 0 15 -17q0 -16 -29 -16h-975q-28 0 -28 15q0 17 14 18zM819 821h783q268 0 268 142q0 141 -268 141h-783v-283z" />
<glyph unicode="Q" horiz-adv-x="3072" d="M25 709q0 -305 422.5 -521.5t1022.5 -216.5q246 0 469 39l82 -71q6 -4 7 -11q0 -16 -34 -34.5t-52.5 -18.5t-18.5 -16t31 -17h1057q28 0 28 16q0 17 -14 17q-57 0 -200.5 30t-186.5 66l-213 183q231 102 361 246.5t130 308.5q0 305 -424 521t-1022 216t-1021.5 -216 t-423.5 -521zM649 709q0 164 240.5 279.5t581.5 115.5t582 -116t241 -273.5t-207 -270.5l-74 66l-678 -2q-29 0 -28 -16q0 -16 14 -17q82 -2 190 -94l76 -66q-60 -4 -117 -4q-340 0 -580.5 117t-240.5 281z" />
<glyph unicode="R" horiz-adv-x="2543" d="M39 33q68 0 146.5 31.5t79.5 65.5t1 382q0 49 -51 93t-85 44t-34 17.5t36 17.5t85 44t49 93v463q0 35 -78.5 66.5t-146.5 31.5q-14 0 -14 17q0 16 28 16l633 -2h911q315 0 539.5 -133t224.5 -314t-201.5 -310.5t-494.5 -143.5l447 -383q43 -37 186 -67q138 -29 197 -29h4 q14 0 14 -17q0 -16 -29 -16h-1052q-33 0 -33 16t18.5 16.5t52 19t33.5 34.5q0 6 -6 10l-475 416l-205 -2l-2 -379q0 -35 79 -66.5t146 -31.5q14 0 15 -17q0 -16 -29 -16h-975q-28 0 -28 15q0 17 14 18zM819 821h783q268 0 268 142q0 141 -268 141h-783v-283z" />
<glyph unicode="S" horiz-adv-x="2138" d="M23 124q0 -9 8 -13t14 2q26 24 57 24q16 0 33 -6q434 -160 918.5 -160t779.5 131q274 123 274 377q0 158 -190 254q-154 78 -467 129l-176 29q-309 51 -309 133q0 53 94 85t203 32q248 0 458 -92q20 -31 -6 -56q-6 -6 -3 -16t12 -10t20.5 11t178.5 170t178 170t11 20 t-9 13.5t-15 -1.5q-26 -25 -58 -25q-15 0 -32 6q-385 115 -812 115t-685 -130t-258 -341q0 -186 198 -275q139 -63 525 -120q190 -29 266 -50q156 -45 155 -110q0 -70 -101 -106q-98 -35 -229 -35h-7q-301 0 -617 145q-18 29 8 55q6 6 2 17q-2 10 -11 10t-20.5 -11.5 t-188.5 -175t-188 -175t-11 -20.5z" />
<glyph unicode="T" horiz-adv-x="2181" d="M25 1467.5q0 -21.5 1 -231.5t1 -231.5t16 -21.5t16 14q0 113 101 113h653v-979q0 -35 -79 -66.5t-146 -31.5q-14 0 -15 -17q0 -16 29 -16h973q29 0 29 16t-15 17q-68 0 -146.5 31.5t-78.5 66.5v979h653q100 0 101 -113q0 -14 16 -14t16 21.5t1 231.5t1 231.5t-16 21.5 t-16 -14q0 -41 -31 -54q-14 -4 -68 -4h-1865q-53 0 -76 8t-23 50q0 14 -16 14t-16 -21.5z" />
<glyph unicode="U" horiz-adv-x="3293" d="M39 1382q70 0 148.5 -31.5t78.5 -66.5v-573q0 -309 392.5 -524.5t986.5 -215.5t986 215t392 525v573q0 35 79 67q77 31 144 31h4q14 0 15 17q0 18 -29 18h-981q-29 0 -29 -17t15 -18q70 0 148.5 -31.5t78.5 -66.5v-573q0 -164 -240.5 -281t-582.5 -117t-584 117t-242 281 q0 514 2 573q0 35 79 67q77 31 145 31h4q14 0 14 17.5t-29 17.5h-981q-28 0 -28 -17t14 -18z" />
<glyph unicode="V" horiz-adv-x="3936" d="M25 1401q0 -18 14 -19q59 0 203.5 -28.5t187.5 -65.5l1536 -1317l1536 1317q42 37 186 66q139 28 199 28h4q14 0 15 19q0 16 -29 16h-1061q-33 0 -33 -20q0 -14 18.5 -14.5t53.5 -17.5t35 -34q0 -6 -6 -10l-918 -803l-919 803q-6 4 -7 10q0 16 36 33.5t54.5 17.5t18.5 15 q0 20 -33 20h-1063q-29 0 -28 -16z" />
<glyph unicode="W" horiz-adv-x="4460" d="M25 1401q0 -18 14 -19q59 0 203.5 -28.5t187.5 -65.5l1278 -1317l520 535l520 -535l1280 1317q44 37 188 66q140 28 200 28h4q14 0 14 17.5t-29 17.5h-1063q-33 0 -32 -20q0 -14 18 -14.5t53 -17.5t35 -34q0 -6 -6 -10l-662 -717l-206 225l446 459q111 94 176 94 q14 0 14 17.5t-28 17.5h-848q-33 0 -33 -20q0 -14 18.5 -14.5t53.5 -17.5t35 -34q0 -6 -6 -10l-142 -154l-139 154q-6 4 -6 10q0 16 34.5 33.5t53 17.5t18.5 15q0 20 -32 20h-848q-29 0 -29 -17t14 -18q66 0 176 -94l445 -459l-207 -225l-661 717q-23 15 21 38t62.5 23 t18.5 15q0 20 -33 20h-1063q-29 0 -28 -16z" />
<glyph unicode="X" horiz-adv-x="2850" d="M25 16q0 -16 28 -16h1055q33 0 33 16t-18.5 16.5t-53.5 19t-35 34.5q0 6 6 10l383 330l385 -330q6 -4 7 -10q0 -16 -35 -34.5t-53.5 -18.5t-18.5 -16.5t33 -16.5h1055q29 0 28 16q0 17 -14 17q-57 0 -201 28.5t-186 65.5l-674 582l674 579q43 37 186 66q138 28 197 28h4 q14 0 14 17q0 16 -28 16h-1055q-33 0 -33 -16t18.5 -16.5t53.5 -17.5t35 -34q0 -6 -7 -10l-385 -332l-383 332q-6 4 -6 10q0 16 35 33.5t53.5 17.5t18.5 16.5t-33 16.5h-1055q-28 0 -28 -15q0 -17 14 -18q57 0 200.5 -28.5t186.5 -65.5l672 -579l-672 -582q-44 -37 -186 -66 q-138 -28 -197 -28h-4q-14 0 -14 -17z" />
<glyph unicode="Y" horiz-adv-x="3020" d="M25 1399q0 16 28 16h1053q33 0 33 -16t-18.5 -16.5t-52.5 -17.5t-34 -34q0 -6 4 -10l469 -459l469 459q4 4 4 10q0 16 -33.5 33.5t-52 17.5t-18.5 16.5t33 16.5h1054q27 0 27 -16t-14 -17q-61 0 -204 -27.5t-183 -66.5l-805 -751v-406q0 -35 79 -66.5t146 -31.5 q14 0 14 -17q0 -16 -28 -16h-975q-29 0 -29 16t15 17q68 0 147.5 31.5t79.5 66.5v406l-807 751q-41 39 -184 67q-137 27 -199 27h-4q-14 0 -14 17z" />
<glyph unicode="Z" horiz-adv-x="2140" d="M39 33q115 0 184 98l912 977h-906q-100 0 -100 -113q0 -14 -16 -14t-17 21q-2 108 -2 456q0 29 17 29q16 0 16 -14q0 -43 31 -54q14 -4 42.5 -4t900 1t892.5 1t20 -18q0 -16 -14 -17q-121 0 -184 -98l-912 -977h1077q98 0 99 113q0 14 16 14t16 -21t1.5 -231.5t1.5 -232 t-17 -21.5q-16 0 -16 15q0 43 -31 53q-14 4 -43 4t-985 -1t-977 -1q-20 0 -20 16q0 18 14 19z" />
<glyph unicode="[" horiz-adv-x="796" d="M98 -451v1901h596v-80h-260v-1741h266v-80h-602z" />
<glyph unicode="\" horiz-adv-x="569" d="M-219 1450h287l720 -1450h-286z" />
<glyph unicode="]" horiz-adv-x="796" d="M98 -371h267v1741h-261v80h596v-1901h-602v80z" />
<glyph unicode="^" horiz-adv-x="1228" d="M123 678l369 772h245l369 -772l-213 -96l-279 571l-278 -571z" />
<glyph unicode="_" horiz-adv-x="1024" d="M0 -184h1024v-111h-1024v111z" />
<glyph unicode="`" d="M0 1349q0 46 39 73.5t80 27.5q76 0 133 -55q18 -18 94 -121l168 -227h-147l-242 143q-72 43 -98.5 78t-26.5 81z" />
<glyph unicode="a" horiz-adv-x="3543" d="M37 33q51 0 182 29.5t170 66.5l1383 1317l1382 -1317q39 -37 169 -67q126 -29 178 -29h3q12 0 12 -17q0 -16 -24 -16h-957q-29 0 -28 18q0 14 16.5 14.5t47 19t30.5 34.5q0 6 -4 10l-160 142h-1339l-154 -142q-4 -4 -4 -10q0 -16 32 -34.5t47 -18.5t15 -16.5t-28 -16.5 h-955q-26 0 -26 15q0 17 12 18zM1337 496h848l-413 401z" />
<glyph unicode="b" horiz-adv-x="2613" d="M39 35q68 0 146.5 31.5t78.5 68.5t-2 461q0 49 -49 93t-84 44t-35 17.5t34 17.5t84 44t50 93l2 375q0 35 -79 66.5t-146 31.5q-14 0 -14 17q0 16 28 16q104 0 1585 4q342 0 568.5 -103t226.5 -280q0 -88 -25.5 -137t-93.5 -115q145 -74 210 -149.5t65 -204.5 q0 -188 -250 -307t-617 -119l-1669 2q-28 0 -28 15q0 17 14 18zM815 313h782q268 0 269 142q0 141 -269 141h-782v-283zM815 905h709q225 0 225 99.5t-225 99.5h-709v-199z" />
<glyph unicode="c" horiz-adv-x="2402" d="M25 709q0 305 465.5 521t1125.5 216q330 0 614 -88q41 -12 62 -12q49 0 49 65q0 14 18 14t19 -28v-527q0 -27 -19 -26q-18 0 -18 14q0 59 -26 89t-83 52q-262 107 -626 107h-4q-363 0 -626 -116q-265 -116 -265 -281q0 -164 265 -281t629.5 -117t626.5 107q57 23 83 52.5 t26 88.5q0 14 18 14t19 -26v-527q0 -29 -19 -28q-18 0 -18 14q0 66 -49 66q-20 0 -62 -13q-285 -88 -614 -88q-659 0 -1125 216t-466 522z" />
<glyph unicode="d" horiz-adv-x="2723" d="M25 18q0 -16 28 -16h568q707 -2 890 -2q492 0 840 207t348 500t-348 500.5t-840 207.5l-1458 -2q-28 0 -28 -15q0 -17 14 -18q68 0 146.5 -31.5t78.5 -66.5v-1149q0 -35 -79 -66.5t-146 -31.5q-14 0 -14 -17zM817 313v793l694 -2q233 0 399.5 -117t166.5 -280 q0 -164 -165 -279t-401 -115h-694z" />
<glyph unicode="e" horiz-adv-x="2095" d="M39 33q70 0 148.5 31.5t78.5 66.5v465q0 49 -49 94t-85 45t-36 17.5t34 17.5t85 44t51 93v377q0 35 -78.5 66.5t-148.5 31.5q-14 0 -14 17.5t20 17.5h954q936 -2 964.5 -2t43.5 4q31 10 31 54q0 14 16 14q16 1 16 -21q0 -7 1 -36q0 -56 -1 -196q-1 -210 -1.5 -231.5 t-16.5 -21.5t-16 14q0 113 -98 113h-1121v-197h694q55 0 68 4q31 10 31 52q0 14 16 14t16 -29v-395q0 -29 -16 -29t-16 15q-2 45 -33 53q-8 4 -760 4v-287l1118 2q100 0 101 113q0 14 16 14t16 -21t1.5 -235.5t1.5 -236t-17 -21.5q-16 0 -16 15q0 41 -31 53q-14 4 -70 4 h-1884q-28 0 -28 15q0 17 14 18z" />
<glyph unicode="f" horiz-adv-x="2088" d="M25 16q0 -16 28 -16h973q29 0 29 16t-15 17q-68 0 -146.5 31.5t-78.5 66.5v473h690q59 0 66 -2q31 -10 33 -55q0 -14 16 -15q16 0 16 29v395q0 29 -16 29t-16 -14q0 -41 -31 -53q-17 -5 -758 -5v197h1116q98 0 99 -113q0 -14 17 -14t17 29v448q0 29 -17 29t-17 -14 q0 -41 -31 -54q-14 -4 -68 -4h-1878q-28 0 -28 -15q0 -17 14 -18q68 0 146.5 -31.5t79.5 -66.5t1 -375q0 -49 -51 -93t-85 -44t-34 -17t36 -17.5t85 -44.5t49 -93l-2 -471q0 -35 -79 -66.5t-146 -31.5q-14 0 -14 -17z" />
<glyph unicode="g" horiz-adv-x="2580" d="M25 709q0 -305 423.5 -521.5t1021.5 -216.5q360 0 687 90q20 6 41 7q81 0 81 -86q0 -16 21 -17q20 0 20 29q0 10 -6 524q0 35 79 67q77 31 145 31h4q14 0 14 17q0 16 -29 16h-979q-29 0 -28 -16q0 -16 14 -17q70 0 148.5 -31.5t78.5 -66.5v-188q-154 -18 -291 -19 q-340 0 -580.5 117t-240.5 281t240.5 280.5t572.5 116.5t570 -107q100 -45 100 -141q0 -14 16 -14t17 28v525q0 29 -17 28q-16 0 -16 -14q0 -65 -46 -65h-1q-18 0 -55 12q-260 88 -560 88q-600 0 -1022.5 -216t-422.5 -521z" />
<glyph unicode="h" horiz-adv-x="2568" d="M25 16q0 -16 28 -16h975q29 0 29 16t-15 17q-68 0 -146.5 31.5t-78.5 66.5q0 2 -4 469h938l-4 -469q0 -35 -80 -66.5t-147 -31.5q-14 0 -15 -17q0 -16 29 -16h977q29 0 29 16t-15 17q-68 0 -147.5 31.5t-79.5 66.5v469q0 49 49 93t85 44t36 17.5t-34 17.5t-85 44t-51 93 v375q0 35 80 66.5t147 31.5q14 0 15 17q0 16 -29 16h-977q-29 0 -29 -16t15 -17q68 0 147.5 -31.5t79.5 -66.5q0 -2 4 -375h-938l4 375q0 35 79 67q77 31 142 31h4q14 0 15 17q0 16 -29 16h-975q-28 0 -28 -15q0 -17 14 -18q68 0 146.5 -31.5t78.5 -66.5v-375q0 -49 -50 -93 t-84 -44t-34 -17t36 -17.5t84 -44.5t48 -93v-469q0 -35 -79 -66.5t-146 -31.5q-14 0 -14 -17z" />
<glyph unicode="i" horiz-adv-x="1081" d="M25 16q0 -16 28 -16h973q29 0 29 16t-15 17q-68 0 -146.5 31.5t-78.5 66.5v1153q0 35 79 66.5t146 31.5q14 0 15 17q0 16 -29 16h-973q-28 0 -28 -15q0 -17 14 -18q68 0 146.5 -31.5t78.5 -66.5v-1153q0 -35 -79 -66.5t-146 -31.5q-14 0 -14 -17z" />
<glyph unicode="j" horiz-adv-x="1163" d="M-588 -641q0 -18 26 -18h5q567 39 944 276q490 308 494 879v338q0 139 -2 307l-2 145q0 35 79 67q76 31 144 31h4q14 0 14 17q0 16 -28 16h-977q-29 0 -29 -16t14 -17q70 0 149 -31.5t79 -66.5v-887q0 -457 -277 -708q-190 -172 -616 -307q-20 -6 -21 -25z" />
<glyph unicode="k" horiz-adv-x="2596" d="M39 33q68 0 146.5 31.5t78.5 66.5v1153q0 35 -79 66.5t-146 31.5q-14 0 -14 17q0 16 28 16h973q29 0 29 -16t-15 -17q-68 0 -146.5 -31.5t-78.5 -66.5v-498l610 533q6 4 7 10q0 16 -35 34.5t-53.5 18.5t-18.5 16.5t33 16.5h1052q27 0 27 -16t-14 -17q-57 0 -200 -28.5 t-185 -65.5l-602 -516l731 -643q43 -37 185 -66q137 -28 198 -28h4q14 0 14 -17.5t-28 -17.5h-1051q-33 0 -33 20q0 14 18.5 14.5t52.5 18t34 33.5q0 6 -7 10l-444 402l-295 -258v-109q0 -35 79 -66.5t146 -31.5q14 0 15 -17q0 -16 -29 -16h-973q-28 0 -28 15q0 17 14 18z " />
<glyph unicode="l" horiz-adv-x="2091" d="M25 16q0 -16 28 -16h1878q55 0 68 -4q31 -10 31 -51q0 -14 16 -15q18 0 18 29l-4 447q0 29 -16 28q-16 0 -16 -14q0 -113 -99 -113q-84 2 -1114 2v977q0 35 79 66.5t146 31.5q14 0 15 17q0 16 -29 16h-973q-28 0 -28 -15q0 -17 14 -18q68 0 146.5 -31.5t78.5 -66.5v-1153 q0 -35 -79 -67.5t-146 -32.5q-14 0 -14 -17z" />
<glyph unicode="m" horiz-adv-x="2904" d="M25 16q0 -16 28 -16h973q29 0 29 16t-15 17q-68 0 -146.5 31.5t-78.5 66.5v664l633 -541l637 541v-664q0 -35 -79 -66.5t-146 -31.5q-14 0 -15 -17q0 -16 27 -16h975q28 0 28 15q0 17 -14 18q-68 0 -147.5 31.5t-79.5 66.5v1153q0 35 79.5 66.5t147.5 31.5q14 0 14 17 q0 16 -28 16h-721l-678 -571l-676 571h-719q-28 0 -28 -15q0 -17 14 -18q68 0 146.5 -31.5t78.5 -66.5v-1153q0 -35 -79 -66.5t-146 -31.5q-14 0 -14 -17z" />
<glyph unicode="n" horiz-adv-x="2521" d="M25 16q0 -16 28 -16h973q29 0 29 16t-15 17q-68 0 -146.5 31.5t-78.5 66.5v664l930 -795h721q28 0 28 15q0 17 -14 18q-68 0 -147.5 31.5t-79.5 66.5v1153q0 35 80 66.5t147 31.5q14 0 14 17q0 16 -28 16h-975q-27 0 -27 -16t15 -17q68 0 146.5 -31.5t78.5 -66.5v-659 l-932 790h-719q-28 0 -28 -15q0 -17 14 -18q68 0 146.5 -31.5t78.5 -66.5v-1153q0 -35 -79 -66.5t-146 -31.5q-14 0 -14 -17z" />
<glyph unicode="o" horiz-adv-x="2940" d="M25 709q0 -305 423.5 -521.5t1021.5 -216.5t1022 216t424 522q0 305 -424 521t-1022 216t-1021.5 -216t-423.5 -521zM649 709q0 164 240.5 280.5t580.5 116.5t582 -117t242 -280q0 -164 -242 -281t-582 -117t-580.5 117t-240.5 281z" />
<glyph unicode="p" horiz-adv-x="2387" d="M39 33q68 0 146.5 31.5t79.5 65.5t1 382q0 49 -51 93t-85 44t-34 17.5t36 17.5t85 44t49 93v463q0 35 -78.5 66.5t-146.5 31.5q-14 0 -14 17q0 16 28 16l633 -2h911q315 0 539.5 -133t224.5 -319t-223 -317.5t-538 -131.5l-783 -2l-2 -379q0 -35 79 -66.5t146 -31.5 q14 0 15 -17q0 -16 -29 -16h-975q-28 0 -28 15q0 17 14 18zM819 821h783q268 0 268 142q0 141 -268 141h-783v-283z" />
<glyph unicode="q" horiz-adv-x="3072" d="M25 709q0 -305 422.5 -521.5t1022.5 -216.5q246 0 469 39l82 -71q6 -4 7 -11q0 -16 -34 -34.5t-52.5 -18.5t-18.5 -16t31 -17h1057q28 0 28 16q0 17 -14 17q-57 0 -200.5 30t-186.5 66l-213 183q231 102 361 246.5t130 308.5q0 305 -424 521t-1022 216t-1021.5 -216 t-423.5 -521zM649 709q0 164 240.5 279.5t581.5 115.5t582 -116t241 -273.5t-207 -270.5l-74 66l-678 -2q-29 0 -28 -16q0 -16 14 -17q82 -2 190 -94l76 -66q-60 -4 -117 -4q-340 0 -580.5 117t-240.5 281z" />
<glyph unicode="r" horiz-adv-x="2543" d="M39 33q68 0 146.5 31.5t79.5 65.5t1 382q0 49 -51 93t-85 44t-34 17.5t36 17.5t85 44t49 93v463q0 35 -78.5 66.5t-146.5 31.5q-14 0 -14 17q0 16 28 16l633 -2h911q315 0 539.5 -133t224.5 -314t-201.5 -310.5t-494.5 -143.5l447 -383q43 -37 186 -67q138 -29 197 -29h4 q14 0 14 -17q0 -16 -29 -16h-1052q-33 0 -33 16t18.5 16.5t52 19t33.5 34.5q0 6 -6 10l-475 416l-205 -2l-2 -379q0 -35 79 -66.5t146 -31.5q14 0 15 -17q0 -16 -29 -16h-975q-28 0 -28 15q0 17 14 18zM819 821h783q268 0 268 142q0 141 -268 141h-783v-283z" />
<glyph unicode="s" horiz-adv-x="2138" d="M23 124q0 -9 8 -13t14 2q26 24 57 24q16 0 33 -6q434 -160 918.5 -160t779.5 131q274 123 274 377q0 158 -190 254q-154 78 -467 129l-176 29q-309 51 -309 133q0 53 94 85t203 32q248 0 458 -92q20 -31 -6 -56q-6 -6 -3 -16t12 -10t20.5 11t178.5 170t178 170t11 20 t-9 13.5t-15 -1.5q-26 -25 -58 -25q-15 0 -32 6q-385 115 -812 115t-685 -130t-258 -341q0 -186 198 -275q139 -63 525 -120q190 -29 266 -50q156 -45 155 -110q0 -70 -101 -106q-98 -35 -229 -35h-7q-301 0 -617 145q-18 29 8 55q6 6 2 17q-2 10 -11 10t-20.5 -11.5 t-188.5 -175t-188 -175t-11 -20.5z" />
<glyph unicode="t" horiz-adv-x="2181" d="M25 1467.5q0 -21.5 1 -231.5t1 -231.5t16 -21.5t16 14q0 113 101 113h653v-979q0 -35 -79 -66.5t-146 -31.5q-14 0 -15 -17q0 -16 29 -16h973q29 0 29 16t-15 17q-68 0 -146.5 31.5t-78.5 66.5v979h653q100 0 101 -113q0 -14 16 -14t16 21.5t1 231.5t1 231.5t-16 21.5 t-16 -14q0 -41 -31 -54q-14 -4 -68 -4h-1865q-53 0 -76 8t-23 50q0 14 -16 14t-16 -21.5z" />
<glyph unicode="u" horiz-adv-x="3293" d="M39 1382q70 0 148.5 -31.5t78.5 -66.5v-573q0 -309 392.5 -524.5t986.5 -215.5t986 215t392 525v573q0 35 79 67q77 31 144 31h4q14 0 15 17q0 18 -29 18h-981q-29 0 -29 -17t15 -18q70 0 148.5 -31.5t78.5 -66.5v-573q0 -164 -240.5 -281t-582.5 -117t-584 117t-242 281 q0 514 2 573q0 35 79 67q77 31 145 31h4q14 0 14 17.5t-29 17.5h-981q-28 0 -28 -17t14 -18z" />
<glyph unicode="v" horiz-adv-x="3936" d="M25 1401q0 -18 14 -19q59 0 203.5 -28.5t187.5 -65.5l1536 -1317l1536 1317q42 37 186 66q139 28 199 28h4q14 0 15 19q0 16 -29 16h-1061q-33 0 -33 -20q0 -14 18.5 -14.5t53.5 -17.5t35 -34q0 -6 -6 -10l-918 -803l-919 803q-6 4 -7 10q0 16 36 33.5t54.5 17.5t18.5 15 q0 20 -33 20h-1063q-29 0 -28 -16z" />
<glyph unicode="w" horiz-adv-x="4460" d="M25 1401q0 -18 14 -19q59 0 203.5 -28.5t187.5 -65.5l1278 -1317l520 535l520 -535l1280 1317q44 37 188 66q140 28 200 28h4q14 0 14 17.5t-29 17.5h-1063q-33 0 -32 -20q0 -14 18 -14.5t53 -17.5t35 -34q0 -6 -6 -10l-662 -717l-206 225l446 459q111 94 176 94 q14 0 14 17.5t-28 17.5h-848q-33 0 -33 -20q0 -14 18.5 -14.5t53.5 -17.5t35 -34q0 -6 -6 -10l-142 -154l-139 154q-6 4 -6 10q0 16 34.5 33.5t53 17.5t18.5 15q0 20 -32 20h-848q-29 0 -29 -17t14 -18q66 0 176 -94l445 -459l-207 -225l-661 717q-23 15 21 38t62.5 23 t18.5 15q0 20 -33 20h-1063q-29 0 -28 -16z" />
<glyph unicode="x" horiz-adv-x="2850" d="M25 16q0 -16 28 -16h1055q33 0 33 16t-18.5 16.5t-53.5 19t-35 34.5q0 6 6 10l383 330l385 -330q6 -4 7 -10q0 -16 -35 -34.5t-53.5 -18.5t-18.5 -16.5t33 -16.5h1055q29 0 28 16q0 17 -14 17q-57 0 -201 28.5t-186 65.5l-674 582l674 579q43 37 186 66q138 28 197 28h4 q14 0 14 17q0 16 -28 16h-1055q-33 0 -33 -16t18.5 -16.5t53.5 -17.5t35 -34q0 -6 -7 -10l-385 -332l-383 332q-6 4 -6 10q0 16 35 33.5t53.5 17.5t18.5 16.5t-33 16.5h-1055q-28 0 -28 -15q0 -17 14 -18q57 0 200.5 -28.5t186.5 -65.5l672 -579l-672 -582q-44 -37 -186 -66 q-138 -28 -197 -28h-4q-14 0 -14 -17z" />
<glyph unicode="y" horiz-adv-x="3020" d="M25 1399q0 16 28 16h1053q33 0 33 -16t-18.5 -16.5t-52.5 -17.5t-34 -34q0 -6 4 -10l469 -459l469 459q4 4 4 10q0 16 -33.5 33.5t-52 17.5t-18.5 16.5t33 16.5h1054q27 0 27 -16t-14 -17q-61 0 -204 -27.5t-183 -66.5l-805 -751v-406q0 -35 79 -66.5t146 -31.5 q14 0 14 -17q0 -16 -28 -16h-975q-29 0 -29 16t15 17q68 0 147.5 31.5t79.5 66.5v406l-807 751q-41 39 -184 67q-137 27 -199 27h-4q-14 0 -14 17z" />
<glyph unicode="z" horiz-adv-x="2140" d="M39 33q115 0 184 98l912 977h-906q-100 0 -100 -113q0 -14 -16 -14t-17 21q-2 108 -2 456q0 29 17 29q16 0 16 -14q0 -43 31 -54q14 -4 42.5 -4t900 1t892.5 1t20 -18q0 -16 -14 -17q-121 0 -184 -98l-912 -977h1077q98 0 99 113q0 14 16 14t16 -21t1.5 -231.5t1.5 -232 t-17 -21.5q-16 0 -16 15q0 43 -31 53q-14 4 -43 4t-985 -1t-977 -1q-20 0 -20 16q0 18 14 19z" />
<glyph unicode="{" horiz-adv-x="796" d="M49 492v4q86 23 120 79t34 164v414q0 137 36 195t146 80t365 22v-6q-88 -29 -121 -83t-33 -165v-420q0 -125 -35 -191.5t-133 -88.5v-4q98 -27 133 -91.5t35 -214.5v-387q0 -106 34 -163.5t120 -81.5v-5q-262 0 -378 34t-149 112q-20 51 -20 188v365q0 113 -31 166 t-123 78z" />
<glyph unicode="|" horiz-adv-x="569" d="M162 0v1450h244v-1450h-244z" />
<glyph unicode="}" horiz-adv-x="796" d="M47 -446q86 25 120 82t34 163v387q0 150 34.5 214.5t133.5 91.5v4q-98 23 -133.5 89t-34.5 191v420q0 111 -33 165t-121 83v6q254 0 365 -21.5t146.5 -80t35.5 -195.5v-414q0 -109 34 -165t120 -78v-4q-92 -25 -123 -78t-31 -166v-365q0 -137 -21 -188 q-33 -78 -148.5 -112t-377.5 -34v5z" />
<glyph unicode="~" horiz-adv-x="1228" d="M98 465q137 254 305 254q82 0 236 -67.5t202 -67.5t93 53q-1 0 65 98l131 -149q-76 -121 -116 -162q-78 -78 -177 -78t-234.5 67.5t-195.5 67.5t-110 -57q-12 -16 -68 -111z" />
<glyph unicode="&#xa1;" d="M84 -16q0 -12 13 -12.5t239 -0.5h233q20 0 21 13q0 12 -10 12q-41 2 -41 72l-72 839q0 4 -1 38t10 34t11 12t-20 13h-260q-20 0 -21 -13q0 -12 11.5 -12t10.5 -34t-1 -38l-72 -839q0 -72 -41 -72q-10 0 -10 -12zM147 1230q0 77 53.5 132t130.5 55t132 -55t55 -132 t-55 -130t-132 -53t-130.5 53t-53.5 130z" />
<glyph unicode="&#xa2;" horiz-adv-x="1089" d="M84 637.5q0 148.5 128 264.5t327 153v205h170v-193q119 -2 223 -51q14 -6 22 -6q18 0 19 39q0 8 7 8t7 -17v-307q0 -16 -7 -16t-7 8q0 57 -41 82q-94 59 -223 63v-462q129 2 223 61q41 25 41 82q0 8 8 8q6 2 6 -14v-307q0 -16 -6 -17q-8 0 -8 8q0 37 -19 37q-8 0 -22 -6 q-104 -49 -223 -51v-207h-170v221q-199 37 -327 151.5t-128 263zM349 637.5q0 -142.5 190 -205.5v414q-190 -66 -190 -208.5z" />
<glyph unicode="&#xa3;" horiz-adv-x="2498" d="M16 -41q0 -8 17 -10l674 -51q16 -2 18 10q0 10 -8 10q-43 2 -90 23.5t-45 44.5q63 96 254 96q147 0 438 -55.5t440 -55.5q438 0 586 295q2 20 53 33.5t75.5 10.5t27.5 7q0 10 -17 13q-317 41 -653 84q-16 2 -19 -8q0 -10 9 -13q41 -4 86 -31.5t43 -50.5 q-66 -115 -209 -114q-96 0 -240 28l-256 51q6 47 14.5 135.5t-14.5 155.5l350 2q61 0 68 -2q31 -8 33 -55q0 -14 17 -14t18 28v209q0 29 -17 29q-16 0 -16 -14q0 -43 -33 -54q-12 -4 -70 -4h-440l-18 19q-160 160 -160 259t104.5 172t269 72.5t269 -55.5t117.5 -129 q6 -31 6 -45q0 -57 -74 -70q-12 -2 -12 -16q0 -20 24 -16q644 110 807 133q27 4 27 18q0 20 -22 17.5t-70 -2.5t-108 18t-64 47q-156 332 -865 332q-412 0 -686 -130t-274 -335q0 -135 156 -289h-289q-57 0 -70 4q-31 10 -31 54q0 14 -17 14t-17 -22.5t1 -110.5t1 -111 t16 -22q18 0 19 14q2 47 30 55h500q84 -78 84 -146t-41 -124q-381 -6 -555 -274q-39 -59 -143 -54q-8 0 -9 -10z" />
<glyph unicode="&#xa4;" horiz-adv-x="1366" d="M109 244l100 98q-84 150 -84 300.5t84 285.5l-100 98l178 180l100 -100q139 86 299 86t295 -86l100 100l174 -180l-100 -98q86 -135 86 -300t-86 -286l100 -98l-174 -178l-100 98q-150 -88 -305.5 -88t-288.5 88l-100 -98zM451 635q0 -94 67.5 -164t164.5 -70t164.5 70 t67.5 164t-67.5 162.5t-164.5 68.5t-164.5 -68.5t-67.5 -162.5z" />
<glyph unicode="&#xa5;" horiz-adv-x="3020" d="M25 1399q0 16 28 16h1053q33 0 33 -16t-18.5 -16.5t-52.5 -17.5t-34 -34q0 -6 4 -10l469 -459l469 459q4 4 4 10q0 16 -33.5 33.5t-52 17.5t-18.5 16.5t33 16.5h1054q27 0 27 -16t-14 -17q-61 0 -204 -27.5t-183 -66.5l-703 -657h340v-166h-442v-115h442v-166h-442v-53 q0 -35 79 -66.5t146 -31.5q14 0 14 -17q0 -16 -28 -16h-975q-29 0 -29 16t15 17q68 0 147.5 31.5t79.5 66.5v53h-453v166h453v115h-453v166h350l-704 657q-41 39 -183.5 67t-203.5 27q-14 0 -14 17z" />
<glyph unicode="&#xa6;" horiz-adv-x="569" d="M162 0v580h244v-580h-244zM162 870v580h244v-580h-244z" />
<glyph unicode="&#xa7;" horiz-adv-x="1177" d="M18 375q0 8 13 8h497q12 0 13 -8q0 -8 -6 -8q-33 0 -72 -16.5t-39 -33.5q0 -70 55 -123.5t138.5 -54t130.5 38.5t47 92t-56 90q-31 20 -118 54l-277 108q-117 45 -170 92q-61 59 -61 146q0 135 153 244q-68 72 -67 165q0 123 119.5 200t294.5 77t296 -71t121 -191 q0 -16 38 -31.5t71 -15.5q6 0 6 -9q0 -8 -15 -8h-460q-14 0 -15 8q0 8 21 8.5t58.5 15.5t37.5 32q0 47 -45 77.5t-107.5 30.5t-98.5 -32.5t-36 -79.5t56 -84q29 -20 114 -54l224 -90q137 -55 190 -98q78 -61 78 -154q0 -141 -146 -237q84 -72 84 -194.5t-129 -210 t-339.5 -87.5t-351 94t-130.5 252q0 16 -39 33t-71 17q-6 0 -7 8zM373 805q0 -49 45 -80q18 -12 102 -49l289 -127q78 47 78 117q0 45 -43 75q-20 14 -94 47l-293 130q-84 -43 -84 -113z" />
<glyph unicode="&#xa8;" d="M-43 1290q0 66 47 113t113 47t112.5 -47t46.5 -113t-47 -114t-112 -48q-66 0 -113 48.5t-47 113.5zM408 1290q0 66 46.5 113t112.5 47t113 -47t47 -113t-47 -114t-113 -48t-112.5 48.5t-46.5 113.5z" />
<glyph unicode="&#xa9;" horiz-adv-x="1638" d="M90 714q0 304 211 520t515 216t518 -213t214 -524t-216 -527.5t-517 -216.5t-513 220.5t-212 524.5zM213 710q0 -253 179 -435.5t428 -182.5t427 186.5t178 438.5t-180 431t-429 179t-426 -182t-177 -435zM385 698q0 147 149.5 253t360.5 106q104 0 197 -43q35 -16 34 26 q0 6 7 7q6 0 6 -15v-256q0 -12 -6 -12t-7 6q0 49 -34 70q-84 51 -201 51t-202 -56.5t-85 -136.5t85 -136t202 -56t201 51q35 20 34 70q0 6 7 6q6 0 6 -12v-256q0 -14 -6 -15q-6 0 -7 6q0 43 -34 27q-92 -43 -197 -43q-211 0 -360.5 105.5t-149.5 252.5z" />
<glyph unicode="&#xab;" horiz-adv-x="1138" d="M106 492l240 331h246l-238 -331l248 -328h-252zM539 492l239 331h246l-238 -331l248 -328h-252z" />
<glyph unicode="&#xac;" horiz-adv-x="1228" d="M98 606v238h1032v-598h-237v360h-795z" />
<glyph unicode="&#xad;" d="M51.5 374.5q-0.5 20.5 1.5 354.5h455q55 0 67 4q31 10 31 51q0 14 17 15q18 0 18 -20.5t-2 -354.5h-455q-55 0 -67 -4q-31 -10 -31 -51q0 -14 -16 -15q-18 0 -18.5 20.5z" />
<glyph unicode="&#xae;" horiz-adv-x="1638" d="M90 714q0 304 211 520t515 216t518 -213t214 -524t-216 -527.5t-517 -216.5t-513 220.5t-212 524.5zM213 710q0 -253 179 -435.5t428 -182.5t427 186.5t178 438.5t-180 431t-429 179t-426 -182t-177 -435zM430 377q0 8 13 8t39 15.5t26 31.5v184q0 25 -16.5 46.5 t-26.5 21.5t-10 8t11 9t26.5 21.5t15.5 45.5v225q0 16 -24.5 31.5t-47.5 15.5q-4 0 -4 9q0 8 8 8h203q184 -2 288.5 -2t176.5 -64.5t72 -152.5t-65 -151t-159 -71l144 -184q14 -18 59 -32.5t57.5 -14.5t12.5 -8q-2 -8 -10 -8h-336q-10 0 -11 8q2 4 7.5 6t17.5 13.5t6 19.5 l-151 200h-66l-2 -184q0 -16 25.5 -31.5t39 -15.5t13.5 -8t-10 -8h-312q-8 0 -10 8zM686 768h250q86 0 86 69t-86 68h-250v-137z" />
<glyph unicode="&#xaf;" d="M-18 1264v186h723v-186h-723z" />
<glyph unicode="&#xb0;" horiz-adv-x="819" d="M102 1143q0 127 90.5 217t217.5 90t217 -90t90 -217t-90 -217t-217 -90t-217.5 90t-90.5 217zM248 1141.5q0 -66.5 47 -113.5t114 -47t114.5 47t47.5 114t-48 115t-115 48q-68 0 -114 -48.5t-46 -115z" />
<glyph unicode="&#xb1;" horiz-adv-x="1228" d="M98 0v238h1032v-238h-1032zM98 713v237h398v391h237v-391h397v-237h-397v-406h-237v406h-398z" />
<glyph unicode="&#xb2;" horiz-adv-x="862" d="M27 709q0 82 139 176q129 76 260 151q139 86 139 154q0 41 -51 70.5t-123 29.5q-150 0 -205 -47q-16 -8 -33.5 -18.5t-17.5 -27.5t-8 -17t-8 11v228q0 14 8 15q8 0 8 -9q0 -29 49 -28q94 35 207 35q174 0 297 -71t123 -165q0 -161 -303 -274q-80 -31 -160 -60h418 q49 0 49 58q0 6 8 6t8 -10v-115q2 -106 2.5 -116.5t-9 -10.5t-9.5 6q0 29 -49 29h-739z" />
<glyph unicode="&#xb3;" horiz-adv-x="706" d="M25 706v115q2 102 2 113.5t8 11.5t8 -16.5t16.5 -27.5t32.5 -19q37 -31 205 -31q47 0 82 19.5t35 47.5t-35 47t-83 19t-48 -27q0 -8 -8 -8t-9 15v196q0 14 9 15q8 0 8 -7q0 -29 48 -28.5t83 20t35 47t-35 48t-82 20.5q-168 0 -205 -33q-16 -8 -32.5 -19.5t-16.5 -27.5 t-8 -16t-8 11t-1 114.5t-1 114.5t8 12q8 0 8 -7q0 -29 49 -28q92 33 229.5 33t250 -66t112.5 -152t-94 -149q94 -63 94 -149t-112.5 -152t-250 -66t-229.5 35q-49 0 -49 -29q0 -8 -8 -8t-8 12z" />
<glyph unicode="&#xb4;" d="M168 1047l168 227q76 102 94 121q57 55 133 55q41 0 80 -27.5t39 -73.5t-26.5 -81t-98.5 -78l-242 -143h-147z" />
<glyph unicode="&#xb6;" horiz-adv-x="1740" d="M293 948q0 233 164 377q145 125 331 125h662v-158h-141v-1730h-172v1730h-179v-1730h-170v880q-186 0 -340.5 136t-154.5 370z" />
<glyph unicode="&#xb7;" d="M156 689q0 77 54 131t131 54t131 -54t54 -131t-54 -131t-131 -54t-131 54t-54 131z" />
<glyph unicode="&#xb8;" d="M92 -420l35 90q86 -27 123 -26q109 0 108 75q0 72 -75 72q-37 0 -54 -12l-34 18l96 203h94l-57 -127q31 10 93.5 10t116.5 -36t54 -109q0 -98 -98 -150q-80 -43 -192 -43t-210 35z" />
<glyph unicode="&#xb9;" horiz-adv-x="589" d="M43 717q0 -8 14 -8h486q14 0 14 8t-6 8q-35 0 -74 15.5t-39 33.5v658l-381 -93q-14 0 -14 -8t6 -8q35 0 74 -16.5t39 -32.5v-500q0 -18 -39 -33.5t-74 -15.5q-6 0 -6 -8z" />
<glyph unicode="&#xbb;" horiz-adv-x="1138" d="M104 164l248 328l-237 331h245l240 -331l-244 -328h-252zM537 164l247 328l-237 331h246l239 -331l-244 -328h-251z" />
<glyph unicode="&#xbc;" horiz-adv-x="2140" d="M61 502q0 -10 21 -10h700q20 0 21 10q0 12 -10 12q-49 0 -106.5 20.5t-57.5 43.5v868l-547 -123q-20 0 -21 -10q0 -12 11 -13q49 0 105 -20t56 -43v-659q0 -23 -56 -43.5t-105 -20.5q-10 0 -11 -12zM532 -31l922 1481h125l-924 -1481h-123zM956 205h584v-119 q0 -23 -56.5 -43t-105.5 -20q-10 0 -10 -11.5t21 -11.5h700q20 0 20 11t-10 12q-49 0 -105 20.5t-57 42.5q0 2 -2 90q-2 33 34 62t62 29.5t25 11.5q0 12 -23.5 12t-60.5 29.5t-37 60.5l2 467q0 23 56.5 44t105.5 21q10 0 10 11q0 10 -20 10h-516l-615 -582zM1305 354 l235 242v-242h-235z" />
<glyph unicode="&#xbd;" horiz-adv-x="2385" d="M61 502q0 -10 21 -10h700q20 0 21 10q0 12 -10 12q-49 0 -106.5 20.5t-57.5 43.5v868l-547 -123q-20 0 -21 -10q0 -12 11 -13q49 0 105 -20t56 -43v-659q0 -23 -56 -43.5t-105 -20.5q-10 0 -11 -12zM532 -31l922 1481h125l-924 -1481h-123zM1184 0q0 109 202 233 q186 98 373 199q203 115 203 203q0 55 -73.5 94t-178.5 39q-217 0 -295 -61q-23 -12 -47.5 -26.5t-24.5 -47.5q0 -10 -12 -10t-12 14v154q-2 137 -2 151t12 14t12 -10q0 -37 72 -37q133 45 297 45q250 0 427 -93t177 -218t-143 -225q-104 -72 -256 -124l-266 -91h600 q72 0 71 76q0 8 13 8q12 0 12 -15v-151q2 -139 2 -153.5t-12 -14.5t-13 10q0 27 -16 32t-55 5h-1067z" />
<glyph unicode="&#xbe;" horiz-adv-x="2211" d="M35 487.5q0 14.5 2 151.5v147q0 18 12 19q12 0 12 -8q0 -35 24 -49.5t48 -26.5q53 -41 295 -41q68 0 117 25.5t49 62.5t-48 62.5t-103.5 25.5t-63.5 -2q-23 -6 -23 -35q0 -8 -11 -8t-11 18v261q0 18 11 18t11 -18.5t23 -24.5q8 -2 63.5 -2t103.5 25.5t48 61.5t-49 62.5 t-117 26.5q-242 0 -295 -41q-25 -12 -48.5 -26.5t-23.5 -49.5q0 -8 -12 -8t-12 14v152q-2 137 -2 151t12 15q12 0 12 -18.5t15.5 -23.5t54.5 -5q133 45 330.5 45t359.5 -86t162 -201t-135 -199q135 -82 135 -196.5t-162 -200.5t-359.5 -86t-330.5 45q-39 0 -47 -4 q-23 -6 -23 -35q0 -8 -12 -8t-12 14.5zM594 -31l922 1481h124l-923 -1481h-123zM1018 205h584v-119q0 -23 -56.5 -43t-105.5 -20q-10 0 -10 -11.5t20 -11.5h700q20 0 21 10q0 12 -10 13q-49 0 -105.5 20.5t-56.5 42.5q0 2 -2 90q-2 33 34 62t61.5 29.5t25.5 12t-23.5 11.5 t-60.5 29.5t-37 60.5l2 467q0 23 56 44t106 21q10 0 10 11q0 10 -21 10h-516l-614 -582zM1366 354l236 242v-242h-236z" />
<glyph unicode="&#xbf;" horiz-adv-x="1359" d="M25 420q0 106 149 215q139 88 277 174q149 102 149 190h301q0 -90 -85 -176t-167 -168q-88 -109 -88 -235q0 -59 70.5 -110.5t165 -51.5t217.5 27.5t173 54t83 43.5q35 25 35 80q0 14 16 14t16 -22t1 -231.5t1 -231t-16 -21.5t-16 15q0 41 -31 53q-14 4 -68 4 q-182 -68 -413 -68q-322 0 -546 127t-224 318zM563 1262q0 -76 54.5 -130.5t130.5 -54.5t129 54.5t53 130.5t-53 130t-129 54t-130.5 -54.5t-54.5 -129.5z" />
<glyph unicode="&#xc0;" horiz-adv-x="3543" d="M25 16q0 16 12 17q51 0 182 29.5t170 66.5l1383 1317l1382 -1317q39 -37 169 -67t181 -29q12 0 12 -17q0 -16 -24 -16h-957q-29 0 -28 18q0 14 16.5 14.5t47 19t30.5 34.5q0 6 -4 10l-160 142h-1339l-154 -142q-4 -4 -4 -10q0 -16 32 -34.5t47 -18.5t15 -16.5t-28 -16.5 h-955q-27 0 -26 16zM1337 496h848l-413 401zM1516 1820q0 46 39 73.5t80 27.5q76 0 133 -55q18 -18 94 -121l168 -227h-147l-242 143q-72 43 -98.5 78t-26.5 81z" />
<glyph unicode="&#xc1;" horiz-adv-x="3543" d="M25 16q0 16 12 17q51 0 182 29.5t170 66.5l1383 1317l1382 -1317q39 -37 169 -67t181 -29q12 0 12 -17q0 -16 -24 -16h-957q-29 0 -28 18q0 14 16.5 14.5t47 19t30.5 34.5q0 6 -4 10l-160 142h-1339l-154 -142q-4 -4 -4 -10q0 -16 32 -34.5t47 -18.5t15 -16.5t-28 -16.5 h-955q-27 0 -26 16zM1337 496h848l-413 401zM1520 1518l168 227q76 102 94 121q57 55 133 55q41 0 80 -27.5t39 -73.5t-26.5 -81t-98.5 -78l-242 -143h-147z" />
<glyph unicode="&#xc2;" horiz-adv-x="3543" d="M25 16q0 16 12 17q51 0 182 29.5t170 66.5l1383 1317l1382 -1317q39 -37 169 -67t181 -29q12 0 12 -17q0 -16 -24 -16h-957q-29 0 -28 18q0 14 16.5 14.5t47 19t30.5 34.5q0 6 -4 10l-160 142h-1339l-154 -142q-4 -4 -4 -10q0 -16 32 -34.5t47 -18.5t15 -16.5t-28 -16.5 h-955q-27 0 -26 16zM1337 496h848l-413 401zM1397 1509l250 371h256l248 -371h-162l-213 191l-215 -191h-164z" />
<glyph unicode="&#xc3;" horiz-adv-x="3543" d="M25 16q0 16 12 17q51 0 182 29.5t170 66.5l1383 1317l1382 -1317q39 -37 169 -67t181 -29q12 0 12 -17q0 -16 -24 -16h-957q-29 0 -28 18q0 14 16.5 14.5t47 19t30.5 34.5q0 6 -4 10l-160 142h-1339l-154 -142q-4 -4 -4 -10q0 -16 32 -34.5t47 -18.5t15 -16.5t-28 -16.5 h-955q-27 0 -26 16zM1337 496h848l-413 401zM1350 1530q59 299 258 299q68 0 185.5 -52t170.5 -52q59 0 86 94h113q-68 -297 -271 -297q-72 0 -190.5 54.5t-153.5 54.5t-61.5 -31t-30.5 -70h-106z" />
<glyph unicode="&#xc4;" horiz-adv-x="3543" d="M25 16q0 16 12 17q51 0 182 29.5t170 66.5l1383 1317l1382 -1317q39 -37 169 -67t181 -29q12 0 12 -17q0 -16 -24 -16h-957q-29 0 -28 18q0 14 16.5 14.5t47 19t30.5 34.5q0 6 -4 10l-160 142h-1339l-154 -142q-4 -4 -4 -10q0 -16 32 -34.5t47 -18.5t15 -16.5t-28 -16.5 h-955q-27 0 -26 16zM1337 496h848l-413 401zM1391 1679q0 66 47 113t113 47t112.5 -47t46.5 -113t-47 -114t-112 -48q-66 0 -113 48.5t-47 113.5zM1842 1679q0 66 46.5 113t112.5 47t113 -47t47 -113t-47 -114t-113 -48t-112.5 48.5t-46.5 113.5z" />
<glyph unicode="&#xc5;" horiz-adv-x="3543" d="M25 16q0 16 12 17q51 0 182 29.5t170 66.5l1383 1317l1382 -1317q39 -37 169 -67t181 -29q12 0 12 -17q0 -16 -24 -16h-957q-29 0 -28 18q0 14 16.5 14.5t47 19t30.5 34.5q0 6 -4 10l-160 142h-1339l-154 -142q-4 -4 -4 -10q0 -16 32 -34.5t47 -18.5t15 -16.5t-28 -16.5 h-955q-27 0 -26 16zM1337 496h848l-413 401zM1538 1753q0 94 67.5 161.5t161.5 67.5t161.5 -67.5t67.5 -161.5t-67.5 -162t-161.5 -68t-161.5 67.5t-67.5 162.5zM1661 1753q0 -43 31.5 -75t74.5 -32t75 32t32 75t-32 74.5t-75 31.5t-74.5 -31.5t-31.5 -74.5z" />
<glyph unicode="&#xc6;" horiz-adv-x="3590" d="M25 16q0 16 12 17q51 0 182 29.5t170 66.5l1288 1225q-76 29 -143 28q-14 0 -14 17.5t28 17.5l1886 -2q53 0 68 4q31 10 31 54q0 14 16 14t16.5 -21.5t-0.5 -231.5t-1 -231.5t-17 -21.5q-16 0 -16 14q0 113 -99 113h-1120v-197h694q55 0 68 4q31 10 31 52q0 14 16 14 t17 -29v-395q0 -29 -17 -29q-16 0 -16 15q-2 45 -33 53q-8 4 -760 4v-287l1118 2q100 0 101 113q0 14 16 14t17 -21q2 -105 2 -464q0 -29 -17 -29q-16 0 -16 15q0 41 -31 53q-14 4 -70 4h-1884q-29 0 -28 16q0 16 14 17q70 0 148.5 31.5t78.5 66.5v107h-663l-154 -142 q-4 -4 -4 -10q0 -16 32 -34.5t47 -18.5t15 -16.5t-28 -16.5h-955q-27 0 -26 16zM1337 496h424v391z" />
<glyph unicode="&#xc7;" horiz-adv-x="2402" d="M25 709q0 305 465.5 521t1125.5 216q330 0 614 -88q41 -12 62 -12q49 0 49 65q0 14 18 14t19 -28v-527q0 -27 -19 -26q-18 0 -18 14q0 59 -26 89t-83 52q-262 106 -626.5 106.5t-629.5 -116t-265 -280.5t265 -281t629.5 -117t626.5 107q57 23 83 52.5t26 88.5q0 14 18 14 t19 -26v-527q0 -29 -19 -28q-18 0 -18 14q0 66 -49 66q-20 0 -62 -13q-285 -88 -614 -88q-659 0 -1125 216t-466 522zM1239 -420l35 90q86 -27 123 -26q109 0 108 75q0 72 -75 72q-37 0 -54 -12l-34 18l96 203h94l-57 -127q31 10 93.5 10t116.5 -36t54 -109q0 -98 -98 -150 q-80 -43 -192 -43t-210 35z" />
<glyph unicode="&#xc8;" horiz-adv-x="2095" d="M25 16q0 16 14 17q70 0 148.5 31.5t78.5 66.5v465q0 49 -49 94t-85 45t-36 17.5t34 17.5t85 44t51 93v377q0 35 -78.5 66.5t-148.5 31.5q-14 0 -14 17.5t20 17.5h954q936 -2 964.5 -2t43.5 4q31 10 31 54q0 14 16 14t16.5 -21.5t-0.5 -231.5t-1.5 -231.5t-16.5 -21.5 t-16 14q0 113 -98 113h-1121v-197h694q55 0 68 4q31 10 31 52q0 14 16 14t16 -29v-395q0 -29 -16 -29t-16 15q-2 45 -33 53q-8 4 -760 4v-287l1118 2q100 0 101 113q0 14 16 14t16 -21t1.5 -235.5t1.5 -236t-17 -21.5q-16 0 -16 15q0 41 -31 53q-14 4 -70 4h-1884 q-29 0 -28 16zM819 1820q0 46 39 73.5t80 27.5q76 0 133 -55q18 -18 94 -121l168 -227h-147l-242 143q-72 43 -98.5 78t-26.5 81z" />
<glyph unicode="&#xc9;" horiz-adv-x="2095" d="M25 16q0 16 14 17q70 0 148.5 31.5t78.5 66.5v465q0 49 -49 94t-85 45t-36 17.5t34 17.5t85 44t51 93v377q0 35 -78.5 66.5t-148.5 31.5q-14 0 -14 17.5t20 17.5h954q936 -2 964.5 -2t43.5 4q31 10 31 54q0 14 16 14t16.5 -21.5t-0.5 -231.5t-1.5 -231.5t-16.5 -21.5 t-16 14q0 113 -98 113h-1121v-197h694q55 0 68 4q31 10 31 52q0 14 16 14t16 -29v-395q0 -29 -16 -29t-16 15q-2 45 -33 53q-8 4 -760 4v-287l1118 2q100 0 101 113q0 14 16 14t16 -21t1.5 -235.5t1.5 -236t-17 -21.5q-16 0 -16 15q0 41 -31 53q-14 4 -70 4h-1884 q-29 0 -28 16zM864 1539l168 227q76 102 94 121q57 55 133 55q41 0 80 -27.5t39 -73.5t-26.5 -81t-98.5 -78l-242 -143h-147z" />
<glyph unicode="&#xca;" horiz-adv-x="2095" d="M25 16q0 16 14 17q70 0 148.5 31.5t78.5 66.5v465q0 49 -49 94t-85 45t-36 17.5t34 17.5t85 44t51 93v377q0 35 -78.5 66.5t-148.5 31.5q-14 0 -14 17.5t20 17.5h954q936 -2 964.5 -2t43.5 4q31 10 31 54q0 14 16 14t16.5 -21.5t-0.5 -231.5t-1.5 -231.5t-16.5 -21.5 t-16 14q0 113 -98 113h-1121v-197h694q55 0 68 4q31 10 31 52q0 14 16 14t16 -29v-395q0 -29 -16 -29t-16 15q-2 45 -33 53q-8 4 -760 4v-287l1118 2q100 0 101 113q0 14 16 14t16 -21t1.5 -235.5t1.5 -236t-17 -21.5q-16 0 -16 15q0 41 -31 53q-14 4 -70 4h-1884 q-29 0 -28 16zM721 1509l250 371h256l248 -371h-162l-213 191l-215 -191h-164z" />
<glyph unicode="&#xcb;" horiz-adv-x="2095" d="M25 16q0 16 14 17q70 0 148.5 31.5t78.5 66.5v465q0 49 -49 94t-85 45t-36 17.5t34 17.5t85 44t51 93v377q0 35 -78.5 66.5t-148.5 31.5q-14 0 -14 17.5t20 17.5h954q936 -2 964.5 -2t43.5 4q31 10 31 54q0 14 16 14t16.5 -21.5t-0.5 -231.5t-1.5 -231.5t-16.5 -21.5 t-16 14q0 113 -98 113h-1121v-197h694q55 0 68 4q31 10 31 52q0 14 16 14t16 -29v-395q0 -29 -16 -29t-16 15q-2 45 -33 53q-8 4 -760 4v-287l1118 2q100 0 101 113q0 14 16 14t16 -21t1.5 -235.5t1.5 -236t-17 -21.5q-16 0 -16 15q0 41 -31 53q-14 4 -70 4h-1884 q-29 0 -28 16zM715 1679q0 66 47 113t113 47t112.5 -47t46.5 -113t-47 -114t-112 -48q-66 0 -113 48.5t-47 113.5zM1166 1679q0 66 46.5 113t112.5 47t113 -47t47 -113t-47 -114t-113 -48t-112.5 48.5t-46.5 113.5z" />
<glyph unicode="&#xcc;" horiz-adv-x="1081" d="M25 16q0 -16 28 -16h973q29 0 29 16t-15 17q-68 0 -146.5 31.5t-78.5 66.5v1153q0 35 79 66.5t146 31.5q14 0 15 17q0 16 -29 16h-973q-29 0 -28 -16q0 -16 14 -17q68 0 146.5 -31.5t78.5 -66.5v-1153q0 -35 -79 -66.5t-146 -31.5q-14 0 -14 -17zM287 1820q0 46 39 73.5 t80 27.5q76 0 133 -55q18 -18 94 -121l168 -227h-147l-242 143q-72 43 -98.5 78t-26.5 81z" />
<glyph unicode="&#xcd;" horiz-adv-x="1081" d="M25 16q0 -16 28 -16h973q29 0 29 16t-15 17q-68 0 -146.5 31.5t-78.5 66.5v1153q0 35 79 66.5t146 31.5q14 0 15 17q0 16 -29 16h-973q-29 0 -28 -16q0 -16 14 -17q68 0 146.5 -31.5t78.5 -66.5v-1153q0 -35 -79 -66.5t-146 -31.5q-14 0 -14 -17zM332 1518l168 227 q76 102 94 121q57 55 133 55q41 0 80 -27.5t39 -73.5t-26.5 -81t-98.5 -78l-242 -143h-147z" />
<glyph unicode="&#xce;" horiz-adv-x="1081" d="M25 16q0 -16 28 -16h973q29 0 29 16t-15 17q-68 0 -146.5 31.5t-78.5 66.5v1153q0 35 79 66.5t146 31.5q14 0 15 17q0 16 -29 16h-973q-29 0 -28 -16q0 -16 14 -17q68 0 146.5 -31.5t78.5 -66.5v-1153q0 -35 -79 -66.5t-146 -31.5q-14 0 -14 -17zM160 1509l250 371h256 l248 -371h-162l-213 191l-215 -191h-164z" />
<glyph unicode="&#xcf;" horiz-adv-x="1081" d="M25 16q0 -16 28 -16h973q29 0 29 16t-15 17q-68 0 -146.5 31.5t-78.5 66.5v1153q0 35 79 66.5t146 31.5q14 0 15 17q0 16 -29 16h-973q-29 0 -28 -16q0 -16 14 -17q68 0 146.5 -31.5t78.5 -66.5v-1153q0 -35 -79 -66.5t-146 -31.5q-14 0 -14 -17zM154 1679q0 66 47 113 t113 47t112.5 -47t46.5 -113t-47 -114t-112 -48q-66 0 -113 48.5t-47 113.5zM605 1679q0 66 46.5 113t112.5 47t113 -47t47 -113t-47 -114t-113 -48t-112.5 48.5t-46.5 113.5z" />
<glyph unicode="&#xd1;" horiz-adv-x="2521" d="M25 16q0 -16 28 -16h973q29 0 29 16t-15 17q-68 0 -146.5 31.5t-78.5 66.5v664l930 -795h721q29 0 28 16q0 16 -14 17q-68 0 -147.5 31.5t-79.5 66.5v1153q0 35 80 66.5t147 31.5q14 0 14 17q0 16 -28 16h-975q-27 0 -27 -16t15 -17q68 0 146.5 -31.5t78.5 -66.5v-659 l-932 790h-719q-29 0 -28 -16q0 -16 14 -17q68 0 146.5 -31.5t78.5 -66.5v-1153q0 -35 -79 -66.5t-146 -31.5q-14 0 -14 -17zM838 1530q59 299 258 299q68 0 185.5 -52t170.5 -52q59 0 86 94h113q-68 -297 -271 -297q-72 0 -190.5 54.5t-153.5 54.5t-61.5 -31t-30.5 -70 h-106z" />
<glyph unicode="&#xd2;" horiz-adv-x="2940" d="M25 709q0 -305 423.5 -521.5t1021.5 -216.5t1022 216t424 522q0 305 -424 521t-1022 216t-1021.5 -216t-423.5 -521zM649 709q0 164 240.5 280.5t580.5 116.5t582 -117t242 -280q0 -164 -242 -281t-582 -117t-580.5 117t-240.5 281zM1208 1841q0 46 39 73.5t80 27.5 q76 0 133 -55q18 -18 94 -121l168 -227h-147l-242 143q-72 43 -98.5 78t-26.5 81z" />
<glyph unicode="&#xd3;" horiz-adv-x="2940" d="M25 709q0 -305 423.5 -521.5t1021.5 -216.5t1022 216t424 522q0 305 -424 521t-1022 216t-1021.5 -216t-423.5 -521zM649 709q0 164 240.5 280.5t580.5 116.5t582 -117t242 -280q0 -164 -242 -281t-582 -117t-580.5 117t-240.5 281zM1253 1539l168 227q76 102 94 121 q57 55 133 55q41 0 80 -27.5t39 -73.5t-26.5 -81t-98.5 -78l-242 -143h-147z" />
<glyph unicode="&#xd4;" horiz-adv-x="2940" d="M25 709q0 -305 423.5 -521.5t1021.5 -216.5t1022 216t424 522q0 305 -424 521t-1022 216t-1021.5 -216t-423.5 -521zM649 709q0 164 240.5 280.5t580.5 116.5t582 -117t242 -280q0 -164 -242 -281t-582 -117t-580.5 117t-240.5 281zM1098 1530l250 371h256l248 -371h-162 l-213 191l-215 -191h-164z" />
<glyph unicode="&#xd5;" horiz-adv-x="2940" d="M25 709q0 -305 423.5 -521.5t1021.5 -216.5t1022 216t424 522q0 305 -424 521t-1022 216t-1021.5 -216t-423.5 -521zM649 709q0 164 240.5 280.5t580.5 116.5t582 -117t242 -280q0 -164 -242 -281t-582 -117t-580.5 117t-240.5 281zM1063 1550q59 299 258 299 q68 0 185.5 -52t170.5 -52q59 0 86 94h113q-68 -297 -271 -297q-72 0 -190.5 54.5t-153.5 54.5t-61.5 -31t-30.5 -70h-106z" />
<glyph unicode="&#xd6;" horiz-adv-x="2940" d="M25 709q0 -305 423.5 -521.5t1021.5 -216.5t1022 216t424 522q0 305 -424 521t-1022 216t-1021.5 -216t-423.5 -521zM649 709q0 164 240.5 280.5t580.5 116.5t582 -117t242 -280q0 -164 -242 -281t-582 -117t-580.5 117t-240.5 281zM1083 1700q0 66 47 113t113 47 t112.5 -47t46.5 -113t-47 -114t-112 -48q-66 0 -113 48.5t-47 113.5zM1534 1700q0 66 46.5 113t112.5 47t113 -47t47 -113t-47 -114t-113 -48t-112.5 48.5t-46.5 113.5z" />
<glyph unicode="&#xd7;" horiz-adv-x="1228" d="M94 174l350 350l-346 342l168 168l346 -342l351 346l167 -168l-350 -346l357 -356l-168 -168l-357 356l-350 -350z" />
<glyph unicode="&#xd8;" horiz-adv-x="2940" d="M25 709q0 305 423.5 521t1021.5 216q250 0 484 -43l35 39h180l-64 -70q367 -92 589 -270t222 -393q0 -305 -424 -521.5t-1022 -216.5q-297 0 -569 60l-63 -70h-176l96 107q-334 96 -534 267t-199 374zM649 709q0 -104 103.5 -193.5t277.5 -142.5l647 721q-102 12 -207 12 q-340 0 -580.5 -117t-240.5 -280zM1178 338q139 -27 292 -27q340 0 582 117t242 281q0 117 -127 212t-336 144z" />
<glyph unicode="&#xd9;" horiz-adv-x="3293" d="M25 1399q0 -16 14 -17q70 0 148.5 -31.5t78.5 -66.5v-573q0 -309 392.5 -524.5t986.5 -215.5t986 215t392 525v573q0 35 79 67t148 31q14 0 15 17q0 18 -29 18h-981q-29 0 -29 -17t15 -18q70 0 148.5 -31.5t78.5 -66.5v-573q0 -164 -240.5 -281t-582.5 -117t-584 117 t-242 281q0 514 2 573q0 35 79 67t149 31q14 0 14 17.5t-29 17.5h-981q-29 0 -28 -18zM1393 1820q0 46 39 73.5t80 27.5q76 0 133 -55q18 -18 94 -121l168 -227h-147l-242 143q-72 43 -98.5 78t-26.5 81z" />
<glyph unicode="&#xda;" horiz-adv-x="3293" d="M25 1399q0 -16 14 -17q70 0 148.5 -31.5t78.5 -66.5v-573q0 -309 392.5 -524.5t986.5 -215.5t986 215t392 525v573q0 35 79 67t148 31q14 0 15 17q0 18 -29 18h-981q-29 0 -29 -17t15 -18q70 0 148.5 -31.5t78.5 -66.5v-573q0 -164 -240.5 -281t-582.5 -117t-584 117 t-242 281q0 514 2 573q0 35 79 67t149 31q14 0 14 17.5t-29 17.5h-981q-29 0 -28 -18zM1397 1518l168 227q76 102 94 121q57 55 133 55q41 0 80 -27.5t39 -73.5t-26.5 -81t-98.5 -78l-242 -143h-147z" />
<glyph unicode="&#xdb;" horiz-adv-x="3293" d="M25 1399q0 -16 14 -17q70 0 148.5 -31.5t78.5 -66.5v-573q0 -309 392.5 -524.5t986.5 -215.5t986 215t392 525v573q0 35 79 67t148 31q14 0 15 17q0 18 -29 18h-981q-29 0 -29 -17t15 -18q70 0 148.5 -31.5t78.5 -66.5v-573q0 -164 -240.5 -281t-582.5 -117t-584 117 t-242 281q0 514 2 573q0 35 79 67t149 31q14 0 14 17.5t-29 17.5h-981q-29 0 -28 -18zM1274 1509l250 371h256l248 -371h-162l-213 191l-215 -191h-164z" />
<glyph unicode="&#xdc;" horiz-adv-x="3293" d="M25 1399q0 -16 14 -17q70 0 148.5 -31.5t78.5 -66.5v-573q0 -309 392.5 -524.5t986.5 -215.5t986 215t392 525v573q0 35 79 67t148 31q14 0 15 17q0 18 -29 18h-981q-29 0 -29 -17t15 -18q70 0 148.5 -31.5t78.5 -66.5v-573q0 -164 -240.5 -281t-582.5 -117t-584 117 t-242 281q0 514 2 573q0 35 79 67t149 31q14 0 14 17.5t-29 17.5h-981q-29 0 -28 -18zM1268 1679q0 66 47 113t113 47t112.5 -47t46.5 -113t-47 -114t-112 -48q-66 0 -113 48.5t-47 113.5zM1719 1679q0 66 46.5 113t112.5 47t113 -47t47 -113t-47 -114t-113 -48t-112.5 48.5 t-46.5 113.5z" />
<glyph unicode="&#xdd;" horiz-adv-x="3020" d="M25 1399q0 16 28 16h1053q33 0 33 -16t-18.5 -16.5t-52.5 -17.5t-34 -34q0 -6 4 -10l469 -459l469 459q4 4 4 10q0 16 -33.5 33.5t-52 17.5t-18.5 16.5t33 16.5h1054q27 0 27 -16t-14 -17q-61 0 -204 -27.5t-183 -66.5l-805 -751v-406q0 -35 79 -66.5t146 -31.5 q14 0 14 -17q0 -16 -28 -16h-975q-29 0 -29 16t15 17q68 0 147.5 31.5t79.5 66.5v406l-807 751q-41 39 -183.5 67t-203.5 27q-14 0 -14 17zM1315 1477l168 227q76 102 94 121q57 55 133 55q41 0 80 -27.5t39 -73.5t-26.5 -81t-98.5 -78l-242 -143h-147z" />
<glyph unicode="&#xdf;" horiz-adv-x="2115" d="M-205 -414q0 16 15 17q68 0 147.5 32.5t79.5 67.5q0 1331 -2 1331q0 170 275.5 291t666.5 121t667.5 -121t276.5 -291q0 -92 -26 -143.5t-89 -114.5q145 -76 211 -151.5t66 -204.5q0 -188 -251 -308t-620 -120h-192q-100 0 -100 -113q0 -14 -17 -14q-16 0 -16 21v233 q-2 211 -2 232.5t16 21.5t17 -15q0 -43 24 -50t76 -5l69 4q268 16 269 142q0 141 -269 141h-71q-63 0 -68 -2q-33 -8 -35 -53q0 -14 -16 -15q-16 0 -16 29v397q0 29 16 29t16 -14q0 -43 31 -54q14 -4 68 -4q231 0 231 131q0 41 -96 70t-232 29q-135 0 -230 -29t-95 -70 v-1331q0 -35 80 -67.5t147 -32.5q14 0 14 -17q0 -16 -28 -16h-979q-29 0 -29 16z" />
<glyph unicode="&#xe0;" horiz-adv-x="3543" d="M25 16q0 16 12 17q51 0 182 29.5t170 66.5l1383 1317l1382 -1317q39 -37 169 -67t181 -29q12 0 12 -17q0 -16 -24 -16h-957q-29 0 -28 18q0 14 16.5 14.5t47 19t30.5 34.5q0 6 -4 10l-160 142h-1339l-154 -142q-4 -4 -4 -10q0 -16 32 -34.5t47 -18.5t15 -16.5t-28 -16.5 h-955q-27 0 -26 16zM1337 496h848l-413 401zM1516 1820q0 46 39 73.5t80 27.5q76 0 133 -55q18 -18 94 -121l168 -227h-147l-242 143q-72 43 -98.5 78t-26.5 81z" />
<glyph unicode="&#xe1;" horiz-adv-x="3543" d="M25 16q0 16 12 17q51 0 182 29.5t170 66.5l1383 1317l1382 -1317q39 -37 169 -67t181 -29q12 0 12 -17q0 -16 -24 -16h-957q-29 0 -28 18q0 14 16.5 14.5t47 19t30.5 34.5q0 6 -4 10l-160 142h-1339l-154 -142q-4 -4 -4 -10q0 -16 32 -34.5t47 -18.5t15 -16.5t-28 -16.5 h-955q-27 0 -26 16zM1337 496h848l-413 401zM1520 1518l168 227q76 102 94 121q57 55 133 55q41 0 80 -27.5t39 -73.5t-26.5 -81t-98.5 -78l-242 -143h-147z" />
<glyph unicode="&#xe2;" horiz-adv-x="3543" d="M25 16q0 16 12 17q51 0 182 29.5t170 66.5l1383 1317l1382 -1317q39 -37 169 -67t181 -29q12 0 12 -17q0 -16 -24 -16h-957q-29 0 -28 18q0 14 16.5 14.5t47 19t30.5 34.5q0 6 -4 10l-160 142h-1339l-154 -142q-4 -4 -4 -10q0 -16 32 -34.5t47 -18.5t15 -16.5t-28 -16.5 h-955q-27 0 -26 16zM1337 496h848l-413 401zM1397 1509l250 371h256l248 -371h-162l-213 191l-215 -191h-164z" />
<glyph unicode="&#xe3;" horiz-adv-x="3543" d="M25 16q0 16 12 17q51 0 182 29.5t170 66.5l1383 1317l1382 -1317q39 -37 169 -67t181 -29q12 0 12 -17q0 -16 -24 -16h-957q-29 0 -28 18q0 14 16.5 14.5t47 19t30.5 34.5q0 6 -4 10l-160 142h-1339l-154 -142q-4 -4 -4 -10q0 -16 32 -34.5t47 -18.5t15 -16.5t-28 -16.5 h-955q-27 0 -26 16zM1337 496h848l-413 401zM1350 1530q59 299 258 299q68 0 185.5 -52t170.5 -52q59 0 86 94h113q-68 -297 -271 -297q-72 0 -190.5 54.5t-153.5 54.5t-61.5 -31t-30.5 -70h-106z" />
<glyph unicode="&#xe4;" horiz-adv-x="3543" d="M25 16q0 16 12 17q51 0 182 29.5t170 66.5l1383 1317l1382 -1317q39 -37 169 -67t181 -29q12 0 12 -17q0 -16 -24 -16h-957q-29 0 -28 18q0 14 16.5 14.5t47 19t30.5 34.5q0 6 -4 10l-160 142h-1339l-154 -142q-4 -4 -4 -10q0 -16 32 -34.5t47 -18.5t15 -16.5t-28 -16.5 h-955q-27 0 -26 16zM1337 496h848l-413 401zM1391 1679q0 66 47 113t113 47t112.5 -47t46.5 -113t-47 -114t-112 -48q-66 0 -113 48.5t-47 113.5zM1842 1679q0 66 46.5 113t112.5 47t113 -47t47 -113t-47 -114t-113 -48t-112.5 48.5t-46.5 113.5z" />
<glyph unicode="&#xe5;" horiz-adv-x="3543" d="M25 16q0 16 12 17q51 0 182 29.5t170 66.5l1383 1317l1382 -1317q39 -37 169 -67t181 -29q12 0 12 -17q0 -16 -24 -16h-957q-29 0 -28 18q0 14 16.5 14.5t47 19t30.5 34.5q0 6 -4 10l-160 142h-1339l-154 -142q-4 -4 -4 -10q0 -16 32 -34.5t47 -18.5t15 -16.5t-28 -16.5 h-955q-27 0 -26 16zM1337 496h848l-413 401zM1538 1753q0 94 67.5 161.5t161.5 67.5t161.5 -67.5t67.5 -161.5t-67.5 -162t-161.5 -68t-161.5 67.5t-67.5 162.5zM1661 1753q0 -43 31.5 -75t74.5 -32t75 32t32 75t-32 74.5t-75 31.5t-74.5 -31.5t-31.5 -74.5z" />
<glyph unicode="&#xe6;" horiz-adv-x="3590" d="M25 16q0 16 12 17q51 0 182 29.5t170 66.5l1288 1225q-76 29 -143 28q-14 0 -14 17.5t28 17.5l1886 -2q53 0 68 4q31 10 31 54q0 14 16 14t16.5 -21.5t-0.5 -231.5t-1 -231.5t-17 -21.5q-16 0 -16 14q0 113 -99 113h-1120v-197h694q55 0 68 4q31 10 31 52q0 14 16 14 t17 -29v-395q0 -29 -17 -29q-16 0 -16 15q-2 45 -33 53q-8 4 -760 4v-287l1118 2q100 0 101 113q0 14 16 14t17 -21q2 -105 2 -464q0 -29 -17 -29q-16 0 -16 15q0 41 -31 53q-14 4 -70 4h-1884q-29 0 -28 16q0 16 14 17q70 0 148.5 31.5t78.5 66.5v107h-663l-154 -142 q-4 -4 -4 -10q0 -16 32 -34.5t47 -18.5t15 -16.5t-28 -16.5h-955q-27 0 -26 16zM1337 496h424v391z" />
<glyph unicode="&#xe7;" horiz-adv-x="2402" d="M25 709q0 305 465.5 521t1125.5 216q330 0 614 -88q41 -12 62 -12q49 0 49 65q0 14 18 14t19 -28v-527q0 -27 -19 -26q-18 0 -18 14q0 59 -26 89t-83 52q-262 106 -626.5 106.5t-629.5 -116t-265 -280.5t265 -281t629.5 -117t626.5 107q57 23 83 52.5t26 88.5q0 14 18 14 t19 -26v-527q0 -29 -19 -28q-18 0 -18 14q0 66 -49 66q-20 0 -62 -13q-285 -88 -614 -88q-659 0 -1125 216t-466 522zM1239 -420l35 90q86 -27 123 -26q109 0 108 75q0 72 -75 72q-37 0 -54 -12l-34 18l96 203h94l-57 -127q31 10 93.5 10t116.5 -36t54 -109q0 -98 -98 -150 q-80 -43 -192 -43t-210 35z" />
<glyph unicode="&#xe8;" horiz-adv-x="2095" d="M25 16q0 16 14 17q70 0 148.5 31.5t78.5 66.5v465q0 49 -49 94t-85 45t-36 17.5t34 17.5t85 44t51 93v377q0 35 -78.5 66.5t-148.5 31.5q-14 0 -14 17.5t20 17.5h954q936 -2 964.5 -2t43.5 4q31 10 31 54q0 14 16 14t16.5 -21.5t-0.5 -231.5t-1.5 -231.5t-16.5 -21.5 t-16 14q0 113 -98 113h-1121v-197h694q55 0 68 4q31 10 31 52q0 14 16 14t16 -29v-395q0 -29 -16 -29t-16 15q-2 45 -33 53q-8 4 -760 4v-287l1118 2q100 0 101 113q0 14 16 14t16 -21t1.5 -235.5t1.5 -236t-17 -21.5q-16 0 -16 15q0 41 -31 53q-14 4 -70 4h-1884 q-29 0 -28 16zM819 1820q0 46 39 73.5t80 27.5q76 0 133 -55q18 -18 94 -121l168 -227h-147l-242 143q-72 43 -98.5 78t-26.5 81z" />
<glyph unicode="&#xe9;" horiz-adv-x="2095" d="M25 16q0 16 14 17q70 0 148.5 31.5t78.5 66.5v465q0 49 -49 94t-85 45t-36 17.5t34 17.5t85 44t51 93v377q0 35 -78.5 66.5t-148.5 31.5q-14 0 -14 17.5t20 17.5h954q936 -2 964.5 -2t43.5 4q31 10 31 54q0 14 16 14t16.5 -21.5t-0.5 -231.5t-1.5 -231.5t-16.5 -21.5 t-16 14q0 113 -98 113h-1121v-197h694q55 0 68 4q31 10 31 52q0 14 16 14t16 -29v-395q0 -29 -16 -29t-16 15q-2 45 -33 53q-8 4 -760 4v-287l1118 2q100 0 101 113q0 14 16 14t16 -21t1.5 -235.5t1.5 -236t-17 -21.5q-16 0 -16 15q0 41 -31 53q-14 4 -70 4h-1884 q-29 0 -28 16zM864 1498l168 227q76 102 94 121q57 55 133 55q41 0 80 -27.5t39 -73.5t-26.5 -81t-98.5 -78l-242 -143h-147z" />
<glyph unicode="&#xea;" horiz-adv-x="2095" d="M25 16q0 16 14 17q70 0 148.5 31.5t78.5 66.5v465q0 49 -49 94t-85 45t-36 17.5t34 17.5t85 44t51 93v377q0 35 -78.5 66.5t-148.5 31.5q-14 0 -14 17.5t20 17.5h954q936 -2 964.5 -2t43.5 4q31 10 31 54q0 14 16 14t16.5 -21.5t-0.5 -231.5t-1.5 -231.5t-16.5 -21.5 t-16 14q0 113 -98 113h-1121v-197h694q55 0 68 4q31 10 31 52q0 14 16 14t16 -29v-395q0 -29 -16 -29t-16 15q-2 45 -33 53q-8 4 -760 4v-287l1118 2q100 0 101 113q0 14 16 14t16 -21t1.5 -235.5t1.5 -236t-17 -21.5q-16 0 -16 15q0 41 -31 53q-14 4 -70 4h-1884 q-29 0 -28 16zM721 1509l250 371h256l248 -371h-162l-213 191l-215 -191h-164z" />
<glyph unicode="&#xeb;" horiz-adv-x="2095" d="M25 16q0 16 14 17q70 0 148.5 31.5t78.5 66.5v465q0 49 -49 94t-85 45t-36 17.5t34 17.5t85 44t51 93v377q0 35 -78.5 66.5t-148.5 31.5q-14 0 -14 17.5t20 17.5h954q936 -2 964.5 -2t43.5 4q31 10 31 54q0 14 16 14t16.5 -21.5t-0.5 -231.5t-1.5 -231.5t-16.5 -21.5 t-16 14q0 113 -98 113h-1121v-197h694q55 0 68 4q31 10 31 52q0 14 16 14t16 -29v-395q0 -29 -16 -29t-16 15q-2 45 -33 53q-8 4 -760 4v-287l1118 2q100 0 101 113q0 14 16 14t16 -21t1.5 -235.5t1.5 -236t-17 -21.5q-16 0 -16 15q0 41 -31 53q-14 4 -70 4h-1884 q-29 0 -28 16zM715 1679q0 66 47 113t113 47t112.5 -47t46.5 -113t-47 -114t-112 -48q-66 0 -113 48.5t-47 113.5zM1166 1679q0 66 46.5 113t112.5 47t113 -47t47 -113t-47 -114t-113 -48t-112.5 48.5t-46.5 113.5z" />
<glyph unicode="&#xec;" horiz-adv-x="1081" d="M25 16q0 -16 28 -16h973q29 0 29 16t-15 17q-68 0 -146.5 31.5t-78.5 66.5v1153q0 35 79 66.5t146 31.5q14 0 15 17q0 16 -29 16h-973q-29 0 -28 -16q0 -16 14 -17q68 0 146.5 -31.5t78.5 -66.5v-1153q0 -35 -79 -66.5t-146 -31.5q-14 0 -14 -17zM287 1820q0 46 39 73.5 t80 27.5q76 0 133 -55q18 -18 94 -121l168 -227h-147l-242 143q-72 43 -98.5 78t-26.5 81z" />
<glyph unicode="&#xed;" horiz-adv-x="1081" d="M25 16q0 -16 28 -16h973q29 0 29 16t-15 17q-68 0 -146.5 31.5t-78.5 66.5v1153q0 35 79 66.5t146 31.5q14 0 15 17q0 16 -29 16h-973q-29 0 -28 -16q0 -16 14 -17q68 0 146.5 -31.5t78.5 -66.5v-1153q0 -35 -79 -66.5t-146 -31.5q-14 0 -14 -17zM332 1518l168 227 q76 102 94 121q57 55 133 55q41 0 80 -27.5t39 -73.5t-26.5 -81t-98.5 -78l-242 -143h-147z" />
<glyph unicode="&#xee;" horiz-adv-x="1081" d="M25 16q0 -16 28 -16h973q29 0 29 16t-15 17q-68 0 -146.5 31.5t-78.5 66.5v1153q0 35 79 66.5t146 31.5q14 0 15 17q0 16 -29 16h-973q-29 0 -28 -16q0 -16 14 -17q68 0 146.5 -31.5t78.5 -66.5v-1153q0 -35 -79 -66.5t-146 -31.5q-14 0 -14 -17zM160 1509l250 371h256 l248 -371h-162l-213 191l-215 -191h-164z" />
<glyph unicode="&#xef;" horiz-adv-x="1081" d="M25 16q0 -16 28 -16h973q29 0 29 16t-15 17q-68 0 -146.5 31.5t-78.5 66.5v1153q0 35 79 66.5t146 31.5q14 0 15 17q0 16 -29 16h-973q-29 0 -28 -16q0 -16 14 -17q68 0 146.5 -31.5t78.5 -66.5v-1153q0 -35 -79 -66.5t-146 -31.5q-14 0 -14 -17zM154 1679q0 66 47 113 t113 47t112.5 -47t46.5 -113t-47 -114t-112 -48q-66 0 -113 48.5t-47 113.5zM605 1679q0 66 46.5 113t112.5 47t113 -47t47 -113t-47 -114t-113 -48t-112.5 48.5t-46.5 113.5z" />
<glyph unicode="&#xf1;" horiz-adv-x="2521" d="M25 16q0 -16 28 -16h973q29 0 29 16t-15 17q-68 0 -146.5 31.5t-78.5 66.5v664l930 -795h721q29 0 28 16q0 16 -14 17q-68 0 -147.5 31.5t-79.5 66.5v1153q0 35 80 66.5t147 31.5q14 0 14 17q0 16 -28 16h-975q-27 0 -27 -16t15 -17q68 0 146.5 -31.5t78.5 -66.5v-659 l-932 790h-719q-29 0 -28 -16q0 -16 14 -17q68 0 146.5 -31.5t78.5 -66.5v-1153q0 -35 -79 -66.5t-146 -31.5q-14 0 -14 -17zM838 1530q59 299 258 299q68 0 185.5 -52t170.5 -52q59 0 86 94h113q-68 -297 -271 -297q-72 0 -190.5 54.5t-153.5 54.5t-61.5 -31t-30.5 -70 h-106z" />
<glyph unicode="&#xf2;" horiz-adv-x="2940" d="M25 709q0 -305 423.5 -521.5t1021.5 -216.5t1022 216t424 522q0 305 -424 521t-1022 216t-1021.5 -216t-423.5 -521zM649 709q0 164 240.5 280.5t580.5 116.5t582 -117t242 -280q0 -164 -242 -281t-582 -117t-580.5 117t-240.5 281zM1208 1841q0 46 39 73.5t80 27.5 q76 0 133 -55q18 -18 94 -121l168 -227h-147l-242 143q-72 43 -98.5 78t-26.5 81z" />
<glyph unicode="&#xf3;" horiz-adv-x="2940" d="M25 709q0 -305 423.5 -521.5t1021.5 -216.5t1022 216t424 522q0 305 -424 521t-1022 216t-1021.5 -216t-423.5 -521zM649 709q0 164 240.5 280.5t580.5 116.5t582 -117t242 -280q0 -164 -242 -281t-582 -117t-580.5 117t-240.5 281zM1253 1539l168 227q76 102 94 121 q57 55 133 55q41 0 80 -27.5t39 -73.5t-26.5 -81t-98.5 -78l-242 -143h-147z" />
<glyph unicode="&#xf4;" horiz-adv-x="2940" d="M25 709q0 -305 423.5 -521.5t1021.5 -216.5t1022 216t424 522q0 305 -424 521t-1022 216t-1021.5 -216t-423.5 -521zM649 709q0 164 240.5 280.5t580.5 116.5t582 -117t242 -280q0 -164 -242 -281t-582 -117t-580.5 117t-240.5 281zM1098 1530l250 371h256l248 -371h-162 l-213 191l-215 -191h-164z" />
<glyph unicode="&#xf5;" horiz-adv-x="2940" d="M25 709q0 -305 423.5 -521.5t1021.5 -216.5t1022 216t424 522q0 305 -424 521t-1022 216t-1021.5 -216t-423.5 -521zM649 709q0 164 240.5 280.5t580.5 116.5t582 -117t242 -280q0 -164 -242 -281t-582 -117t-580.5 117t-240.5 281zM1063 1550q59 299 258 299 q68 0 185.5 -52t170.5 -52q59 0 86 94h113q-68 -297 -271 -297q-72 0 -190.5 54.5t-153.5 54.5t-61.5 -31t-30.5 -70h-106z" />
<glyph unicode="&#xf6;" horiz-adv-x="2940" d="M25 709q0 -305 423.5 -521.5t1021.5 -216.5t1022 216t424 522q0 305 -424 521t-1022 216t-1021.5 -216t-423.5 -521zM649 709q0 164 240.5 280.5t580.5 116.5t582 -117t242 -280q0 -164 -242 -281t-582 -117t-580.5 117t-240.5 281zM1083 1700q0 66 47 113t113 47 t112.5 -47t46.5 -113t-47 -114t-112 -48q-66 0 -113 48.5t-47 113.5zM1534 1700q0 66 46.5 113t112.5 47t113 -47t47 -113t-47 -114t-113 -48t-112.5 48.5t-46.5 113.5z" />
<glyph unicode="&#xf7;" horiz-adv-x="1228" d="M98 406v237h1032v-237h-1032zM453 162q0 66 47.5 113t113.5 47t113 -47.5t47 -112.5q0 -66 -47 -114t-113 -48t-113.5 48t-47.5 114zM453 874q0 66 47.5 113t113.5 47t113 -47t47 -113t-47 -113.5t-113 -47.5t-113.5 48t-47.5 113z" />
<glyph unicode="&#xf8;" horiz-adv-x="2940" d="M25 709q0 305 423.5 521t1021.5 216q250 0 484 -43l35 39h180l-64 -70q367 -92 589 -270t222 -393q0 -305 -424 -521.5t-1022 -216.5q-297 0 -569 60l-63 -70h-176l96 107q-334 96 -534 267t-199 374zM649 709q0 -104 103.5 -193.5t277.5 -142.5l647 721q-102 12 -207 12 q-340 0 -580.5 -117t-240.5 -280zM1178 338q139 -27 292 -27q340 0 582 117t242 281q0 117 -127 212t-336 144z" />
<glyph unicode="&#xf9;" horiz-adv-x="3293" d="M25 1399q0 -16 14 -17q70 0 148.5 -31.5t78.5 -66.5v-573q0 -309 392.5 -524.5t986.5 -215.5t986 215t392 525v573q0 35 79 67t148 31q14 0 15 17q0 18 -29 18h-981q-29 0 -29 -17t15 -18q70 0 148.5 -31.5t78.5 -66.5v-573q0 -164 -240.5 -281t-582.5 -117t-584 117 t-242 281q0 514 2 573q0 35 79 67t149 31q14 0 14 17.5t-29 17.5h-981q-29 0 -28 -18zM1393 1820q0 46 39 73.5t80 27.5q76 0 133 -55q18 -18 94 -121l168 -227h-147l-242 143q-72 43 -98.5 78t-26.5 81z" />
<glyph unicode="&#xfa;" horiz-adv-x="3293" d="M25 1399q0 -16 14 -17q70 0 148.5 -31.5t78.5 -66.5v-573q0 -309 392.5 -524.5t986.5 -215.5t986 215t392 525v573q0 35 79 67t148 31q14 0 15 17q0 18 -29 18h-981q-29 0 -29 -17t15 -18q70 0 148.5 -31.5t78.5 -66.5v-573q0 -164 -240.5 -281t-582.5 -117t-584 117 t-242 281q0 514 2 573q0 35 79 67t149 31q14 0 14 17.5t-29 17.5h-981q-29 0 -28 -18zM1397 1518l168 227q76 102 94 121q57 55 133 55q41 0 80 -27.5t39 -73.5t-26.5 -81t-98.5 -78l-242 -143h-147z" />
<glyph unicode="&#xfb;" horiz-adv-x="3293" d="M25 1399q0 -16 14 -17q70 0 148.5 -31.5t78.5 -66.5v-573q0 -309 392.5 -524.5t986.5 -215.5t986 215t392 525v573q0 35 79 67t148 31q14 0 15 17q0 18 -29 18h-981q-29 0 -29 -17t15 -18q70 0 148.5 -31.5t78.5 -66.5v-573q0 -164 -240.5 -281t-582.5 -117t-584 117 t-242 281q0 514 2 573q0 35 79 67t149 31q14 0 14 17.5t-29 17.5h-981q-29 0 -28 -18zM1274 1509l250 371h256l248 -371h-162l-213 191l-215 -191h-164z" />
<glyph unicode="&#xfc;" horiz-adv-x="3293" d="M25 1399q0 -16 14 -17q70 0 148.5 -31.5t78.5 -66.5v-573q0 -309 392.5 -524.5t986.5 -215.5t986 215t392 525v573q0 35 79 67t148 31q14 0 15 17q0 18 -29 18h-981q-29 0 -29 -17t15 -18q70 0 148.5 -31.5t78.5 -66.5v-573q0 -164 -240.5 -281t-582.5 -117t-584 117 t-242 281q0 514 2 573q0 35 79 67t149 31q14 0 14 17.5t-29 17.5h-981q-29 0 -28 -18zM1268 1679q0 66 47 113t113 47t112.5 -47t46.5 -113t-47 -114t-112 -48q-66 0 -113 48.5t-47 113.5zM1719 1679q0 66 46.5 113t112.5 47t113 -47t47 -113t-47 -114t-113 -48t-112.5 48.5 t-46.5 113.5z" />
<glyph unicode="&#xfd;" horiz-adv-x="3020" d="M25 1399q0 16 28 16h1053q33 0 33 -16t-18.5 -16.5t-52.5 -17.5t-34 -34q0 -6 4 -10l469 -459l469 459q4 4 4 10q0 16 -33.5 33.5t-52 17.5t-18.5 16.5t33 16.5h1054q27 0 27 -16t-14 -17q-61 0 -204 -27.5t-183 -66.5l-805 -751v-406q0 -35 79 -66.5t146 -31.5 q14 0 14 -17q0 -16 -28 -16h-975q-29 0 -29 16t15 17q68 0 147.5 31.5t79.5 66.5v406l-807 751q-41 39 -183.5 67t-203.5 27q-14 0 -14 17zM1315 1477l168 227q76 102 94 121q57 55 133 55q41 0 80 -27.5t39 -73.5t-26.5 -81t-98.5 -78l-242 -143h-147z" />
<glyph unicode="&#xff;" horiz-adv-x="3020" d="M25 1399q0 16 28 16h1053q33 0 33 -16t-18.5 -16.5t-52.5 -17.5t-34 -34q0 -6 4 -10l469 -459l469 459q4 4 4 10q0 16 -33.5 33.5t-52 17.5t-18.5 16.5t33 16.5h1054q27 0 27 -16t-14 -17q-61 0 -204 -27.5t-183 -66.5l-805 -751v-406q0 -35 79 -66.5t146 -31.5 q14 0 14 -17q0 -16 -28 -16h-975q-29 0 -29 16t15 17q68 0 147.5 31.5t79.5 66.5v406l-807 751q-41 39 -183.5 67t-203.5 27q-14 0 -14 17zM1124 1679q0 66 47 113t113 47t112.5 -47t46.5 -113t-47 -114t-112 -48q-66 0 -113 48.5t-47 113.5zM1575 1679q0 66 46.5 113 t112.5 47t113 -47t47 -113t-47 -114t-113 -48t-112.5 48.5t-46.5 113.5z" />
<glyph unicode="&#x152;" horiz-adv-x="3303" d="M25 709q0 303 421.5 509.5t1023.5 206.5q5 0 9 -8l1669 -2q53 0 67 4q31 10 31 54q0 14 16 14t16.5 -21.5t-0.5 -231.5t-1 -231.5t-17 -21.5q-16 0 -16 14q0 113 -98 113h-1121v-197h695q55 0 67 4q31 10 31 52q0 14 16 14t17 -29v-395q0 -29 -17 -29q-16 0 -16 15 q-2 45 -33 53q-8 4 -760 4v-287l1119 2q100 0 100 113q0 14 16 14t16.5 -21t1.5 -235.5t1 -236t-17 -21.5q-16 0 -16 15q0 41 -31 53q-14 4 -69 4h-1667q-4 -8 -9 -8q-602 0 -1023.5 207t-421.5 510zM649 709q0 -164 239.5 -281t581.5 -117h5v285q0 49 -49.5 94t-85 45 t-35.5 17.5t33.5 17.5t85 44t51.5 93v199h-5q-342 0 -581.5 -117t-239.5 -280z" />
<glyph unicode="&#x153;" horiz-adv-x="3303" d="M25 709q0 303 421.5 509.5t1023.5 206.5q5 0 9 -8l1669 -2q53 0 67 4q31 10 31 54q0 14 16 14t16.5 -21.5t-0.5 -231.5t-1 -231.5t-17 -21.5q-16 0 -16 14q0 113 -98 113h-1121v-197h695q55 0 67 4q31 10 31 52q0 14 16 14t17 -29v-395q0 -29 -17 -29q-16 0 -16 15 q-2 45 -33 53q-8 4 -760 4v-287l1119 2q100 0 100 113q0 14 16 14t16.5 -21t1.5 -235.5t1 -236t-17 -21.5q-16 0 -16 15q0 41 -31 53q-14 4 -69 4h-1667q-4 -8 -9 -8q-602 0 -1023.5 207t-421.5 510zM649 709q0 -164 239.5 -281t581.5 -117h5v285q0 49 -49.5 94t-85 45 t-35.5 17.5t33.5 17.5t85 44t51.5 93v199h-5q-342 0 -581.5 -117t-239.5 -280z" />
<glyph unicode="&#x178;" horiz-adv-x="3020" d="M25 1399q0 16 28 16h1053q33 0 33 -16t-18.5 -16.5t-52.5 -17.5t-34 -34q0 -6 4 -10l469 -459l469 459q4 4 4 10q0 16 -33.5 33.5t-52 17.5t-18.5 16.5t33 16.5h1054q27 0 27 -16t-14 -17q-61 0 -204 -27.5t-183 -66.5l-805 -751v-406q0 -35 79 -66.5t146 -31.5 q14 0 14 -17q0 -16 -28 -16h-975q-29 0 -29 16t15 17q68 0 147.5 31.5t79.5 66.5v406l-807 751q-41 39 -183.5 67t-203.5 27q-14 0 -14 17zM1124 1679q0 66 47 113t113 47t112.5 -47t46.5 -113t-47 -114t-112 -48q-66 0 -113 48.5t-47 113.5zM1575 1679q0 66 46.5 113 t112.5 47t113 -47t47 -113t-47 -114t-113 -48t-112.5 48.5t-46.5 113.5z" />
<glyph unicode="&#x2c6;" d="M-37 1079l250 371h256l248 -371h-162l-213 191l-215 -191h-164z" />
<glyph unicode="&#x2dc;" d="M-63 1161q59 299 258 299q68 0 185.5 -52t170.5 -52q59 0 86 94h113q-68 -297 -271 -297q-72 0 -190.5 54.5t-153.5 54.5t-61.5 -31t-30.5 -70h-106z" />
<glyph unicode="&#x2000;" horiz-adv-x="991" />
<glyph unicode="&#x2001;" horiz-adv-x="1982" />
<glyph unicode="&#x2002;" horiz-adv-x="991" />
<glyph unicode="&#x2003;" horiz-adv-x="1982" />
<glyph unicode="&#x2004;" horiz-adv-x="660" />
<glyph unicode="&#x2005;" horiz-adv-x="495" />
<glyph unicode="&#x2006;" horiz-adv-x="330" />
<glyph unicode="&#x2007;" horiz-adv-x="330" />
<glyph unicode="&#x2008;" horiz-adv-x="247" />
<glyph unicode="&#x2009;" horiz-adv-x="396" />
<glyph unicode="&#x200a;" horiz-adv-x="110" />
<glyph unicode="&#x2010;" d="M51.5 374.5q-0.5 20.5 1.5 354.5h455q55 0 67 4q31 10 31 51q0 14 17 15q18 0 18 -20.5t-2 -354.5h-455q-55 0 -67 -4q-31 -10 -31 -51q0 -14 -16 -15q-18 0 -18.5 20.5z" />
<glyph unicode="&#x2011;" d="M51.5 374.5q-0.5 20.5 1.5 354.5h455q55 0 67 4q31 10 31 51q0 14 17 15q18 0 18 -20.5t-2 -354.5h-455q-55 0 -67 -4q-31 -10 -31 -51q0 -14 -16 -15q-18 0 -18.5 20.5z" />
<glyph unicode="&#x2012;" d="M51.5 374.5q-0.5 20.5 1.5 354.5h455q55 0 67 4q31 10 31 51q0 14 17 15q18 0 18 -20.5t-2 -354.5h-455q-55 0 -67 -4q-31 -10 -31 -51q0 -14 -16 -15q-18 0 -18.5 20.5z" />
<glyph unicode="&#x2013;" horiz-adv-x="1024" d="M51.5 374.5q-0.5 20.5 1.5 354.5h797q55 0 68 4q31 10 30 51q0 14 17 15q18 0 18 -20.5t-2 -354.5h-797q-55 0 -67 -4q-31 -10 -31 -51q0 -14 -16 -15q-18 0 -18.5 20.5z" />
<glyph unicode="&#x2014;" horiz-adv-x="2048" d="M51.5 374.5q-0.5 20.5 1.5 354.5h1821q55 0 68 4q31 10 30 51q0 14 17 15q18 0 18 -20.5t-2 -354.5h-1821q-55 0 -67 -4q-31 -10 -31 -51q0 -14 -16 -15q-18 0 -18.5 20.5z" />
<glyph unicode="&#x2018;" horiz-adv-x="512" d="M88 1279q0 -81 31 -126q78 -121 266 -254q8 -6 15 -6t10 8q2 8 -4 14q-106 117 -134 183q76 0 131.5 55t55.5 131t-54.5 130t-131.5 54t-131 -54t-54 -135z" />
<glyph unicode="&#x2019;" horiz-adv-x="512" d="M86 1284q0 76 54.5 130t131 54t131 -54t54.5 -135t-31 -126q-78 -121 -266 -254q-8 -6 -15.5 -6t-9.5 8t4 14q106 117 133 183q-76 0 -131 55t-55 131z" />
<glyph unicode="&#x201a;" d="M156 158q0 76 54 130t131 54t131 -54.5t54 -135t-30 -125.5q-78 -121 -267 -254q-8 -6 -15 -6t-9 8t4 14q106 117 133 182q-76 0 -131 55.5t-55 131.5z" />
<glyph unicode="&#x201c;" horiz-adv-x="1024" d="M88 1279q0 -81 31 -126q78 -121 266 -254q8 -6 15 -6t10 8q2 8 -4 14q-106 117 -134 183q76 0 131.5 55t55.5 131t-54.5 130t-131.5 54t-131 -54t-54 -135zM580 1279q0 -81 30 -126q78 -121 267 -254q8 -6 15 -6t9 8t-4 14q-106 117 -133 183q76 0 131 55t55 131t-54 130 t-131 54t-131 -54t-54 -135z" />
<glyph unicode="&#x201d;" horiz-adv-x="1024" d="M86 1284q0 76 54.5 130t131 54t131 -54t54.5 -135t-31 -126q-78 -121 -266 -254q-8 -6 -15.5 -6t-9.5 8t4 14q106 117 133 183q-76 0 -131 55t-55 131zM578 1284q0 76 54 130t131 54t131 -54t54 -135t-30 -126q-78 -121 -267 -254q-8 -6 -15 -6t-9 8t4 14 q106 117 133 183q-76 0 -131 55t-55 131z" />
<glyph unicode="&#x201e;" horiz-adv-x="1024" d="M86 158q0 76 54.5 130t131 54t131 -54.5t54.5 -135t-31 -125.5q-78 -121 -266 -254q-8 -6 -15.5 -6t-9.5 8t4 14q106 117 133 182q-76 0 -131 55.5t-55 131.5zM578 158q0 76 54 130t131 54t131 -54.5t54 -135t-30 -125.5q-78 -121 -267 -254q-8 -6 -15 -6t-9 8t4 14 q106 117 133 182q-76 0 -131 55.5t-55 131.5z" />
<glyph unicode="&#x2022;" horiz-adv-x="1024" d="M166 709q0 143 100.5 243.5t243.5 100.5t244.5 -100.5t101.5 -243.5t-101.5 -245t-244.5 -102t-243.5 101.5t-100.5 245.5z" />
<glyph unicode="&#x2026;" horiz-adv-x="2048" d="M156 158q0 76 54 130t131 54t131 -54.5t54 -131t-54 -131t-130 -54.5t-131 55.5t-55 131.5zM838 158q0 76 54 130t131 54t131 -54.5t54 -131t-54 -131t-130 -54.5t-131 55.5t-55 131.5zM1520 158q0 76 54 130t131 54t131 -54.5t54 -131t-54 -131t-130 -54.5t-131 55.5 t-55 131.5z" />
<glyph unicode="&#x202f;" horiz-adv-x="396" />
<glyph unicode="&#x2039;" d="M92 492l240 331h246l-238 -331l248 -328h-252z" />
<glyph unicode="&#x203a;" d="M94 164l248 328l-238 331h246l240 -331l-244 -328h-252z" />
<glyph unicode="&#x205f;" horiz-adv-x="495" />
<glyph unicode="&#x2122;" horiz-adv-x="1771" d="M10 1243q0 -14 7 -14t8 8q0 55 38 55h197v-489q0 -18 -31.5 -33.5t-58.5 -15.5q-6 0 -6 -9q0 -8 12 -8h389q10 0 10 8t-6 9q-27 0 -58.5 15t-31.5 34v489h197q41 0 41 -55q0 -8 6 -8t6 11v228q0 12 -6 13q-6 0 -6 -6q0 -29 -39 -29h-617q-39 0 -38 29q0 6 -7 6 q-6 0 -6 -11v-227zM748 745q0 -8 10 -8h389q12 0 12 8t-6 9q-27 0 -58.5 15t-31.5 34v332l188 -271l189 271v-332q0 -18 -31 -33.5t-59 -15.5q-6 0 -7 -9q0 -8 13 -8h389q12 0 12 8t-6 9q-29 0 -60.5 15t-31.5 34v577q0 16 31.5 33t60.5 17q6 0 6 8t-12 8h-289l-205 -287 l-204 287h-289q-10 0 -10 -8t16.5 -8t48 -16.5t31.5 -33.5v-577q0 -18 -32 -33.5t-58 -15.5q-6 0 -6 -9z" />
<glyph unicode="&#xe000;" horiz-adv-x="1413" d="M0 0v1413h1413v-1413h-1413z" />
</font>
</defs>
</svg>
