<?xml version="1.0" standalone="no"?>
<!DOCTYPE svg PUBLIC "-//W3C//DTD SVG 1.1//EN" "http://www.w3.org/Graphics/SVG/1.1/DTD/svg11.dtd" >
<svg xmlns="http://www.w3.org/2000/svg">
<metadata></metadata>
<defs>
<font id="TiffeyExpertBold" horiz-adv-x="1241" >
<font-face units-per-em="2048" ascent="1638" descent="-410" />
<missing-glyph horiz-adv-x="612" />
<glyph horiz-adv-x="0" />
<glyph horiz-adv-x="2048" />
<glyph unicode="&#xd;" horiz-adv-x="612" />
<glyph unicode=" "  horiz-adv-x="612" />
<glyph unicode="&#x09;" horiz-adv-x="612" />
<glyph unicode="&#xa0;" horiz-adv-x="612" />
<glyph unicode="!" horiz-adv-x="837" d="M240 128q0 67 46 115t133 48t135 -48t48 -114t-48 -114t-134 -48t-133 47t-47 114zM256 1296q0 94 51 145.5t124 51.5t127 -54.5t54 -168t-35.5 -288.5t-72.5 -346t-37 -234.5t-32 -63.5t-32 49q0 168 -36 350q-8 37 -58.5 240t-50.5 280q-2 27 -2 39z" />
<glyph unicode="&#x22;" horiz-adv-x="935" d="M160 1400v9q0 37 31.5 58.5t75.5 21.5t77 -27t27 -76l-80 -499h-66l-63 499q-2 6 -2 14zM612 1386q-6 47 28 75t80 28t76.5 -27t26.5 -76l-82 -499h-63z" />
<glyph unicode="#" d="M49 500l14 112h291l49 308h-290l16 112h291l80 467h129l-80 -467h274l80 467h129l-80 -467h273l-15 -112h-274l-49 -308h258l-17 -112h-258l-79 -500h-129l79 500h-274l-80 -500h-129l80 500h-289zM483 612h275l49 308h-275z" />
<glyph unicode="$" d="M45 360q0 119 117 189q27 16 80 16t109.5 -54t56.5 -122q0 -10 -5 -35l129 242q-141 59 -226 105t-147.5 119t-62.5 179q0 229 154.5 356.5t380.5 127.5q160 0 305 -64l96 193q12 20 27 43q6 6 37 6h32q18 0 19 -12q0 -16 -19 -52l-112 -227q61 -61 92 -116.5t31 -129.5 v-32q-8 -39 -12.5 -76t-53.5 -80t-102 -43q-114 0 -133 156l-80 -179q262 -90 359 -191t97 -218q0 -60 -36 -170q-70 -186 -244 -273q-139 -70 -330 -69q-90 0 -168 15.5t-114 35.5l-80 -162q-23 -63 -49 -63h-48q-27 0 -26 18q0 18 26 62l97 194q-90 61 -143.5 145.5 t-53.5 165.5zM182 270q0 -78 92 -157l64 129q8 14 8 40.5t-24.5 55.5t-53.5 29t-43 -13q-43 -33 -43 -84zM336 1194q0 -100 96 -180t246 -111l225 451q-111 80 -264 80q-191 0 -266 -122q-37 -61 -37 -118zM354 63q35 -16 116 -34.5t167 -18.5q228 0 299 152q27 59 27 110 q0 187 -351 293zM887 1128q16 -59 69 -59q33 0 56.5 23.5t23.5 61.5q0 80 -69 136z" />
<glyph unicode="%" horiz-adv-x="1482" d="M36.5 1068.5q0.5 160.5 75 280t209 119.5t210.5 -119t75.5 -281.5t-74 -276t-210.5 -113.5t-211.5 115t-74 275.5zM182 1060q0 -140 36 -237.5t103 -97.5t103.5 99.5t36.5 240.5t-37 247.5t-101 106.5t-102.5 -109.5t-38.5 -249.5zM344 20q0 22 27 76l612 1290 q25 49 33 57.5t33 8.5h32q18 0 19 -20q-1 -15 -19 -46l-614 -1290q-16 -41 -29.5 -68.5t-34.5 -27.5h-32q-27 0 -27 20zM821 365q0 156 76 266.5t215 109.5q139 0 215 -110t76 -268t-78 -277t-212 -119t-213 121t-79 277zM985 367q0 -139 35 -245t92 -106t92 105.5t35 243 t-32.5 233.5t-94.5 96q-61 0 -94 -94t-33 -233z" />
<glyph unicode="&#x26;" horiz-adv-x="1677" d="M43 385q0 139 97 254t296 168q-176 188 -176 344.5t130 244t300 87.5t280.5 -81t110.5 -188.5t-97 -200.5t-306 -159l467 -516q80 106 80 178q0 162 -242 162q-59 0 -59 32t59 31h629q61 0 61 -31.5t-61 -31.5q-224 0 -289 -129q-74 -147 -97.5 -186t-47.5 -56 q117 -152 221 -198t295 -46q47 0 47 -31.5t-47 -31.5h-469q-61 0 -103 35q-51 55 -90 94q-262 -180 -488.5 -180t-363.5 131t-137 305zM293 414q0 -127 61 -221q120 -164 293 -164q86 0 166 35t186 98l-532 612q-88 -47 -131 -140t-43 -220zM502 944q0 -86 65 -86 q33 0 95 29q133 63 192 149t59 170t-35.5 142.5t-86.5 70.5q-66 16 -177.5 -169t-111.5 -306z" />
<glyph unicode="'" horiz-adv-x="612" d="M145 1290q-6 76 51.5 131.5t131.5 55.5q160 0 204 -203q4 -16 5 -49q0 -96 -60.5 -194.5t-138.5 -176.5q-27 -27 -58 -27t-30 19q0 16 39.5 56t93.5 111.5t53 131.5q0 35 -30 35q-20 0 -58.5 -16.5t-83.5 -16.5t-82 34t-37 109z" />
<glyph unicode="(" horiz-adv-x="806" d="M57 616.5q0 253.5 157 486t415 349.5q49 18 78 18t28 -14q0 -23 -41 -53q-172 -131 -252 -324.5t-80 -432.5t95.5 -470.5t236.5 -337.5q41 -29 41 -52q0 -51 -106 5q-293 145 -432.5 358.5t-139.5 467z" />
<glyph unicode=")" horiz-adv-x="806" d="M68 -213q0 33 61 68q156 119 238 329.5t82 442t-74 430t-213 313.5q-82 57 -82 82q0 14 34 14.5t95 -30.5q291 -160 429 -372t138 -439q0 -270 -176 -504t-438 -330q-49 -18 -72 -18t-22 14z" />
<glyph unicode="*" d="M203 1155q0 45 25.5 76t76.5 31q8 0 29.5 -2.5t70 -30t78.5 -68.5q45 -45 71 -45t26 31t-20 71q-44 86 -44 152q-6 47 33 78t89 31t80 -27t23 -82q0 -58 -63 -176q-10 -25 -10 -39q0 -37 31.5 -37t70.5 39t70 65q50 42 99.5 42t81.5 -40t32 -85q0 -99 -101 -107l-178 17 q-61 0 -61 -29q0 -18 31.5 -37.5t90 -60.5t68.5 -52q37 -31 37 -75q0 -45 -41 -82t-81 -37t-65.5 15.5t-44 52t-22.5 83.5t-8 76q-10 61 -45 62q-39 0 -53 -45q-4 -14 -20.5 -86t-27.5 -93q-23 -59 -74.5 -59t-95 39t-43.5 87t52 79q102 67 136 83.5t34 49.5q0 41 -52.5 29 t-114.5 -12.5t-100 12.5q-72 20 -71 106z" />
<glyph unicode="+" horiz-adv-x="1290" d="M63 483v195h486v467h192v-467h484v-195h-484v-483h-192v483h-486z" />
<glyph unicode="," horiz-adv-x="612" d="M113 113q-6 78 52 133t132 55t128.5 -50.5t74.5 -154.5q4 -16 4 -49q0 -94 -62.5 -195.5t-134.5 -173.5q-29 -29 -59.5 -28.5t-30.5 17.5t40 57t93.5 112t53 119t-30.5 47q-18 0 -58.5 -16.5t-83 -16.5t-80.5 34t-38 110z" />
<glyph unicode="-" horiz-adv-x="516" d="M16 371l97 209h419l-96 -209h-420z" />
<glyph unicode="." horiz-adv-x="612" d="M139 134.5q0 68.5 48.5 120.5t131.5 52t128 -47t45 -114.5t-49.5 -123t-131.5 -55.5t-127 49.5t-45 118z" />
<glyph unicode="/" horiz-adv-x="1015" d="M20 -217q0 18 29 72l725 1548q23 55 43.5 67.5t52.5 12.5h82q45 0 45 -23q0 -16 -14 -41l-741 -1564q-14 -29 -30.5 -63t-66.5 -34h-49q-49 0 -62.5 3t-13.5 22z" />
<glyph unicode="0" d="M32.5 739q0.5 307 152 525t431 218.5t443.5 -237.5q150 -215 149.5 -522t-145.5 -520q-162 -236 -436 -236t-443 244q-152 221 -151.5 528zM342 705q0 -286 70 -476q78 -213 214 -213t208 197q66 178 65.5 462.5t-79.5 522.5t-208 238q-123 0 -196.5 -222.5t-73.5 -508.5 z" />
<glyph unicode="1" d="M109 1307q0 33 36 32q100 0 309.5 45.5t265.5 79t80 33.5t23 -47v-1159q0 -158 113 -205q55 -23 209 -23q49 0 49 -31.5t-49 -31.5h-952q-72 0 -72 32t72 31q188 0 256 68q51 51 51 176v805q0 98 -69 130t-286 32q-37 0 -36 33z" />
<glyph unicode="2" d="M47 1057q0 160 135 280q164 145 447 146q213 0 367.5 -134.5t154.5 -312.5q0 -86 -39 -166q-78 -158 -321 -229q-207 -53 -412 -104q-217 -78 -250 -263q97 168 250 168q76 0 168 -34t207.5 -92t188.5 -58q134 0 134 150q0 66 -25.5 114.5t-64.5 48.5q-8 0 -30.5 -11 t-55.5 -11t-33 24q0 43 84 43q119 0 196 -107q60 -85 60 -198q0 -108 -63 -198q-115 -154 -287 -154q-117 0 -340 102.5t-313 102.5q-18 -2 -41 -2t-42.5 -21.5t-19.5 -52.5t27 -39q49 -18 49 -48t-33 -30t-53 18.5t-28 59.5q-15 85 -15 137q0 141 79 246t275 213 q213 125 263 168q135 119 135 285q0 31 -10 96q-47 234 -263 236q-121 0 -228 -75t-107 -161q0 -61 18 -91t40.5 -30t37 14.5t14.5 39t-29 51.5q84 0 129.5 -47.5t45.5 -117t-48.5 -121.5t-134.5 -52q-130 0 -184 86q-35 55 -35 131z" />
<glyph unicode="3" d="M47 313q0 121 62.5 173.5t142.5 52.5t147.5 -50.5t67.5 -111.5t-31 -103q-29 63 -77 63.5t-79.5 -31.5t-31.5 -76t33.5 -94t104.5 -81.5t171.5 -31.5t192.5 60q129 83 133 279q0 164 -120 255.5t-286 91.5q-68 0 -99.5 -8.5t-47.5 -8.5q-47 0 -47 29t39 37 q213 31 339.5 136t126.5 255q0 53 -16 118.5t-83.5 105.5t-141.5 40q-148 0 -209 -90q-12 -25 -12 -49.5t43.5 -64t50.5 -48.5q20 -33 20 -65q0 -61 -58 -105.5t-122 -44.5q-139 0 -164 135q-4 33 -4 49q0 145 134 249t365.5 104t365 -99.5t133.5 -232.5q0 -100 -87 -181 t-262 -116q256 0 375 -123q100 -102 101 -276q-6 -263 -228 -394q-166 -98 -391 -98t-388 95t-163 255z" />
<glyph unicode="4" d="M-51 450.5q0 18.5 51 49.5q133 72 269 356.5t137 542.5v45l-3 24q-6 57 15.5 85t61.5 28t73 -37t27 -92q-37 -244 -146 -464t-321 -456q84 43 216.5 43t250.5 -59v662q0 51 22 63q35 8 80.5 23.5t162 90.5t142 98.5t47.5 23.5t23 -17q0 -25 -58 -74q-66 -66 -79 -88 q-33 -51 -33 -137v-661q23 -4 42 -4h42q171 0 270 53q29 18 45 18t16 -16t-22 -75q-45 -114 -178 -114l-168 11q-31 0 -47 -2v-162q0 -146 241 -146q68 0 68 -34q0 -29 -68 -29h-806q-59 0 -60 31q0 33 60 32q106 0 172 29q86 39 86 117v194q-33 0 -199 20.5t-213 20.5h-66 l-114 -12q-39 0 -39 18.5z" />
<glyph unicode="5" d="M41 291v37q6 18 8 26q18 72 65.5 109t116 37t127 -51.5t58.5 -135.5q0 -35 -13 -71q-43 59 -86 59t-67.5 -30.5t-24.5 -77.5q0 -68 86 -115t216 -47t238 82.5t107 255.5v30q-2 14 -2 21q-16 166 -159 250q-117 70 -279 69q-106 0 -174 -30q-10 -2 -48 -22.5t-50 -20.5 t-13 14q0 14 15 45q10 31 18 136.5t8 228.5q0 279 -43 393q-6 16 -6 28q0 35 29 35q43 0 43 -71q-2 -14 -2 -23h678q41 0 65.5 7t46 38t46 31t24.5 -27q0 -6 -13.5 -46t-30.5 -95t-39.5 -100.5t-60.5 -55.5t-102 -10h-598q19 -59 19 -122q0 -93 -19 -185q106 63 194.5 79.5 t192.5 16.5q287 0 430.5 -129t143.5 -335t-169 -379t-437 -173q-203 0 -371 90t-168 234z" />
<glyph unicode="6" d="M49 741q29 293 174 492q184 250 502 250q223 0 328.5 -77t105.5 -179q0 -61 -36 -103.5t-91 -42.5q-127 0 -139 158t-102 180q-37 6 -68 6q-156 0 -246 -135q-74 -109 -98 -268.5t-25 -327.5q18 92 111.5 175t243.5 83q242 0 372.5 -138t130.5 -340t-137 -345 q-154 -162 -409.5 -162t-405.5 139q-211 197 -211 635zM375 461q0 -176 76 -310.5t208 -134.5t202.5 125t70.5 301t-76 310t-208 134.5t-202.5 -124.5t-70.5 -301z" />
<glyph unicode="7" d="M31 1042q0 18 18 54l160 403q20 41 43 41t22.5 -44t18 -52t61.5 -8h742l49 80q18 25 37 24q23 0 22 -27q0 -14 -64.5 -128.5t-181.5 -325.5q-158 -295 -252 -543t-94 -453q0 -41 -12 -53t-45 -11t-55 1h-193q-23 0 -47 1t-24 28q0 12 6 34q57 248 224 501t501 614h-580 q-90 0 -171 -37t-121 -77t-52 -40t-12 18z" />
<glyph unicode="8" d="M39 358q0 121 83 223.5t232 143.5q-123 45 -184 132t-61 194q0 168 139 300t369.5 132t377.5 -107.5t148 -249.5q0 -90 -68 -165.5t-205 -122.5q164 -51 255 -167t92 -253q0 -184 -164 -317t-473 -134q-258 0 -399.5 117t-141.5 274zM279 343q0 -112 57 -198.5 t180 -111.5q94 -17 154 -17q141 0 210.5 62.5t69.5 158t-61.5 187.5t-163.5 141l-305 129q-63 -53 -102 -146t-39 -205zM354 1188q0 -122 162 -205l291 -129q41 23 67.5 93.5t26.5 171t-49 185t-158 115.5q-27 8 -63 8q-104 0 -190.5 -73.5t-86.5 -165.5z" />
<glyph unicode="9" d="M49 930q0 209 151 381t412 172q293 0 453 -207t160 -517.5t-181 -545.5q-201 -262 -528 -262q-123 0 -254 51q-172 68 -182 176q0 74 46 114t103 40t97.5 -33t40.5 -76t-9.5 -69.5t-9.5 -42.5q0 -93 201 -95q195 18 289 248q70 168 69 375v47q-4 17 -4 23 q-27 -109 -127 -184t-260 -74q-225 0 -346 135t-121 344zM354 976q0 -179 70 -311t192.5 -132.5t196.5 142t74 324t-65.5 301t-194.5 119.5t-201 -132t-72 -311z" />
<glyph unicode=":" horiz-adv-x="612" d="M139 134.5q0 68.5 48.5 120.5t131.5 52t128 -47t45 -114.5t-49.5 -123t-131.5 -55.5t-127 49.5t-45 118zM139 763q0 69 48.5 121t131.5 52t128 -47t45 -115t-49.5 -123t-131.5 -55t-127 49t-45 118z" />
<glyph unicode=";" horiz-adv-x="612" d="M113 113q-6 78 52 133t132 55t128.5 -50.5t74.5 -154.5q4 -16 4 -49q0 -94 -62.5 -195.5t-134.5 -173.5q-29 -29 -59.5 -28.5t-30.5 17.5t40 57t93.5 112t53 119t-30.5 47q-18 0 -58.5 -16.5t-83 -16.5t-80.5 34t-38 110zM139 763q0 69 48.5 121t131.5 52t128 -47 t45 -115t-49.5 -123t-131.5 -55t-127 49t-45 118z" />
<glyph unicode="&#x3c;" horiz-adv-x="1290" d="M63 467v211l1178 450v-176l-999 -387l999 -403v-178z" />
<glyph unicode="=" horiz-adv-x="1290" d="M63 291v176h1147v-176h-1147zM63 694v176h1147v-176h-1147z" />
<glyph unicode="&#x3e;" horiz-adv-x="1290" d="M80 0v178l985 402l-985 419v179l1161 -484v-227z" />
<glyph unicode="?" horiz-adv-x="1306" d="M92 1081q0 174 161 296t441 122q205 0 380 -126t175 -288q0 -138 -137 -247q-221 -106 -344 -197.5t-123 -195t-37 -103.5q-29 0 -28 78q0 186 158.5 363.5t158.5 299.5q0 53 -10 95q-33 145 -109 207.5t-181.5 62.5t-216.5 -65.5t-138 -125.5q-17 -49 -17 -83 q0 -80 62 -80q23 0 40 19.5t17 45.5t-6 51q119 -93 119 -198q0 -76 -56.5 -128.5t-126 -52.5t-117.5 49.5t-61 151.5q-4 33 -4 49zM428 135.5q0 69.5 48 120.5t133 51t128 -45t43 -114.5t-49 -125t-131 -55.5t-127 49.5t-45 119z" />
<glyph unicode="@" horiz-adv-x="1677" d="M53 719.5q0 314.5 209 533.5q233 246 641 246q342 0 547 -215q182 -190 182 -461q0 -217 -131 -377.5t-373 -187.5q-94 0 -153.5 32t-71.5 81q-61 -57 -134 -89t-138 -32q-115 0 -192 81t-77 222q0 135 67.5 286.5t206 245t278.5 93.5t198 -129l33 96h194l-258 -694 q-16 -43 -16 -64q0 -57 74 -57q49 0 109.5 21.5t105.5 51.5q94 68 146 182.5t52 250.5q0 240 -149 399q-172 184 -494.5 184t-521.5 -227q-178 -205 -178 -486.5t160 -465.5q178 -207 485 -207q182 0 350 65q231 90 328 273h80q-68 -195 -316 -314q-221 -106 -473 -106 q-358 0 -573 237q-197 217 -197 531.5zM530 507.5q0 -180.5 140 -188.5q68 0 131 48.5t86 115.5l162 420q16 49 16 95t-32 80t-81 34q-8 2 -26 2q-135 0 -265.5 -213t-130.5 -393.5z" />
<glyph unicode="A" horiz-adv-x="1452" d="M-135 29q0 12 15.5 23t39.5 11q88 0 165 65t124 194l371 952q-23 49 -71 49t-48 19t67 49q129 57 213 141l29 29q16 14 27 14q18 0 26 -43l451 -1307q35 -82 112.5 -122t178.5 -40q59 0 59 -31.5t-59 -31.5h-807q-59 0 -60 31q0 33 65 33h2t3 -1q65 0 117 23q76 33 76 96 q0 20 -9 43l-98 324h-483l-97 -275q-10 -29 -10 -63q0 -68 53.5 -108t107.5 -40t54 -31.5t-59 -31.5h-500q-55 0 -55 29zM387 612h451l-209 629z" />
<glyph unicode="B" horiz-adv-x="1564" d="M-12 32q0 32 74 32h2q1 0 2 -1q75 0 124 39q84 66 84 236v919q0 92 -90 127q-47 18 -112.5 18.5t-65.5 37.5q0 28 69 28h5h774q283 0 426 -102t143 -248q0 -111 -84 -203.5t-227 -123.5q193 0 294 -99.5t101 -258t-139 -296t-369 -137.5h-950q-61 0 -61 32zM580 209 q0 -94 57 -127t215 -33t248 109.5t90 254t-83 245t-237 100.5h-290v-549zM580 823h290q123 0 186.5 87t63.5 212v54q-6 24 -8 34q-51 209 -305 209q-102 0 -164.5 -52t-62.5 -157v-387z" />
<glyph unicode="C" horiz-adv-x="1499" d="M63 694q0 377 228 596q209 203 530 203q102 0 170 -16.5t97.5 -25.5t48.5 -9q47 0 57 57q0 51 29 51q23 0 34 -34l146 -451q8 -23 8 -43.5t-20 -20.5q-29 0 -52 48q-61 135 -182 247q-150 139 -303 140q-211 0 -339 -232.5t-128 -520t107 -464.5q123 -203 344 -203 q172 0 308 80t208 226q16 49 42 49t26 -37q0 -38 -19 -76q-70 -139 -204 -223t-361 -84q-322 0 -548 236.5t-227 506.5z" />
<glyph unicode="D" horiz-adv-x="1677" d="M49 1452h871q342 0 546 -235q184 -213 185 -507v-2q0 -293 -170 -489q-190 -219 -514 -219h-904q-53 0 -53 29q0 12 15.5 23t37.5 11q125 0 176.5 51.5t51.5 143.5v967q0 161 -236 161h-6q-67 0 -67 34q0 32 67 32zM580 291q0 -135 64.5 -188.5t242.5 -53.5 q211 1 331 191t120 463q0 277 -132 477q-147 223 -399 223q-117 0 -172 -49t-55 -129v-934z" />
<glyph unicode="E" horiz-adv-x="1452" d="M-29 31q0 32 58 32h4h33q84 0 127 29q66 45 65 166v936q2 18 2 27q0 165 -211 165q-61 0 -61 33t61 33h887q70 0 110.5 13.5t67.5 51t45 37.5q29 0 51 -71l144 -371q8 -23 8 -39q0 -27 -21 -26q-35 0 -67 65q-43 100 -201 189.5t-305 89.5h-31q-20 -4 -28 -5 q-76 -12 -110 -47.5t-34 -128.5v-403h242q109 0 159 76t50 166q0 53 33 53t32 -53v-582q0 -47 -32 -47q-33 0 -33 47q0 119 -52 196.5t-157 77.5h-242v-483q0 -113 72 -162t184 -49q91 0 211 33q218 73 338 323q25 45 49 45.5t25 -24.5q0 -19 -8 -37l-226 -500 q-23 -61 -49 -61q-20 0 -33 45q-10 63 -110 96t-195 33h-790q-61 0 -62 31z" />
<glyph unicode="F" horiz-adv-x="1353" d="M10 29q0 12 15.5 23t37.5 11q129 0 186.5 59.5t57.5 151.5v920q0 192 -210 192h-7h-27q-47 0 -47 33t47 33h873q170 0 194 70q13 41 35 41t45 -64l160 -371q18 -31 19 -49q0 -29 -25 -28q-33 0 -57 45q-84 121 -247 208t-294 87q-76 0 -123 -37t-47 -113v-434h227 q16 -2 23 -2q94 0 140 78t46 152.5t27 74.5q14 0 25.5 -17.5t11.5 -43.5v-582q0 -47 -32 -47t-32 47q0 139 -51 206.5t-158 67.5h-227v-483q0 -121 82 -164q59 -31 192 -31q61 0 62 -32q0 -31 -62 -31h-807q-53 0 -53 29z" />
<glyph unicode="G" horiz-adv-x="1710" d="M57 698q0 306 201 533q223 252 596 252q66 0 162 -10.5t134 -10.5q83 0 107 54q29 47 44 47t38 -64l160 -403q10 -15 10 -42.5t-20 -27.5q-27 0 -53 55q-70 143 -236 236.5t-351.5 93.5t-305.5 -113q-139 -131 -140 -378q0 -305 9 -385q25 -231 114 -359 q115 -160 344 -160q147 0 242.5 125t95.5 285q0 82 -28.5 148.5t-79.5 85t-123 18.5h-41q-8 -2 -21 -2q-41 0 -41 29q0 36 59 36h3h758q66 0 65 -34q1 -29 -68 -29t-98 -14q-55 -27 -73 -99.5t-19 -175.5q0 -159 31 -340q-39 10 -120.5 10t-314.5 -46t-323 -46 q-342 0 -538 221q-179 202 -179 510z" />
<glyph unicode="H" horiz-adv-x="1822" d="M10 29q0 12 15.5 23t37.5 11q115 0 170 33q74 43 74 146v952q0 192 -241 192h-3q-47 0 -47 33t47 33h775q27 0 44 -11t17 -26q0 -29 -61 -29q-242 0 -242 -176v-403h645v418q0 96 -90 135q-57 26 -145 26h-7q-47 0 -47 33t47 33h775q68 0 67 -31q1 -35 -80 -35 t-149 -39.5t-80 -121.5v-967q0 -96 45 -145t180 -50q74 0 74 -31.5t-74 -31.5h-758q-53 0 -53 29q0 12 15.5 23t37.5 11q111 0 156 21q86 39 86 158v499h-645v-499q0 -111 70 -150q49 -29 157 -29q66 0 66 -34q0 -29 -66 -29h-760q-53 0 -53 29z" />
<glyph unicode="I" horiz-adv-x="903" d="M16 1419q0 33 47 33h760q59 0 60 -33q-1 -33 -60 -33q-227 0 -227 -145v-999q10 -111 74 -150q45 -29 127 -29t82 -31.5t-72 -31.5h-711q-66 0 -65 29q0 35 77 35h4q195 0 195 194v983q0 88 -67 121q-49 24 -167 24h-10q-47 0 -47 33z" />
<glyph unicode="J" d="M-49 387q8 76 67.5 130t124.5 54q117 0 136 -153q0 -55 -62.5 -117.5t-62.5 -85t8 -37.5q41 -84 168 -129q92 -33 170 -33q162 0 235 127q55 96 56 260v791q0 197 -207 197l-84 -5q-53 0 -54 35q0 31 54 31h823q66 0 66 -33t-66 -33q-229 0 -227 -176v-823 q0 -166 -121 -285q-153 -151 -455 -151h-4q-209 0 -366 96q-199 121 -199 340z" />
<glyph unicode="K" horiz-adv-x="1677" d="M-6 29q0 12 15.5 23t39.5 11q176 0 232 80q26 38 26 124v7v936q0 98 -37 137t-174 39q-65 0 -65 33t65 33h727q59 0 60 -33q0 -33 -60 -33q-123 0 -167 -41.5t-44 -119.5v-531q66 31 159 137.5t116 217.5q12 61 43 61q24 0 24 -55q0 -27 -2 -39q197 204 226 258 q14 23 14 43q0 69 -160 69q-55 0 -55 33t55 33h596q74 0 74 -33t-74 -33q-102 0 -323 -155q-102 -72 -338 -264l565 -822q55 -82 168 -82h41q61 0 61 -31.5t-61 -31.5h-725q-59 0 -60 31q0 32 57 32h3q125 0 125 62q0 27 -29 68l-354 548l-146 -129v-387q0 -98 78 -135 q55 -27 164 -27q49 0 49 -31.5t-49 -31.5h-805q-55 0 -55 29z" />
<glyph unicode="L" horiz-adv-x="1452" d="M6 1423q0 29 74 29h774q74 0 74 -33t-93.5 -33t-144.5 -30q-78 -47 -78 -178v-904q0 -206 248 -206q86 0 205 28q183 53 338 307q35 55 65 56q19 0 19 -18q0 -8 -4 -21l-209 -500q-29 -70 -48 -70t-32 54q-10 63 -100 84q-53 12 -174 12h-824q-72 0 -71 31q0 33 75 33h2 q1 0 2 -1q76 0 127 41q76 61 76 203v871q0 121 -58 165q-57 43 -164 43h-5q-33 0 -53.5 10.5t-20.5 26.5z" />
<glyph unicode="M" horiz-adv-x="2048" d="M47 1421q0 31 66 31h452q51 0 70.5 -14.5t42.5 -83.5l354 -887l371 903q29 55 45 68.5t84 13.5h420q84 0 84 -33t-101.5 -33t-147.5 -55t-46 -121v-936q0 -119 46 -164.5t198 -46.5q53 0 53 -28q0 -12 -15 -23.5t-38 -11.5h-775q-61 0 -61 27q0 14 17.5 25t43.5 11 q242 0 242 244v1032l-387 -919q25 -12 71 -21.5t46 -17.5t-21 -27q-78 -53 -153 -104q-55 -47 -92 -111q-36 -63 -53 -63h-1q-8 0 -14 20.5t-10 32.5l-451 1161v-936q0 -131 29 -186q53 -104 213 -105q33 0 47 -13t14 -23q0 -27 -61 -27h-533q-47 0 -47 32q0 31 44 31h3 q226 0 226 291v871q0 90 -56.5 125.5t-152.5 35.5q-23 0 -44.5 8.5t-21.5 26.5z" />
<glyph unicode="N" horiz-adv-x="1564" d="M-12 32q0 31 57 31h4q109 0 159 68.5t50 159.5v934q0 88 -62 125q-60 36 -142 36h-5q-25 0 -43 12.5t-18 24.5q0 29 61 29h531q71 0 71 -51q-6 -35 -6 -47l612 -1047v805q0 150 -62 212t-179 62q-47 0 -47 33t47 33h500q63 0 63 -31q0 -12 -14.5 -23.5t-32.5 -11.5 q-94 -16 -141 -63q-68 -68 -68 -211v-870q23 -23 74 -45.5t51 -34.5t-52.5 -35t-113.5 -60.5t-88 -66.5q-18 -25 -30.5 -40t-27.5 -15t-40 39l-774 1323v-1016q0 -123 55 -175t130 -52.5t75 -34.5q0 -29 -66 -29h-467q-61 0 -61 32z" />
<glyph unicode="O" horiz-adv-x="1710" d="M78 823q0 287 176 469q201 207 584.5 207t607.5 -235q199 -209 199 -525q0 -315 -193 -540q-211 -248 -561 -248t-581.5 268t-231.5 604zM358 749.5q0 -292.5 129 -499.5q146 -234 400 -234q227 0 354 197q113 176 113 465.5t-145.5 531.5t-375 242t-358.5 -215 q-117 -195 -117 -487.5z" />
<glyph unicode="P" horiz-adv-x="1452" d="M10 35q0 28 50 28h3q115 0 171.5 41t56.5 138v968q2 16 2 23q0 153 -221 153h-9q-47 0 -47 33t47 33h807q287 0 460 -118t173 -271.5t-172 -260t-504 -106.5q-104 0 -231 13v-451q0 -135 98 -176q45 -18 160 -19q49 0 49 -31.5t-49 -31.5h-791q-53 0 -53 35zM596 758h258 q141 0 222 96t81 225t-78 218t-233.5 89t-202.5 -41t-47 -120v-467z" />
<glyph unicode="Q" horiz-adv-x="1677" d="M279 1231q236 252 624 252q342 0 544 -225.5t202 -529.5t-191 -525q-215 -248 -604 -299q143 -20 197 -35q129 -33 272 -111q63 -37 170 -37t185.5 52.5t78.5 163.5q0 41 23 40q6 0 16 -10t10 -30q0 -225 -126 -343q-125 -117 -278 -117l-1 1q-153 0 -223 86 q-219 284 -342 284q-35 0 -56.5 -20t-21.5 -35.5t56 -59.5t56 -98.5t-52 -98.5t-116.5 -44t-108.5 46t-44 140q0 63 73.5 134t231.5 139q-377 0 -582 215q-205 214 -205 524q0 312 212 541zM518 225q123 -209 341 -209t351 230q121 207 121 492.5t-108 471.5 q-123 209 -341 209t-346 -219q-127 -218 -127 -503q0 -287 109 -472z" />
<glyph unicode="R" horiz-adv-x="1564" d="M6 29q0 35 43 34q117 0 187.5 55.5t70.5 172.5v934q0 80 -62.5 120.5t-164.5 40.5q-23 0 -44.5 8.5t-21.5 26.5q0 31 66 31h903q250 0 386 -110.5t136 -260t-120.5 -253t-335.5 -103.5l354 -547q35 -68 95 -91t120 -23.5t74 -13.5t14 -23q0 -27 -61 -27h-404 q-72 0 -104 33q-33 49 -56 80l-356 581h-129v-403q0 -228 242 -228q61 0 61 -31.5t-61 -31.5h-789q-43 0 -43 29zM596 758h162q106 10 149.5 50t58.5 91t35 51q27 0 27 -48t-12 -95q59 0 108.5 90t49.5 207t-72 199.5t-232 82.5q-274 0 -274 -129v-499z" />
<glyph unicode="S" horiz-adv-x="1353" d="M31 445.5q0 27.5 24 27.5q29 0 58 -53q80 -160 276.5 -278.5t378.5 -118.5q214 0 281 170q18 47 18 88q0 150 -285 251q-231 72 -460 146q-127 55 -189.5 141t-62.5 189q0 166 137 310t325 165q53 6 113 6t129.5 -10.5t149.5 -20.5q51 0 61 49t38 49t42 -40l160 -420 q16 -37 16 -52q0 -25 -22 -24q-38 0 -58 45q-76 152 -234.5 255t-312.5 103q-193 0 -276 -166q-20 -43 -21 -83q0 -135 297 -236q240 -74 482 -147q109 -47 165 -139.5t56 -207.5q0 -180 -139 -325.5t-387 -167.5q-55 0 -181 17.5t-168 17.5q-97 0 -104 -66q-12 -67 -44 -67 h-1q-29 0 -51 67l-193 467q-18 31 -18 58.5z" />
<glyph unicode="T" horiz-adv-x="1353" d="M-74 1138q0 21 11 40l159 354q16 51 39 51q12 0 20.5 -10t26 -47t73.5 -55.5t116 -18.5h694q59 0 103 27.5t57 68.5q16 35 30 35t35 -51l162 -354q18 -35 18 -60t-16 -24q-25 0 -86.5 73.5t-144.5 132.5q-121 86 -240 86q-72 0 -108.5 -27.5t-36.5 -117.5v-934 q0 -113 32 -164q51 -80 195 -80q59 0 59 -31.5t-59 -31.5h-758q-55 0 -55 29q0 12 15.5 23t39.5 11q100 0 148 33q78 53 77 195v966q0 78 -25.5 109t-60.5 31q-46 0 -92 -11q-123 -23 -217 -88t-137 -137q-29 -47 -55 -47q-19 0 -19 24z" />
<glyph unicode="U" horiz-adv-x="1564" d="M-10 1423q0 29 43 29h774q53 0 53 -33t-53 -33q-96 0 -158 -30q-84 -43 -84 -131v-854q0 -174 109.5 -273.5t257.5 -99.5q147 0 253 100t105 289v725q0 274 -222 274h-3q-25 0 -43 12.5t-18 24.5q0 29 61 29h500q41 0 41 -29q0 -14 -11.5 -25.5t-29.5 -11.5 q-100 -12 -149.5 -72.5t-61.5 -201.5v-725q0 -219 -149.5 -331.5t-371.5 -112.5t-398.5 117.5t-176.5 310.5v870q0 80 -46 105.5t-179 39.5q-43 0 -43 37z" />
<glyph unicode="V" horiz-adv-x="1452" d="M-70 1417q0 12 15.5 23.5t38.5 11.5h725q73 0 73 -32q0 -34 -73 -34q-154 0 -154 -102q0 -37 25 -90l340 -856l305 823q14 35 14 85t-41 95t-102 45q-23 0 -44.5 8.5t-21.5 26.5q0 31 66 31h469q47 0 47 -33t-53 -33t-123 -45.5t-113 -146.5l-371 -936q8 -14 67.5 -41.5 t59.5 -40.5q0 -12 -65.5 -38t-108 -61.5t-93 -87t-60.5 -50.5q-23 0 -58 94l-485 1161q-55 104 -57 106q-66 86 -168 86q-53 0 -54 31z" />
<glyph unicode="W" horiz-adv-x="1935" d="M-59 1419q0 33 59 33h580q49 0 49 -33t-49 -33q-84 -14 -84 -110q0 -48 20 -115l225 -807l195 742q-82 217 -94 233q-41 57 -101 57q-20 0 -34.5 12.5t-14.5 26.5q0 27 49 27h598q53 0 54 -31q0 -12 -15.5 -23.5t-56.5 -11.5t-77 -31.5t-36 -97.5q0 -20 2 -32l242 -887 l225 840q12 37 13 67q0 68 -54.5 104.5t-107.5 36.5t-53 31q0 23 41 35h436q72 0 71 -33q1 -33 -59.5 -33t-127.5 -66.5t-79 -125.5l-274 -969q12 -16 63.5 -45.5t50.5 -38.5q0 -18 -49 -28q-179 -61 -233 -142q-22 -24 -34 -24h-1q-18 0 -39 69l-274 967l-193 -741 q37 -29 72 -56.5t35 -39t-40 -21.5t-115 -49t-119 -82t-61 -43t-30 49l-338 1194q-31 92 -70.5 142t-103 50t-63.5 33z" />
<glyph unicode="X" horiz-adv-x="1499" d="M-113 27q0 12 14.5 24t35.5 12q111 12 193.5 72.5t176.5 171.5l322 434l-371 516q-78 129 -258 129q-53 0 -53 31q0 12 15 23.5t38 11.5h741q68 0 68 -33t-68 -33q-116 0 -116 -74q0 -40 37 -87l225 -338l145 209q62 94 62 160.5t-38 98t-99.5 31.5t-61.5 33t72 33h565 q49 0 49 -33t-49 -33q-78 -16 -178.5 -71t-175.5 -154l-258 -323l450 -660q77 -113 195 -115q66 0 65 -34q1 -29 -65 -29h-774q-43 0 -43 29q0 35 43 34q88 0 120 9q63 16 64 65q0 33 -23 72l-290 469l-259 -387q-27 -42 -27 -95q0 -54 42 -94q41 -38 131 -39q53 0 53 -34 q0 -29 -53 -29h-612q-49 0 -50 27z" />
<glyph unicode="Y" horiz-adv-x="1452" d="M-106 1423q0 29 43 29h757q53 0 54 -35q0 -31 -54 -31q-129 -16 -129 -86q0 -35 31 -90l274 -452l291 452q25 39 25 82t-52.5 68.5t-111.5 25.5t-59 33t53 33h516q55 0 55 -33t-55 -33q-185 0 -307 -208l-322 -484v-452q0 -92 67.5 -135.5t174.5 -43.5q49 0 49 -31.5 t-49 -31.5h-791q-53 0 -53 29q0 12 15.5 23t37.5 11q242 0 242 195v371l-354 581q-51 92 -119 134t-186 42q-43 0 -43 37z" />
<glyph unicode="Z" horiz-adv-x="1353" d="M8 29q0 16 25 51l837 1274q8 25 -23.5 39t-90.5 14q-156 0 -345.5 -77t-281.5 -218q-27 -39 -51 -39q-16 0 -16.5 23.5t1.5 31.5l162 388q20 43 37 43q16 0 28.5 -39t44.5 -53.5t85 -14.5h821q31 0 31 -18t-31 -64l-805 -1241q-8 -8 -8 -23q0 -27 56.5 -45t142.5 -18 q195 0 372 76q219 94 308 268q25 53 53 53q18 0 18 -18.5t-8 -34.5l-209 -500q-23 -61 -55 -61q-25 0 -25 48t-52 87t-142 39h-807q-72 0 -72 29z" />
<glyph unicode="[" horiz-adv-x="806" d="M144 -129q1 45 1 66v1466q0 53 7.5 74.5t89.5 21.5h499q49 0 50 -33q-1 -30 -50 -30h-258q-66 0 -81 -18.5t-15 -63.5v-1434q12 -57 33.5 -69.5t79.5 -12.5h225q55 0 55 -35q0 -29 -55 -28h-500q-49 0 -65.5 25.5t-15.5 70.5z" />
<glyph unicode="\" horiz-adv-x="645" d="M-100 1463q10 5 51 5h65q47 0 59.5 -8t37.5 -57l628 -1323q2 -6 10.5 -25.5t8.5 -29.5q0 -25 -66 -25h-65q-49 0 -66 23q-14 35 -31 57l-628 1323q-25 49 -4 60z" />
<glyph unicode="]" horiz-adv-x="806" d="M4 1451q0 32 59 32h502q63 0 80 -10.5t17 -49.5v-1552q0 -57 -23 -76.5t-74 -19.5h-485q-59 0 -60 30q0 33 60 33h211q53 0 82.5 20.5t29.5 78.5v1417q0 45 -20.5 55t-75.5 10h-244q-59 0 -59 32z" />
<glyph unicode="^" horiz-adv-x="1290" d="M162 467l387 969h192l371 -969h-176l-291 727l-307 -727h-176z" />
<glyph unicode="_" horiz-adv-x="1032" d="M0 -145h1016v-177h-1016v177z" />
<glyph unicode="`" horiz-adv-x="774" d="M152 1272.5q0 62.5 48 123t95 60.5t76 -37l241 -291q27 -33 27 -47t-22 -14t-68 14l-340 113q-57 16 -57 78.5z" />
<glyph unicode="a" horiz-adv-x="1234" d="M-115 27q0 27 58 27h3q1 0 1 -1q61 -1 125 55q66 56 106 164l316 811q-18 41 -60.5 41t-42.5 17.5t54 40.5q113 48 186 121q36 36 48.5 36t20.5 -36l383 -1110q29 -68 95.5 -104t135 -36t68.5 -26q0 -27 -53 -27h-684q-51 0 -51 27t54 27q1 0 2 -0.5t2 -0.5q56 0 110 24 q56 24 55 79q0 8 -8 37l-84 274h-410l-82 -234q-8 -24 -8 -53q0 -59 43 -93t78 -34q62 0 62 -26.5t-52 -26.5h-424q-47 0 -47 27zM330 520h383l-178 535z" />
<glyph unicode="b" horiz-adv-x="1329" d="M-10 27q0 27 63 27h3q1 0 1 -1q64 0 105 33q72 55 71 201v782q0 61 -47 92t-113 31t-67 31q0 24 57 24h5h657q242 0 364 -87q121 -86 121 -210q0 -96 -71.5 -173.5t-192.5 -104.5q164 0 250 -84t86 -218t-118 -252t-314 -118h-809q-51 0 -51 27zM494 178q0 -82 48 -109.5 t183 -27.5t211 91t76 215t-72 211t-201 87h-245v-467zM494 700h245q106 0 159.5 73t53.5 181q0 37 -6 74q-41 178 -260 178q-86 0 -139 -45t-53 -133v-328z" />
<glyph unicode="c" horiz-adv-x="1273" d="M53 590q0 319 185.5 498.5t457.5 179.5q96 0 161 -16.5t110 -26.5q42 0 49 49q0 43 24 43q18 0 29 -29l123 -383q8 -18 8 -37t-16 -18q-10 0 -23.5 11t-21.5 30q-51 117 -154 211q-127 119 -260 119q-178 0 -287.5 -196.5t-109.5 -441.5t92 -397q104 -172 293 -172 q145 0 261 68t177 190q14 41 36 41t22 -29q0 -31 -17 -65q-127 -260 -479 -260q-274 0 -466.5 200t-193.5 431z" />
<glyph unicode="d" horiz-adv-x="1425" d="M-16 1206.5q0 28.5 57 28.5h741q293 0 465 -199q156 -180 156 -432t-143 -418q-163 -186 -439 -186h-768q-45 0 -45 27t45 26q195 0 195 166v821q0 138 -207 138q-57 0 -57 28.5zM494 248q0 -115 55 -161t205 -46q180 0 281 162q102 163 102 399q0 233 -111 399 q-125 190 -340 191q-98 0 -145 -41t-47 -111v-792z" />
<glyph unicode="e" horiz-adv-x="1234" d="M-23 27q0 26 48 26h4h26q70 0 107 25q57 39 57 141v797q1 10 1 19q0 88 -68 122q-43 20 -102.5 20.5t-59.5 29t51 29.5h754q59 0 95 10.5t57.5 42.5t37.5 32q23 0 43 -61l123 -314q6 -18 6 -38t-16 -19q-31 0 -58 57q-39 86 -171 161t-259 75q-102 0 -137 -37t-35 -117 v-342h205q90 0 134 64.5t44 140.5q0 47 31 47q25 0 25 -47v-494q0 -41 -28 -41t-28 41q0 98 -46 166t-132 68h-205v-412q0 -178 217 -178q230 0 369 154q51 57 98 147q18 41 45 41q18 0 19 -23q0 -5 -8 -30l-193 -426q-23 -53 -41 -54q-18 0 -29 39q-8 55 -92 83t-166 28 h-671q-52 0 -52 27z" />
<glyph unicode="f" horiz-adv-x="1150" d="M8 27q0 27 45 26q82 0 135 33q74 45 74 147v783q0 162 -184 162h-25q-39 0 -39 28q0 29 39 29h742q146 0 167 59q11 33 30 33t36 -53l137 -316q15 -24 15 -45t-24 -21q-24 1 -46 40q-70 100 -209 175t-250 75q-145 0 -145 -127v-369h194q10 -1 20 -1q76 0 120 67 q37 57 37 123.5t24 66.5q31 0 31 -51v-494q0 -41 -28 -41t-27 41q0 234 -177 234h-194v-412q0 -102 69 -139q51 -27 164 -27q53 0 54 -26q0 -27 -54 -27h-686q-45 0 -45 27z" />
<glyph unicode="g" horiz-adv-x="1454" d="M49 591q0 261 170 453q190 215 506 216q55 0 137 -8.5t115 -8.5q68 0 92 45q25 39 37 39t33 -53l135 -342q10 -20 10 -40t-18 -20q-23 0 -45 48q-61 125 -200.5 201.5t-300.5 76.5t-261 -94q-117 -109 -117 -322q0 -360 39 -491q82 -276 358 -277q125 0 206 106.5 t81 244.5q0 68 -25 129q-25 51 -66.5 66t-98.5 15h-41q-10 -2 -19 -2q-33 0 -33 26q0 32 52 32h645q55 0 55 -31q0 -25 -58 -25t-83 -12q-45 -23 -61.5 -86t-16.5 -149q0 -181 27 -287q-35 8 -103 8t-264.5 -39t-278.5 -39q-289 0 -456 189q-152 170 -152 431z" />
<glyph unicode="h" horiz-adv-x="1550" d="M8 27q0 27 45 26q209 0 209 152v811q0 162 -209 162q-39 0 -39 28q0 29 39 29h660q51 0 51 -33q0 -25 -51 -24q-207 0 -207 -150v-342h549v354q0 138 -205 138q-41 0 -41 28q0 29 41 29h657q57 0 58 -27q0 -10 -15.5 -20t-42.5 -10q-80 0 -137 -33t-67 -105v-821 q0 -82 37.5 -124t152.5 -42q63 0 63 -26q0 -27 -63 -27h-643q-47 0 -47 27t47 26q92 0 133 19q72 33 72 133v426h-549v-426q0 -92 59 -127q43 -25 116.5 -25t74.5 -28q0 -25 -56 -25h-647q-45 0 -45 27z" />
<glyph unicode="i" horiz-adv-x="768" d="M14 1206q0 29 39 29h647q52 0 52 -29q-1 -28 -52 -28q-195 0 -194 -123v-850q10 -92 56 -122t115.5 -30t70.5 -26q0 -27 -62 -27h-604q-55 0 -55 27q0 26 51 26h4q182 0 180 166v836q0 76 -50 99.5t-159 23.5q-39 0 -39 28z" />
<glyph unicode="j" horiz-adv-x="1054" d="M-41 330q0 63 50 109t108 46q106 0 121 -131q0 -45 -53.5 -98t-53.5 -72.5t6 -31.5q37 -74 128.5 -106t158.5 -32q248 0 248 328v674q0 166 -174 166l-74 -4q-45 0 -45 28.5t45 28.5h700q55 0 56 -27q-1 -30 -56 -30q-192 0 -192 -150v-698q0 -141 -103 -242 q-131 -129 -391 -129q-180 0 -311 80q-168 102 -168 291z" />
<glyph unicode="k" horiz-adv-x="1425" d="M-6 27q0 27 47 26q150 0 197 70q24 34 24 104v6v795q0 82 -31.5 116t-148.5 34q-55 0 -55 28.5t55 28.5h618q52 0 52 -29q0 -28 -63 -28h-4h-2q-161 0 -163 -138v-450q55 27 135 117.5t94.5 163.5t41.5 73q20 0 21 -53q0 -16 -3 -27q162 162 192 219q10 18 11 35 q0 60 -135 60q-47 0 -48 30q0 27 48 27h507q63 0 64 -29q0 -29 -74 -29q-1 1 -3 1h-1q-77 0 -262 -131q-90 -63 -287 -226l482 -698q29 -43 62.5 -56.5t78.5 -13.5h37q53 0 53 -26q0 -27 -53 -27h-617q-51 0 -51 27q0 26 47 26h4q107 0 107 53q0 20 -25 58l-301 467 l-125 -111v-327q0 -84 66 -117q47 -23 139 -23q43 0 43 -26q0 -27 -43 -27h-684q-47 0 -47 27z" />
<glyph unicode="l" horiz-adv-x="1234" d="M6 1210q0 25 62 25h657q63 0 63 -29q0 -28 -73 -28h-5h-2q-188 0 -188 -177v-768q0 -176 211 -176q68 0 174 25q159 44 287 260q33 49 55 49q11 1 15 -9q2 -4 1 -10q0 -7 -3 -16l-177 -424q-25 -59 -42 -59t-26 49t-85 68q-45 10 -148 10h-700q-61 0 -62 27q0 27 64 27h2 t2 -1q65 0 109 37q66 53 65 172v739q0 102 -50 139.5t-127.5 37.5t-78.5 32z" />
<glyph unicode="m" horiz-adv-x="1740" d="M41 1206.5q0 28.5 55 28.5h385q43 0 59.5 -11.5t34.5 -72.5l302 -754l315 768q25 47 39 58.5t72 11.5h356q72 0 72 -29t-83 -29q-1 1 -3 1h-2q-85 0 -123 -46q-40 -46 -39 -104v-795q0 -100 39 -140t168 -40q45 0 45 -24q0 -29 -45 -29h-660q-51 0 -51 23q0 30 48 30h3 q207 0 207 209v877l-330 -783q18 -8 58.5 -17t40.5 -16t-17 -22q-51 -35 -102 -68q-70 -51 -103.5 -109t-48.5 -58q-6 0 -20 45l-383 987v-797q0 -113 24 -160q45 -88 181 -88q20 0 35.5 -9t15.5 -21q0 -23 -51 -23h-453q-39 0 -39 27t39 26q190 0 190 248v739q0 78 -46 108 t-115.5 30t-69.5 28.5z" />
<glyph unicode="n" horiz-adv-x="1329" d="M-10 27q0 26 47 26h4q92 0 135 60.5t43 134.5v792q0 138 -178 138q-51 0 -51 32q0 25 51 25h453q59 0 59 -45q-4 -29 -4 -39l520 -889v684q0 127 -52 179.5t-153 52.5q-41 0 -41 28q0 29 41 29h424q53 0 53 -27q0 -12 -11 -21t-27 -9q-177 -28 -179 -232v-741 q18 -18 62.5 -39t44.5 -29t-44 -27.5t-98.5 -53t-73 -56.5t-28.5 -35t-20 -12q-16 0 -35 33l-660 1124v-862q0 -104 47.5 -149.5t110.5 -45.5t64 -28q0 -25 -56 -25h-397q-51 0 -51 27z" />
<glyph unicode="o" horiz-adv-x="1454" d="M66 682q0 264 149 418q170 174 497.5 174t516.5 -201q168 -178 168 -445t-171 -468t-468 -201t-494.5 229.5t-197.5 493.5zM305 636q0 -248 111 -423q125 -199 329 -199t305 158t101 405.5t-123 452.5t-317.5 205t-299.5 -174q-106 -175 -106 -425z" />
<glyph unicode="p" horiz-adv-x="1234" d="M8 27q0 27 45 26q195 0 195 152v823q1 10 1 20q0 72 -67 105q-51 25 -129 25q-39 0 -39 28q0 29 39 29h686q244 0 391.5 -100.5t147.5 -231.5t-137 -215q-158 -96 -441 -96h-22q-97 0 -172 10v-383q0 -115 84 -149q39 -16 135 -17q43 0 43 -26q0 -27 -43 -27h-672 q-45 0 -45 27zM506 645h219q119 0 189 82q70 81 70 190q0 111 -66 187q-66 74 -186 74t-163 -21q-63 -29 -63 -117v-395z" />
<glyph unicode="q" horiz-adv-x="1425" d="M57 588q0 262 181 456q201 215 530 216q291 0 462 -190.5t171 -451t-162 -446.5q-182 -211 -514 -254q117 -16 199 -38t200 -85q53 -33 145.5 -33t158 43t65.5 142q0 35 18 35q25 0 25 -35q0 -188 -108.5 -289.5t-236.5 -101.5t-190 73q-193 242 -290 242 q-31 0 -48.5 -16.5t-17.5 -29.5t47 -50t47 -84t-44 -85t-98 -38t-92 40t-38 120q0 120 258 231q-317 0 -492.5 183.5t-175.5 445.5zM348 589q0 -242 92 -399q102 -176 288.5 -176t294 185.5t107.5 428.5t-92 400q-104 178 -289 178t-293 -185q-108 -186 -108 -432z" />
<glyph unicode="r" horiz-adv-x="1329" d="M4 27q0 27 37 26q98 0 160 48t61 147v792q0 70 -53 104t-124.5 34t-72.5 30q0 27 56 27h768q213 0 328.5 -94t115.5 -220t-103.5 -215t-285.5 -90l301 -464q29 -57 82 -78t99 -21q77 0 77 -30q0 -23 -51 -23h-344q-61 0 -88 27q-29 43 -47 69l-304 494h-110v-342 q0 -117 78 -164q51 -31 116.5 -31t65.5 -26q0 -27 -53 -27h-672q-37 0 -37 27zM506 645h139q92 8 127 42t49.5 77t32.5 43t18 -41t-8 -80q51 0 92 77t41 175t-61.5 169t-196.5 71q-233 0 -233 -109v-424z" />
<glyph unicode="s" horiz-adv-x="1150" d="M27 377.5q0 24.5 20 23.5q27 0 49 -45q66 -133 235 -235.5t322 -102.5q178 0 238 146q16 40 16 76q0 127 -241 213l-394 122q-213 90 -213 281q0 141 116 263q140 147 368 147q59 0 117.5 -8.5t123.5 -16.5q45 0 54.5 41t33 41t33.5 -35l135 -356q16 -30 16 -47 q0 -18 -20 -19q-29 0 -49 39q-66 129 -201 217t-266 88q-162 0 -233 -141q-18 -37 -19 -70q0 -117 254 -202q205 -63 410 -125q90 -39 138 -122t48 -183q0 -162 -117.5 -285t-328.5 -123q-47 0 -147.5 14.5t-142.5 14.5t-66.5 -11.5t-32.5 -56.5t-33 -45t-45 57l-164 398 q-14 23 -14 47.5z" />
<glyph unicode="t" horiz-adv-x="1150" d="M-63 963.5q0 17.5 10 37.5l135 302q16 43 33 43q15 0 39 -52q14 -28 64 -43.5t97 -15.5h590q49 0 87 23.5t48 58.5q16 29 26.5 29t31.5 -43l137 -302q16 -37 16 -54t-18.5 -17t-54.5 43q-88 106 -177.5 155.5t-157.5 49.5t-99 -23t-31 -100v-793q0 -125 48 -167t144 -42 q25 0 38 -8t13 -18q0 -27 -51 -27h-643q-47 0 -47 27t47 26q84 0 125 29q66 45 66 166v821q0 68 -20.5 92.5t-48.5 24.5q-148 0 -273 -88q-76 -53 -111 -111q-20 -41 -47 -41q-16 0 -16 17.5z" />
<glyph unicode="u" horiz-adv-x="1329" d="M-8 1210q0 25 37 25h657q45 0 45 -29t-45 -28q-80 0 -133 -27q-72 -37 -72 -111v-725q0 -147 93.5 -232t219.5 -85t215 85t89 247v616q0 232 -193 232q-53 0 -53 32q0 25 53 25h424q37 0 37 -28.5t-37 -28.5q-86 -10 -127 -59.5t-51 -172.5v-616q0 -186 -127 -282.5 t-316.5 -96.5t-339 100t-149.5 264v740q0 68 -40 90t-150 33q-37 0 -37 32z" />
<glyph unicode="v" horiz-adv-x="1234" d="M-59 1204q0 31 45 31h616q63 0 64 -29q0 -28 -60 -28h-4q-131 0 -131 -86q0 -31 23 -76l288 -729l258 700q15 30 15 73q0 42 -36 80t-89 38t-53 28.5t55 28.5h397q41 0 41 -29q0 -28 -45 -28t-104.5 -40t-96.5 -122l-315 -797q10 -16 58 -36.5t48 -32.5t-55 -33 t-91.5 -52.5t-96.5 -93.5q-27 -23 -35 -23q-19 2 -47 81l-412 987q-25 45 -49 90q-55 72 -143 72q-45 0 -45 26z" />
<glyph unicode="w" horiz-adv-x="1644" d="M-51 1206q0 29 51 29h494q41 0 41 -29t-41 -28q-72 -10 -72 -95q0 -41 16 -96l193 -686l164 631l-62 164q-41 82 -102 82q-16 0 -28.5 10t-12.5 22q0 25 41 25h508q45 0 45 -29t-45 -28q-113 0 -113 -111q0 -16 2 -27l207 -753l190 714q11 28 11 72q0 43 -44 74t-91.5 31 t-47.5 24.5t35 32.5h371q61 0 61 -29q0 -28 -51 -28t-108.5 -55.5t-67.5 -106.5l-233 -823q10 -12 54 -38t44 -34q0 -14 -45 -27q-112 -34 -174 -94q-35 -45 -51 -45t-33 59l-234 822l-164 -631q35 -27 63 -47.5t28 -30.5t-37 -20t-96.5 -41t-97.5 -69t-52 -38t-27 41 l-286 1016q-25 72 -61 116.5t-89 45t-53 28.5z" />
<glyph unicode="x" horiz-adv-x="1273" d="M-96 23q0 10 12 20t58 14q121 10 288 205l273 369l-316 438q-31 51 -89 80t-116.5 29t-58.5 26q0 31 45 31h631q57 0 57 -29q0 -28 -53 -28h-4q-100 0 -101 -64q0 -31 33 -74l191 -286l123 178q53 75 53 132.5t-32 85.5t-85 28t-53 28q0 29 61 29h482q41 0 40 -29 q0 -29 -40 -28q-66 -12 -151 -60.5t-151 -130.5l-219 -274l383 -561q65 -96 164 -99q57 0 57 -26.5t-57 -26.5h-657q-37 0 -37 27t37 26q78 0 102 6q55 14 55 58q0 27 -20 61l-246 397l-221 -327q-23 -35 -23 -83t34 -80t114 -32q45 0 45 -26.5t-45 -26.5h-520q-43 0 -43 23 z" />
<glyph unicode="y" horiz-adv-x="1234" d="M-90 1210q0 25 37 25h643q47 0 47 -29t-47 -28q-111 -12 -111 -74q0 -27 27 -76l233 -383l248 383q22 38 22 66q0 41 -46 62q-45 22 -95.5 22t-50.5 28.5t47 28.5h439q47 0 47 -31q0 -26 -47 -26q-88 0 -150.5 -47.5t-112.5 -129.5l-272 -411v-385q0 -78 57.5 -115 t147.5 -37q41 0 41 -26q0 -27 -41 -27h-672q-45 0 -45 27t45 26q205 0 205 166v316l-301 493q-41 76 -100.5 113t-157.5 37q-37 0 -37 32z" />
<glyph unicode="z" horiz-adv-x="1150" d="M6 25q0 12 23 43l710 1083q6 20 -20.5 32.5t-75.5 12.5q-133 0 -292.5 -65.5t-239.5 -184.5q-25 -35 -45 -35q-14 0 -14.5 19.5t1.5 27.5l140 330q16 37 28 37t25 -33q22 -57 110 -57h699q27 0 26 -16q0 -16 -26 -54l-684 -1054q-8 -8 -9 -21q0 -25 47.5 -39t122.5 -14 q168 0 318 63q186 78 260 230q20 45 47 45q16 0 17 -19q-1 -12 -9 -26l-178 -426q-23 -53 -47 -54q-20 0 -20 42t-44.5 75t-121.5 33h-686q-61 0 -62 25z" />
<glyph unicode="{" horiz-adv-x="694" d="M-33 629q137 16 191 106q41 70 41 207q0 52 -6 205q0 164 57 239q78 102 289 103q47 0 106 -6q-129 -27 -176 -121q-33 -68 -33 -207l4 -174q0 -152 -45 -225q-63 -102 -233 -127q170 0 233 -97q47 -72 47 -229l-8 -225q0 -133 37 -201q47 -86 174 -102q-72 -6 -125 -6 q-205 0 -280 106q-55 78 -56 246l11 250q0 129 -39 184q-51 74 -189 74z" />
<glyph unicode="|" horiz-adv-x="645" d="M242 0v1483h194v-1483h-194z" />
<glyph unicode="}" horiz-adv-x="694" d="M49 1483q62 8 139 8q213 0 289 -107q53 -74 53 -245q0 -50 -6 -191q0 -139 39 -207q54 -92 195 -112q-143 -16 -199 -97q-41 -61 -41 -186l8 -215q0 -170 -75 -248q-106 -109 -388 -108q139 14 187 110q35 70 35 224l-4 174q0 152 45 227q61 104 223 119q-164 0 -223 92 q-43 68 -43 221l8 215q0 141 -41 213q-55 96 -201 113z" />
<glyph unicode="~" horiz-adv-x="1290" d="M33 436q82 195 171 273t178 77.5t168 -42.5t128 -66q70 -45 122 -77t106 -32q115 0 222 222l129 -82q-72 -158 -106 -205q-86 -115 -213 -115q-133 0 -326 127q-117 80 -193.5 80t-135 -57.5t-121.5 -184.5z" />
<glyph unicode="&#xa1;" horiz-adv-x="837" d="M236 780.5q0 69.5 48 120.5t133 51t128 -45t43 -114.5t-49.5 -125t-131.5 -55.5t-126.5 49.5t-44.5 119zM258 -402.5q0 95.5 32 268.5t64.5 352t32.5 258t32 79t32 -73t47 -338.5t98 -546.5q0 -88 -53.5 -141.5t-121 -53.5t-115.5 50t-48 145.5z" />
<glyph unicode="&#xa2;" d="M117 760q0 211 141 373.5t373 162.5q128 0 272 -55l96 195q16 47 50 47h47q18 0 18 -15.5t-18 -48.5l-113 -225q78 -70 78 -154q0 -49 -35 -82.5t-82 -33.5t-90 12l-242 -485q90 -33 171 -33q149 0 282 131q23 23 42 22.5t19.5 -20.5t-30.5 -51q-84 -90 -205 -145.5 t-256 -55.5h-62q-29 6 -41 8l-161 -307q-25 -47 -33 -55t-31 -8h-33q-31 0 -30 18q0 16 30 61l162 306q-158 47 -238.5 166.5t-80.5 271.5zM375 897q0 -111 44 -215t113 -166l242 467q-33 43 -33 73t19.5 60.5t19.5 43.5t-22 34q-49 45 -108.5 45t-95.5 -13.5t-82 -59.5 q-97 -95 -97 -269z" />
<glyph unicode="&#xa3;" d="M-2 162q0 115 84 164t201 49q193 0 395 -101q10 37 10 64q0 102 -123 205q-106 82 -211 166h-241q-39 0 -44.5 6t-5.5 26l17 33q12 12 22.5 14.5t59.5 2.5h112q-124 96 -124 258q0 104 51 200.5t127 146.5t164 66.5t194 16.5t184 -11q43 0 69 24t50 50q10 0 27 -26 l178 -420q4 -16 4 -36t-18 -20q-23 0 -52 56q-55 123 -189 229.5t-257 106.5q-35 0 -70 -13q-80 -35 -120.5 -92t-40.5 -125q0 -111 83.5 -226.5t206.5 -184.5h242q72 0 72 -15q0 -6 -6 -18l-17 -33q-16 -16 -96 -16h-129q25 -18 50.5 -81t25.5 -130q0 -164 -142 -256 q128 -64 223 -64t142 52.5t47 110.5t-23.5 92t-64.5 34q-80 0 -80 39q0 33 49 33q14 0 31 -7q78 -27 119 -99.5t41 -180t-64 -203.5q-83 -131 -278 -131q-106 0 -201.5 41t-116.5 90q-57 -41 -138 -63.5t-178.5 -22.5t-174 50t-76.5 149zM47 172q0 -66 78 -115t194.5 -49 t196.5 88q37 41 37 76q0 59 -85 97t-176 38q-181 0 -229 -82q-16 -29 -16 -53z" />
<glyph unicode="&#xa4;" d="M35 816q0 116 40 222.5t118 171.5l-144 144l64 65l145 -145q63 63 168.5 98t226.5 35q246 0 379 -133l146 145l63 -65l-129 -144q72 -72 111 -173t39 -210q0 -241 -166 -407l129 -129l-64 -66l-129 129q-78 -66 -184.5 -102.5t-214.5 -36.5q-227 0 -391 139l-129 -129 l-64 66l129 129q-68 66 -105.5 173t-37.5 223zM176 826q0 -196 125 -342t346 -146t352.5 152.5t131 349t-122 332t-348.5 135.5t-355.5 -142.5t-128.5 -338.5z" />
<glyph unicode="&#xa5;" d="M-6 1401q0 12 15.5 23.5t39.5 11.5h596q59 0 60 -33q0 -33 -60 -33q-100 0 -100 -67q0 -8 4 -29l209 -565l178 548q6 23 6 51q0 62 -135 62q-35 0 -35 29q0 37 51 37h371q66 0 66 -33t-71 -33t-104 -14q-63 -29 -86 -115l-112 -354h178q59 0 82.5 -5t13.5 -28l-16 -31 q-16 -16 -80 -16h-211l-47 -129h258q100 0 100 -19q0 -2 -4 -14l-16 -33q-12 -12 -22.5 -14t-57.5 -2h-291l-16 -47v-291q0 -100 62 -147.5t147 -47.5q49 0 49 -31.5t-49 -31.5h-645q-47 0 -48 31q0 33 48 32q88 0 135 29q76 47 75 166v291l-16 47h-319q-51 0 -64.5 5 t-3.5 28l16 33q14 14 19.5 15t60.5 1h258l-47 129h-217q-37 0 -63.5 4t-26.5 27l16 32q12 12 30 14.5t83 2.5h145l-112 323q-23 88 -90.5 124t-137 36t-69.5 31z" />
<glyph unicode="&#xa6;" horiz-adv-x="436" d="M242 0v1468h178v-1468h-178z" />
<glyph unicode="&#xa7;" d="M68 560q0 159 157 327q-92 102 -92 215q0 147 145.5 257t383.5 109q133 0 251 -34q183 -54 183 -160q0 -35 -35 -59.5t-84 -24.5t-88 32t-51 89q-20 100 -152 100q-106 0 -208.5 -62.5t-102.5 -146.5q0 -55 45 -106q350 -129 555 -246t205 -284t-164 -373 q114 -143 114 -285q0 -174 -175 -282.5t-396 -108.5q-166 0 -290 69.5t-156 204.5q-4 12 -4 37q0 53 42 89t92 36t80.5 -28.5t30.5 -82t-16 -102.5t61.5 -99.5t186.5 -50.5q105 0 213.5 62t107.5 164q0 78 -67.5 151.5t-177.5 112.5q-595 195 -594 480zM260 651 q0 -131 260 -229q199 -74 400 -148q23 -12 34 -12q18 0 19 27q0 111 -181 352.5t-335 241.5q-83 0 -135 -76q-61 -84 -62 -156z" />
<glyph unicode="&#xa8;" horiz-adv-x="952" d="M123 1198q0 55 41 98t111.5 43t110.5 -42t40 -98t-39 -95t-113 -39t-112.5 39t-38.5 94zM510 1198q0 55 41 98t112 43t110.5 -42t39.5 -98t-38.5 -95t-112.5 -39t-113 39t-39 94z" />
<glyph unicode="&#xa9;" horiz-adv-x="1839" d="M94 727q0 309 193 512q217 229 600 229t598 -227q195 -205 194.5 -514t-200.5 -530q-223 -246 -592 -246t-590 244q-203 223 -203 532zM276.5 690q-0.5 -248 159.5 -429t442.5 -181t434 185t151.5 442.5t-139 435.5q-154 199 -416 198q-307 0 -479 -214 q-153 -189 -153.5 -437zM500 741q0 158 111.5 277t318.5 119q143 0 295 -56v-227h-64q0 94 -69.5 152.5t-171 58.5t-180.5 -81t-78.5 -263.5t76 -275.5t190.5 -93q78 0 147.5 41t102.5 107l63 -33q-59 -96 -144 -145.5t-179 -49.5q-164 0 -291 131t-127 338z" />
<glyph unicode="&#xaa;" d="M156 627q0 6 6 18l16 33q10 23 22.5 27t73.5 4h725q88 0 106.5 -4t6.5 -27l-16 -33q-10 -23 -24.5 -28t-55.5 -5h-791q-70 0 -69 15zM258 1027q0 85 107.5 149.5t343.5 64.5v113q0 49 -35 75.5t-76 26.5t-66.5 -17.5t-25.5 -38.5t11 -46t11 -53.5t-33.5 -50t-82.5 -21.5 t-83 22.5t-34 56.5t12 62q31 70 110 104.5t189.5 34.5t203.5 -44t93 -111v-338q0 -45 16.5 -71.5t38.5 -26.5q23 0 38 28.5t42 28.5t27 -23q0 -59 -60.5 -101t-126.5 -42q-144 0 -184 127q-90 -117 -211 -117q-90 0 -157.5 61.5t-67.5 146.5zM483 999q8 -80 82 -79 q51 0 97.5 45.5t46.5 115.5v113q-74 0 -150 -62.5t-76 -132.5z" />
<glyph unicode="&#xab;" horiz-adv-x="661" d="M18 492q0 10 31 40l193 209q33 41 44 41t11 -16t-6 -41l-66 -242l66 -241q10 -31 10 -43t-16 -12.5t-43 38.5l-193 226q-31 31 -31 41zM293 491q0 9 29 41l194 209q33 41 43 41t10 -21t-4 -36l-65 -242l65 -241q10 -31 10 -43t-16 -12.5t-43 38.5l-194 226q-29 31 -29 40 z" />
<glyph unicode="&#xac;" horiz-adv-x="1290" d="M63 709v178h1162v-596h-176v418h-986z" />
<glyph unicode="&#xad;" horiz-adv-x="516" d="M16 371l97 209h419l-96 -209h-420z" />
<glyph unicode="&#xae;" horiz-adv-x="1839" d="M114.5 743.5q0.5 315.5 198.5 522.5q226 233 617 233t606 -221q190 -197 190 -511.5t-215 -553.5q-236 -262 -603 -262t-591 250q-203 227 -202.5 542.5zM278.5 719q0.5 -262 165.5 -440q186 -199 505.5 -199t490 181t170.5 443t-180 464t-490.5 202t-495.5 -205 q-166 -184 -165.5 -446zM565 322v65q51 12 65.5 32.5t14.5 80.5v499q0 49 -2 58q-10 39 -78 39v65h451q113 0 177 -60t64 -142.5t-54 -146.5t-154 -87q63 -20 182 -256q49 -96 92 -82v-65h-98q-137 0 -205 180t-146 180q-8 0 -36 -4v-207q0 -37 14 -56.5t68 -27.5v-65h-355z M838 758q143 0 194 57q35 39 34 90.5t-1 61.5q0 55 -49 90t-96.5 35t-81.5 -11v-323z" />
<glyph unicode="&#xb4;" horiz-adv-x="774" d="M143 1100q0 16 35 61l209 258q35 43 90 43t108.5 -57t53.5 -117q0 -74 -90 -94l-307 -98q-99 -32 -99 4z" />
<glyph unicode="&#xb6;" d="M-92 1094.5q0 152.5 138 255t405 102.5h806q55 0 56 -35q0 -31 -56 -31q-106 0 -141 -65q-20 -39 -20 -127v-1372q12 -113 48 -145t130 -31q49 0 49 -33t-49 -33h-338v1743q12 72 -43 72q-20 0 -37.5 -19.5t-17.5 -52.5v-1743h-338q-47 0 -47 33t47 33h30q70 0 101 24 q47 39 47 152v872h-211q-252 0 -405.5 124t-153.5 276.5zM213 1079.5q0 -120.5 67.5 -221t186.5 -100.5h211v436q0 90 -48 147t-151 58q-158 0 -221 -116q-45 -83 -45 -203.5z" />
<glyph unicode="&#xb7;" horiz-adv-x="1144" d="M133 578.5q0 68.5 47 124t124 55.5t118 -49.5t41 -118t-44 -119.5t-124 -51t-121 45t-41 113.5z" />
<glyph unicode="&#xb8;" horiz-adv-x="708" d="M147 -324q0 20 27 21q6 0 19 -4q61 -31 109 -31t74.5 20.5t26.5 53.5t-39.5 59.5t-121.5 26.5v178h96v-145q38 12 97 12t96.5 -34t37.5 -88t-51 -94t-149 -40q-90 0 -191 35q-31 10 -31 30z" />
<glyph unicode="&#xba;" d="M145 629l17 49q12 12 20 14t43 2h791q63 0 79.5 -2t16.5 -14l-16 -49q-10 -25 -20.5 -29t-59.5 -4h-791q-43 0 -61.5 5t-18.5 28zM211 1122q0 141 107.5 251t290.5 110t285.5 -104.5t102.5 -245.5t-104.5 -241.5t-293.5 -100.5t-288.5 95t-99.5 236zM426 1136.5 q0 -114.5 51 -198.5t143.5 -84t143.5 83t51 200t-48 199.5t-140 82.5t-146.5 -84t-54.5 -198.5z" />
<glyph unicode="&#xbb;" horiz-adv-x="661" d="M76 205q0 12 4 37l82 258l-66 225q-6 25 -6 41t10 16q16 0 45 -41l177 -192q31 -31 30.5 -49.5t-30.5 -48.5l-193 -226q-20 -33 -41 -32q-12 0 -12 12zM350 205q0 12 4 37l82 258l-65 225q-6 25 -6 41t10 16q16 0 45 -41l176 -192q31 -31 31 -49t-31 -49l-193 -226 q-20 -33 -41 -32q-12 0 -12 12z" />
<glyph unicode="&#xbf;" horiz-adv-x="1306" d="M90 -238q0 119 83 224.5t223.5 156t220 128t79.5 173.5q-2 14 -5 32t8.5 35t29.5 17q45 0 45 -61q0 -178 -86 -291l-164 -168q-88 -102 -88 -240.5t94.5 -232.5t229.5 -94q158 0 289 139q51 55 51 108.5t-23.5 83t-50.5 29.5q-37 0 -37 -59q0 -18 10 -64 q-129 93 -129 201q0 70 54.5 120t133.5 50t129 -60.5t50 -152.5q0 -166 -141 -295q-168 -154 -445.5 -153.5t-419 108.5t-141.5 266zM557 747.5q0 69.5 48 121t133 51.5t128 -45.5t43 -115t-49 -124.5t-131 -55t-127 49t-45 118.5z" />
<glyph unicode="&#xc0;" horiz-adv-x="1452" d="M-168 29q0 35 55 34q90 0 166 63.5t125 195.5l371 952q-25 49 -72 49t-47 19t66 49q149 68 213 141q20 20 32 31.5t23 11.5q18 0 27 -43l450 -1307q35 -82 113 -122t178 -40q59 0 59 -31.5t-59 -31.5h-807q-59 0 -59 32t66.5 31.5t119.5 22.5q76 33 76 96q0 20 -8 43 l-97 324h-485l-96 -275q-10 -29 -11 -63q0 -68 53.5 -108t107.5 -40t54 -31.5t-59 -31.5h-500q-55 0 -55 29zM354 612h453l-211 629zM522 1804.5q0 62.5 48 123.5t95.5 61t75.5 -37l242 -291q27 -33 27 -47t-16 -14q-21 -1 -74 12l-340 114q-58 16 -58 78.5z" />
<glyph unicode="&#xc1;" horiz-adv-x="1452" d="M-168 29q0 35 55 34q90 0 166 63.5t125 195.5l371 952q-25 49 -72 49t-47 19t66 49q149 68 213 141q20 20 32 31.5t23 11.5q18 0 27 -43l450 -1307q35 -82 113 -122t178 -40q59 0 59 -31.5t-59 -31.5h-807q-59 0 -59 32t66.5 31.5t119.5 22.5q76 33 76 96q0 20 -8 43 l-97 324h-485l-96 -275q-10 -29 -11 -63q0 -68 53.5 -108t107.5 -40t54 -31.5t-59 -31.5h-500q-55 0 -55 29zM354 612h453l-211 629zM481 1631q0 17 35 63l209 258q35 43 90 43t108.5 -57.5t53.5 -116.5q0 -75 -90 -95l-307 -98q-43 -14 -71 -14t-28 17z" />
<glyph unicode="&#xc2;" horiz-adv-x="1452" d="M-168 29q0 35 55 34q90 0 166 63.5t125 195.5l371 952q-25 49 -72 49t-47 19t66 49q149 68 213 141q20 20 32 31.5t23 11.5q18 0 27 -43l450 -1307q35 -82 113 -122t178 -40q59 0 59 -31.5t-59 -31.5h-807q-59 0 -59 32t66.5 31.5t119.5 22.5q76 33 76 96q0 20 -8 43 l-97 324h-485l-96 -275q-10 -29 -11 -63q0 -68 53.5 -108t107.5 -40t54 -31.5t-59 -31.5h-500q-55 0 -55 29zM301 1592q0 15 37 53l324 323q39 35 48 35t48 -35l323 -340q33 -33 33 -46t-15 -13t-67 28l-323 177l-338 -177q-41 -20 -55.5 -20t-14.5 15zM354 612h453 l-211 629z" />
<glyph unicode="&#xc3;" horiz-adv-x="1452" d="M-168 29q0 35 55 34q90 0 166 63.5t125 195.5l371 952q-25 49 -72 49t-47 19t66 49q149 68 213 141q20 20 32 31.5t23 11.5q18 0 27 -43l450 -1307q35 -82 113 -122t178 -40q59 0 59 -31.5t-59 -31.5h-807q-59 0 -59 32t66.5 31.5t119.5 22.5q76 33 76 96q0 20 -8 43 l-97 324h-485l-96 -275q-10 -29 -11 -63q0 -68 53.5 -108t107.5 -40t54 -31.5t-59 -31.5h-500q-55 0 -55 29zM354 612h453l-211 629zM395.5 1662q-0.5 28 40.5 79q82 119 211 119q55 0 109 -20q150 -58 183.5 -58t76.5 24q35 25 59 25q25 0 25 -21q-1 -13 -19 -36 q-35 -57 -113.5 -106.5t-174.5 -49.5q-47 0 -81 9t-95.5 36t-91.5 27t-58 -29q-33 -27 -52 -27t-19.5 28z" />
<glyph unicode="&#xc4;" horiz-adv-x="1452" d="M-152 29q0 12 15.5 23t40.5 11q88 0 164.5 65t124.5 194l372 952q-25 49 -71.5 49t-47.5 20q0 18 66 48q147 67 213 141l29 29q16 14 26 14q18 0 27 -43l450 -1307q35 -82 113 -122t178 -40q59 0 60 -32q-1 -31 -60 -31h-807q-59 0 -59 32t66.5 31.5t119.5 22.5 q76 33 76 96q0 20 -8 43l-98 324h-484l-96 -275q-10 -29 -10 -63q0 -68 53 -108t107 -40t55 -32q0 -31 -60 -31h-499q-55 0 -56 29zM371 612h452l-211 629zM397 1729.5q0 54.5 41 97.5t112 43t110.5 -42t39.5 -97t-38.5 -94.5t-112.5 -39.5t-113 39t-39 93.5zM784 1725 q0 54 43 99.5t111.5 45.5t108.5 -40t40 -95t-38.5 -96.5t-112.5 -41.5t-113 37t-39 91z" />
<glyph unicode="&#xc5;" horiz-adv-x="1452" d="M-168 29q0 35 55 34q90 0 166 63.5t125 195.5l371 952q-25 49 -72 49t-47 19t66 49q149 68 213 141q20 20 32 31.5t23 11.5q18 0 27 -43l450 -1307q35 -82 113 -122t178 -40q59 0 59 -31.5t-59 -31.5h-807q-59 0 -59 32t66.5 31.5t119.5 22.5q76 33 76 96q0 20 -8 43 l-97 324h-485l-96 -275q-10 -29 -11 -63q0 -68 53.5 -108t107.5 -40t54 -31.5t-59 -31.5h-500q-55 0 -55 29zM354 612h453l-211 629zM520 1791q0 79 53 136t152 58q98 0 152.5 -56.5t54.5 -137.5t-54.5 -137.5t-152.5 -56.5t-151.5 57.5t-53.5 136.5zM604 1784q0 -45 31 -76 t91 -31t90 30t30 77t-33 83t-88 36t-88 -37t-33 -82z" />
<glyph unicode="&#xc6;" horiz-adv-x="2322" d="M-139 29q0 35 43 34q109 10 231 107q86 66 172 168l774 1081q23 23 39.5 28t57.5 5h596q150 0 194 64q34 62 64 -17l161 -387q4 -8 4.5 -30t-18.5 -21q-16 0 -35 35q-59 121 -232 205.5t-347 84.5q-53 0 -116 -44.5t-63 -131.5v-419h226q133 0 195 79t63 179 q0 41 24.5 41t24.5 -41v-582q0 -47 -25 -47t-24 47q0 104 -49 170q-66 88 -209 88h-226v-483q0 -88 69 -136.5t200 -48.5t296 89t275 257q33 56 62 56q14 0 14 -19t-12 -37l-226 -499q-29 -57 -43 -58q-10 0 -21 42t-75.5 77t-118.5 35h-952q-47 0 -47 32t47 31 q242 0 242 211v435h-451l-258 -371q-51 -82 -51 -141t48 -96.5t123 -37.5t75 -34q0 -29 -66 -29h-612q-43 0 -43 29zM694 774h402v565z" />
<glyph unicode="&#xc7;" horiz-adv-x="1499" d="M53.5 751.5q-0.5 284.5 186.5 495.5q209 236 567 236q74 0 159 -18.5t177 -37.5q42 0 32.5 48t24 48.5t41.5 -40.5l129 -418q8 -23 8 -43.5t-18 -20.5q-29 0 -53 48q-92 182 -246 286q-123 84 -254 84q-193 0 -314 -218t-120 -503q0 -285 116 -469q135 -213 381 -213 q139 0 275.5 82t193.5 240q14 41 43.5 41t28.5 -27q0 -14 -8 -30q-86 -211 -260 -299q-127 -63 -309 -64q-63 0 -94.5 4t-45.5 4v-112q55 18 109 18t93.5 -36t39.5 -90t-56.5 -97t-149.5 -43t-181 22q-41 10 -41 34t26.5 24t60.5 -14.5t75 -14.5t62.5 23.5t21.5 55.5 t-23.5 57.5t-55.5 25.5t-63 -13v177q-264 59 -411 271t-147.5 496.5z" />
<glyph unicode="&#xc8;" horiz-adv-x="1452" d="M-29 31q0 33 62 32h33q84 0 127 29q66 45 65 166v936q2 18 2 27q0 165 -211 165q-61 0 -61 33t61 33h887q70 0 110.5 13.5t67.5 51t45 37.5q29 0 51 -71l144 -371q8 -23 8 -39q0 -27 -21 -26q-35 0 -67 65q-43 100 -201 189.5t-305 89.5h-31q-20 -4 -28 -5 q-76 -12 -110 -47.5t-34 -128.5v-403h242q109 0 159 76t50 166q0 53 33 53t32 -53v-582q0 -47 -32 -47q-33 0 -33 47q0 119 -52 196.5t-157 77.5h-242v-483q0 -113 72 -162t184 -49q91 0 211 33q218 73 338 323q25 45 49 45.5t25 -24.5q0 -19 -8 -37l-226 -500 q-23 -61 -49 -61q-20 0 -33 45q-10 63 -110 96t-195 33h-790q-61 0 -62 31zM473 1821.5q0 64.5 48 124t96.5 59.5t76.5 -37l242 -291q27 -35 27 -49t-17.5 -14t-40 6t-35.5 8l-338 113q-59 16 -59 80.5z" />
<glyph unicode="&#xc9;" horiz-adv-x="1452" d="M-29 31q0 33 62 32h33q84 0 127 29q66 45 65 166v936q2 18 2 27q0 165 -211 165q-61 0 -61 33t61 33h887q70 0 110.5 13.5t67.5 51t45 37.5q29 0 51 -71l144 -371q8 -23 8 -39q0 -27 -21 -26q-35 0 -67 65q-43 100 -201 189.5t-305 89.5h-31q-20 -4 -28 -5 q-76 -12 -110 -47.5t-34 -128.5v-403h242q109 0 159 76t50 166q0 53 33 53t32 -53v-582q0 -47 -32 -47q-33 0 -33 47q0 119 -52 196.5t-157 77.5h-242v-483q0 -113 72 -162t184 -49q91 0 211 33q218 73 338 323q25 45 49 45.5t25 -24.5q0 -19 -8 -37l-226 -500 q-23 -61 -49 -61q-20 0 -33 45q-10 63 -110 96t-195 33h-790q-61 0 -62 31zM481 1631q0 17 35 63l209 258q35 43 90 43t108.5 -57.5t53.5 -116.5q0 -75 -90 -95l-307 -98q-43 -14 -71 -14t-28 17z" />
<glyph unicode="&#xca;" horiz-adv-x="1452" d="M-29 31q0 33 62 32h33q84 0 127 29q66 45 65 166v936q2 18 2 27q0 165 -211 165q-61 0 -61 33t61 33h887q70 0 110.5 13.5t67.5 51t45 37.5q29 0 51 -71l144 -371q8 -23 8 -39q0 -27 -21 -26q-35 0 -67 65q-43 100 -201 189.5t-305 89.5h-31q-20 -4 -28 -5 q-76 -12 -110 -47.5t-34 -128.5v-403h242q109 0 159 76t50 166q0 53 33 53t32 -53v-582q0 -47 -32 -47q-33 0 -33 47q0 119 -52 196.5t-157 77.5h-242v-483q0 -113 72 -162t184 -49q91 0 211 33q218 73 338 323q25 45 49 45.5t25 -24.5q0 -19 -8 -37l-226 -500 q-23 -61 -49 -61q-20 0 -33 45q-10 63 -110 96t-195 33h-790q-61 0 -62 31zM317.5 1592q-0.5 15 36.5 53l324 323q39 35 48 35t48 -35l322 -340q35 -33 34 -51q0 -12 -21.5 -8t-59.5 28l-324 177l-338 -177q-41 -20 -55 -20t-14.5 15z" />
<glyph unicode="&#xcb;" horiz-adv-x="1452" d="M-29 31q0 33 62 32h33q84 0 127 29q66 45 65 166v936q2 18 2 27q0 165 -211 165q-61 0 -61 33t61 33h887q70 0 110.5 13.5t67.5 51t45 37.5q29 0 51 -71l144 -371q8 -23 8 -39q0 -27 -21 -26q-35 0 -67 65q-43 100 -201 189.5t-305 89.5h-31q-20 -4 -28 -5 q-76 -12 -110 -47.5t-34 -128.5v-403h242q109 0 159 76t50 166q0 53 33 53t32 -53v-582q0 -47 -32 -47q-33 0 -33 47q0 119 -52 196.5t-157 77.5h-242v-483q0 -113 72 -162t184 -49q91 0 211 33q218 73 338 323q25 45 49 45.5t25 -24.5q0 -19 -8 -37l-226 -500 q-23 -61 -49 -61q-20 0 -33 45q-10 63 -110 96t-195 33h-790q-61 0 -62 31zM381 1745q0 55 41 98t111.5 43t110.5 -42t40 -98t-39 -95t-113 -39t-112.5 39t-38.5 94zM768 1741q0 55 42 100t111.5 45t109.5 -40t40 -96t-38.5 -97t-112.5 -41t-113 37t-39 92z" />
<glyph unicode="&#xcc;" horiz-adv-x="903" d="M16 1419q0 33 47 33h760q59 0 60 -33q-1 -33 -60 -33q-227 0 -227 -145v-999q10 -111 74 -150q45 -29 127 -29t82 -31.5t-72 -31.5h-711q-66 0 -65 29q0 35 77 35q199 -2 199 194v983q0 88 -67 121q-51 25 -177 24q-47 0 -47 33zM199 1806q0 63 48 123t96 60t77 -37 l242 -291q27 -35 26.5 -48t-16.5 -13q-23 -1 -76 12l-338 114q-59 16 -59 80z" />
<glyph unicode="&#xcd;" horiz-adv-x="903" d="M16 1419q0 33 47 33h760q59 0 60 -33q-1 -33 -60 -33q-227 0 -227 -145v-999q10 -111 74 -150q45 -29 127 -29t82 -31.5t-72 -31.5h-711q-66 0 -65 29q0 35 77 35q199 -2 199 194v983q0 88 -67 121q-51 25 -177 24q-47 0 -47 33zM239.5 1631q0.5 17 34.5 63l209 258 q35 43 90 43t108.5 -57.5t53.5 -116.5q0 -75 -90 -95l-307 -98q-43 -14 -71 -14t-27.5 17z" />
<glyph unicode="&#xce;" horiz-adv-x="903" d="M16 1419q0 33 47 33h760q59 0 60 -33q-1 -33 -60 -33q-227 0 -227 -145v-999q10 -111 74 -150q45 -29 127 -29t82 -31.5t-72 -31.5h-711q-66 0 -65 29q0 35 77 35q199 -2 199 194v983q0 88 -67 121q-51 25 -177 24q-47 0 -47 33zM59.5 1592q-0.5 15 36.5 53l324 323 q39 35 48 35t48 -35l322 -340q35 -33 34 -51q0 -12 -21.5 -8t-59.5 28l-324 177l-338 -177q-41 -20 -55 -20t-14.5 15z" />
<glyph unicode="&#xcf;" horiz-adv-x="903" d="M16 1419q0 33 47 33h760q59 0 60 -33q-1 -33 -60 -33q-227 0 -227 -145v-999q10 -111 74 -150q45 -29 127 -29t82 -31.5t-72 -31.5h-711q-66 0 -65 29q0 35 77 35q199 -2 199 194v983q0 88 -67 121q-51 25 -177 24q-47 0 -47 33zM106 1745q0 55 41 98t112 43t111 -42 t40 -98t-39 -95t-113 -39t-113 39t-39 94zM494 1741q0 55 42 100t111 45t109.5 -40t40.5 -96t-39 -97t-113 -41t-112.5 37t-38.5 92z" />
<glyph unicode="&#xd0;" horiz-adv-x="2048" />
<glyph unicode="&#xd1;" horiz-adv-x="1564" d="M-29 31q0 33 62 32q109 0 159 68.5t50 159.5v934q0 88 -61.5 125t-147.5 36q-25 0 -43.5 12.5t-18.5 24.5q0 29 62 29h532q70 0 70 -51q-6 -35 -6 -47l612 -1047v805q0 150 -62.5 212t-179.5 62q-47 0 -47 33t47 33h500q63 0 64 -31q0 -12 -14.5 -23.5t-32.5 -11.5 q-94 -16 -142 -63q-68 -68 -67 -211v-870q23 -23 74 -45.5t51 -34.5t-50.5 -34t-113 -60.5t-90.5 -67.5q-18 -25 -30.5 -40t-25.5 -15q-18 0 -41 39l-774 1323v-1016q0 -123 54.5 -175t129.5 -52.5t74 -34.5q0 -29 -65 -29h-467q-61 0 -62 31zM444.5 1664q-0.5 30 38.5 77 q86 119 213 119q55 0 108.5 -20.5t102.5 -39t82 -18.5t76 24q35 25 59.5 25t24.5 -21q-1 -16 -21 -36q-33 -59 -111.5 -107.5t-174.5 -48.5q-47 0 -81 9t-95.5 36t-91 27t-58.5 -29q-33 -27 -52 -27t-19.5 30z" />
<glyph unicode="&#xd2;" horiz-adv-x="1710" d="M78 823q0 287 176 469q201 207 584.5 207t607.5 -235q199 -209 199 -525q0 -315 -193 -540q-211 -248 -561 -248t-581.5 268t-231.5 604zM358 749.5q0 -292.5 129 -499.5q146 -234 400 -234q227 0 354 197q113 176 113 465.5t-145.5 531.5t-375 242t-358.5 -215 q-117 -195 -117 -487.5zM602.5 1821.5q-0.5 64.5 47.5 124t96.5 59.5t76.5 -37l242 -291q27 -35 27 -49t-17.5 -14t-40 6t-35.5 8l-337 113q-59 16 -59.5 80.5z" />
<glyph unicode="&#xd3;" horiz-adv-x="1710" d="M78 823q0 287 176 469q201 207 584.5 207t607.5 -235q199 -209 199 -525q0 -315 -193 -540q-211 -248 -561 -248t-581.5 268t-231.5 604zM358 749.5q0 -292.5 129 -499.5q146 -234 400 -234q227 0 354 197q113 176 113 465.5t-145.5 531.5t-375 242t-358.5 -215 q-117 -195 -117 -487.5zM563 1633q0 19 33 61l211 258q35 43 89 43t107.5 -57.5t53.5 -116.5q0 -75 -90 -95l-305 -98q-43 -14 -71 -14t-28 19z" />
<glyph unicode="&#xd4;" horiz-adv-x="1710" d="M78 823q0 287 176 469q201 207 584.5 207t607.5 -235q199 -209 199 -525q0 -315 -193 -540q-211 -248 -561 -248t-581.5 268t-231.5 604zM358 749.5q0 -292.5 129 -499.5q146 -234 400 -234q227 0 354 197q113 176 113 465.5t-145.5 531.5t-375 242t-358.5 -215 q-117 -195 -117 -487.5zM460 1610q-39 0 23 67l324 322q37 37 48 37t48 -37l322 -338q35 -33 35 -51q0 -28 -82 18l-324 178l-338 -178q-37 -18 -56 -18z" />
<glyph unicode="&#xd5;" horiz-adv-x="1710" d="M78 823q0 287 176 469q201 207 584.5 207t607.5 -235q199 -209 199 -525q0 -315 -193 -540q-211 -248 -561 -248t-581.5 268t-231.5 604zM358 749.5q0 -292.5 129 -499.5q146 -234 400 -234q227 0 354 197q113 176 113 465.5t-145.5 531.5t-375 242t-358.5 -215 q-117 -195 -117 -487.5zM524.5 1695q-0.5 28 40.5 79q82 119 211 118q49 0 106 -22q145 -55 182.5 -55t80.5 24q31 23 57 23q52 0 8 -56q-35 -57 -113.5 -107t-172.5 -50q-39 0 -73 9t-103.5 35.5t-97.5 26.5t-54 -26q-33 -27 -52 -27t-19.5 28z" />
<glyph unicode="&#xd6;" horiz-adv-x="1710" d="M78 823q0 287 176 469q201 207 584.5 207t607.5 -235q199 -209 199 -525q0 -315 -193 -540q-211 -248 -561 -248t-581.5 268t-231.5 604zM358 749.5q0 -292.5 129 -499.5q146 -234 400 -234q227 0 354 197q113 176 113 465.5t-145.5 531.5t-375 242t-358.5 -215 q-117 -195 -117 -487.5zM494 1761q0 55 40.5 98.5t111.5 43.5t111 -42t40 -98.5t-39 -95.5t-113 -39t-112.5 39t-38.5 94zM881 1757q0 55 42 100.5t111 45.5t109.5 -40t40.5 -96.5t-39 -97.5t-113 -41t-112.5 37t-38.5 92z" />
<glyph unicode="&#xd7;" horiz-adv-x="2048" />
<glyph unicode="&#xd8;" horiz-adv-x="1710" d="M66 725q0 317 192 545q211 250 549 250q190 0 403 -84l80 145q25 47 49 47h31q53 0 53 -26q0 -19 -20 -54l-96 -162q174 -109 262 -277.5t88 -363.5q0 -313 -201 -540q-219 -248 -557 -248q-181 0 -383 76l-80 -146q-8 -14 -17 -31.5t-32 -17.5h-65q-25 0 -25 17 q0 8 10 32l113 193q-176 98 -265 271t-89 374zM402 777q-1 -357 98 -568l645 1130q-82 111 -264 111q-139 0 -260 -77t-170 -228q-49 -182 -49 -368zM565 113q125 -82 269 -82q298 0 407 243q78 170 78 459q0 279 -94 508z" />
<glyph unicode="&#xd9;" horiz-adv-x="1564" d="M-43 1440q0 29 43 28h774q53 0 53 -32.5t-53 -32.5q-94 0 -156 -31q-86 -43 -86 -131v-854q0 -174 109.5 -273t257.5 -100q147 0 253 100.5t105 288.5v725q0 275 -225 275q-25 0 -43 12t-18 25q0 29 61 28h500q43 0 43 -28q0 -14 -11.5 -25.5t-31.5 -11.5 q-98 -12 -147.5 -72.5t-61.5 -202.5v-725q0 -217 -160 -337q-141 -106 -363 -106.5t-398 117.5t-177 310v870q0 80 -46 106t-179 40q-43 0 -43 37zM506 1853q0 63 48 123t95 60t76 -37l242 -289q27 -33 26 -49q0 -14 -16 -14q-30 0 -74 14l-338 113q-59 16 -59 79z" />
<glyph unicode="&#xda;" horiz-adv-x="1564" d="M-10 1423q0 29 43 29h774q53 0 53 -33t-53 -33q-96 0 -158 -30q-84 -43 -84 -131v-854q0 -174 109.5 -273.5t257.5 -99.5q147 0 253 100t105 289v725q0 276 -225 274q-25 0 -43 12.5t-18 24.5q0 29 61 29h500q41 0 41 -29q0 -14 -11.5 -25.5t-29.5 -11.5 q-100 -12 -149.5 -72.5t-61.5 -201.5v-725q0 -219 -149.5 -331.5t-371.5 -112.5t-398.5 117.5t-176.5 310.5v870q0 80 -46 105.5t-179 39.5q-43 0 -43 37zM596 1633q0 19 33 61l209 258q35 43 90 43t108.5 -57.5t53.5 -116.5q-1 -75 -91 -95l-305 -98q-43 -14 -70.5 -14 t-27.5 19z" />
<glyph unicode="&#xdb;" horiz-adv-x="1564" d="M-10 1423q0 29 43 29h774q53 0 53 -33t-53 -33q-96 0 -158 -30q-84 -43 -84 -131v-854q0 -174 109.5 -273.5t257.5 -99.5q147 0 253 100t105 289v725q0 276 -225 274q-25 0 -43 12.5t-18 24.5q0 29 61 29h500q41 0 41 -29q0 -14 -11.5 -25.5t-29.5 -11.5 q-100 -12 -149.5 -72.5t-61.5 -201.5v-725q0 -219 -149.5 -331.5t-371.5 -112.5t-398.5 117.5t-176.5 310.5v870q0 80 -46 105.5t-179 39.5q-43 0 -43 37zM383 1612.5q8 19.5 37 48.5l321 324q39 35 50.5 34.5t46.5 -34.5l323 -340q35 -35 35 -52q0 -12 -22.5 -8t-61.5 27 l-321 178l-340 -178q-37 -18 -58 -19q-18 0 -10 19.5z" />
<glyph unicode="&#xdc;" horiz-adv-x="1564" d="M-10 1423q0 29 43 29h774q53 0 53 -33t-53 -33q-96 0 -158 -30q-84 -43 -84 -131v-854q0 -174 109.5 -273.5t257.5 -99.5q147 0 253 100t105 289v725q0 276 -225 274q-25 0 -43 12.5t-18 24.5q0 29 61 29h500q41 0 41 -29q0 -14 -11.5 -25.5t-29.5 -11.5 q-100 -12 -149.5 -72.5t-61.5 -201.5v-725q0 -219 -149.5 -331.5t-371.5 -112.5t-398.5 117.5t-176.5 310.5v870q0 80 -46 105.5t-179 39.5q-43 0 -43 37zM444 1761q0 55 41 98.5t112 43.5t111 -42t40 -98.5t-39 -95.5t-113 -39t-113 39t-39 94zM831 1757q0 55 42 100.5 t111.5 45.5t110 -40t40.5 -96.5t-39 -97.5t-113 -41t-113 37t-39 92z" />
<glyph unicode="&#xdd;" horiz-adv-x="1452" d="M-106 1423q0 29 43 29h757q53 0 54 -35q0 -31 -54 -31q-129 -16 -129 -86q0 -35 31 -90l274 -452l291 452q25 39 25 82t-52.5 68.5t-111.5 25.5t-59 33t53 33h516q55 0 55 -33t-55 -33q-185 0 -307 -208l-322 -484v-452q0 -92 67.5 -135.5t174.5 -43.5q49 0 49 -31.5 t-49 -31.5h-791q-53 0 -53 29q0 12 15.5 23t37.5 11q242 0 242 195v371l-354 581q-51 92 -119 134t-186 42q-43 0 -43 37zM856 1541q0 17 35 63l209 258q35 43 90 43t108.5 -57.5t53.5 -116.5q0 -75 -90 -95l-308 -98q-43 -14 -70.5 -14t-27.5 17z" />
<glyph unicode="&#xde;" horiz-adv-x="2048" />
<glyph unicode="&#xdf;" horiz-adv-x="1386" d="M-47 32q0 32 47 31q100 0 146.5 59.5t46.5 151.5v725q0 215 151.5 357.5t429.5 142.5q207 0 336 -108.5t129 -251.5q0 -115 -91 -198t-278 -103q223 -33 335.5 -152t113 -284.5t-129.5 -300t-318.5 -134.5t-276.5 82t-88 187.5t60.5 176t152.5 70.5t143 -58t51 -123.5 t-34.5 -106.5t-98.5 -41q-29 0 -55 8q45 45 45 80q0 51 -76 51q-39 0 -68.5 -16.5t-30.5 -42t-1 -33.5q0 -74 50 -118t133 -44t159 85t76 247q0 260 -130 361q-77 61 -140.5 61t-63.5 -50.5t-21 -50.5q-8 0 -28 17l-97 114q-31 29 -30 45q0 10 20 11l115 -15q129 0 237.5 89 t108.5 241q0 111 -70.5 177.5t-176.5 66.5t-187.5 -95t-81.5 -278v-872q0 -106 -25 -149.5t-104 -43.5h-338q-47 0 -47 32z" />
<glyph unicode="&#xe0;" horiz-adv-x="1234" d="M-143 27q0 27 61.5 26.5t127 55t106.5 163.5l315 811q-23 41 -62.5 41t-39.5 17.5t57 41.5q114 49 180 120q36 36 48.5 36t21.5 -36l383 -1110q31 -68 97.5 -104t150.5 -36q25 0 38 -8t13 -18q0 -27 -51 -27h-687q-51 0 -51 27t67.5 26.5t111.5 29.5t44 73q0 14 -6 37 l-82 274h-413l-82 -234q-8 -24 -8 -53q0 -59 43 -93t79 -34q62 0 62 -26.5t-51 -26.5h-426q-47 0 -47 27zM301 520h385l-180 535zM444 1535q0 52 41 103.5t81 51.5t65 -31l205 -248q23 -29 22 -41q0 -10 -16 -10q-18 0 -60 10l-288 98q-50 15 -50 67z" />
<glyph unicode="&#xe1;" horiz-adv-x="1234" d="M-143 27q0 27 61.5 26.5t127 55t106.5 163.5l315 811q-23 41 -62.5 41t-39.5 17.5t57 41.5q114 49 180 120q36 36 48.5 36t21.5 -36l383 -1110q31 -68 97.5 -104t150.5 -36q25 0 38 -8t13 -18q0 -27 -51 -27h-687q-51 0 -51 27t67.5 26.5t111.5 29.5t44 73q0 14 -6 37 l-82 274h-413l-82 -234q-8 -24 -8 -53q0 -59 43 -93t79 -34q62 0 62 -26.5t-51 -26.5h-426q-47 0 -47 27zM301 520h385l-180 535zM410 1386q0 14 28 54l178 219q29 37 76 37t92 -49.5t45 -100.5q0 -63 -75 -78l-260 -84q-41 -12 -63 -12t-21 14z" />
<glyph unicode="&#xe2;" horiz-adv-x="1234" d="M-143 27q0 27 61.5 26.5t127 55t106.5 163.5l315 811q-23 41 -62.5 41t-39.5 17.5t57 41.5q114 49 180 120q36 36 48.5 36t21.5 -36l383 -1110q31 -68 97.5 -104t150.5 -36q25 0 38 -8t13 -18q0 -27 -51 -27h-687q-51 0 -51 27t67.5 26.5t111.5 29.5t44 73q0 14 -6 37 l-82 274h-413l-82 -234q-8 -24 -8 -53q0 -59 43 -93t79 -34q62 0 62 -26.5t-51 -26.5h-426q-47 0 -47 27zM259 1358.5q7 17.5 28 40.5l276 274q33 29 41 29t41 -29l275 -289q29 -33 28 -43q0 -10 -20.5 -6t-50.5 23l-275 149l-287 -149q-34 -17 -48.5 -17t-7.5 17.5z M301 520h385l-180 535z" />
<glyph unicode="&#xe3;" horiz-adv-x="1234" d="M-143 27q0 27 61.5 26.5t127 55t106.5 163.5l315 811q-23 41 -62.5 41t-39.5 17.5t57 41.5q114 49 180 120q36 36 48.5 36t21.5 -36l383 -1110q31 -68 97.5 -104t150.5 -36q25 0 38 -8t13 -18q0 -27 -51 -27h-687q-51 0 -51 27t67.5 26.5t111.5 29.5t44 73q0 14 -6 37 l-82 274h-413l-82 -234q-8 -24 -8 -53q0 -59 43 -93t79 -34q62 0 62 -26.5t-51 -26.5h-426q-47 0 -47 27zM301 520h385l-180 535zM338 1414.5q0 25.5 33 66.5q70 100 178 100q47 0 93 -17q125 -48 156.5 -48t63 20t53 20t21.5 -18q0 -11 -16 -31q-31 -47 -98 -90t-146 -43 q-57 0 -130 30.5t-99.5 31t-49.5 -24.5q-29 -23 -45 -22q-14 0 -14 25.5z" />
<glyph unicode="&#xe4;" horiz-adv-x="1234" d="M-129 27q0 27 61.5 26.5t127 54t104.5 164.5l317 811q-23 41 -62.5 41t-39.5 17.5t57 42.5q123 54 180 119q36 36 49 36t21 -36l383 -1110q29 -70 95.5 -105t152.5 -35q25 0 38 -8t13 -18q0 -27 -51 -27h-686q-51 0 -51 27t67.5 26.5t111.5 29.5t44 73q0 18 -8 37 l-82 274h-412l-82 -234q-8 -24 -8 -53q0 -59 43 -93t92 -34t49 -26q0 -27 -53 -27h-424q-47 0 -47 27zM315 520h385l-180 535zM338 1471q0 46 34 82t95 36t95 -35.5t34 -83.5q0 -47 -33 -79.5t-95 -32.5t-96 33.5t-34 79.5zM666 1467q0 46 35.5 84t96 38t93.5 -32.5 t33 -81.5t-33 -83t-95 -34t-96 31.5t-34 77.5z" />
<glyph unicode="&#xe5;" horiz-adv-x="1234" d="M-143 27q0 27 61.5 26.5t127 55t106.5 163.5l315 811q-23 41 -62.5 41t-39.5 17.5t57 41.5q114 49 180 120q36 36 48.5 36t21.5 -36l383 -1110q31 -68 97.5 -104t150.5 -36q25 0 38 -8t13 -18q0 -27 -51 -27h-687q-51 0 -51 27t67.5 26.5t111.5 29.5t44 73q0 14 -6 37 l-82 274h-413l-82 -234q-8 -24 -8 -53q0 -59 43 -93t79 -34q62 0 62 -26.5t-51 -26.5h-426q-47 0 -47 27zM301 520h385l-180 535zM442 1522q0 68 45 117t128 49t130.5 -49.5t47.5 -116.5q0 -68 -46.5 -116t-129.5 -48t-129 48t-46 116zM514 1516q0 -41 24.5 -66t76.5 -25 t78 26t26 66t-28.5 70.5t-74.5 30.5q-45 0 -73.5 -31t-28.5 -71z" />
<glyph unicode="&#xe6;" horiz-adv-x="1974" d="M-119 27q0 27 37 26q162 18 344 234l658 919q18 18 32.5 23.5t48.5 5.5h506q131 0 165 50q18 28 30 28t24 -39l138 -328q4 -16 4 -22q0 -23 -15.5 -23t-29.5 31q-49 102 -197.5 174t-296.5 72q-45 0 -98 -39t-53 -111v-356h192q113 0 166 66t53 153q0 37 23 37 q18 0 18 -37v-494q0 -41 -20 -41t-21 41q0 90 -41 146q-55 74 -178 73h-192v-411q0 -76 57 -116t172 -40t253 75t232 218q31 47 48.5 47t17.5 -15.5t-12 -31.5l-191 -424q-27 -49 -37 -49t-18 37t-61.5 65.5t-102.5 28.5h-811q-39 0 -39 27t39 26q205 0 207 180v369h-383 l-219 -315q-43 -72 -43 -128t50 -80.5t103 -25t54 -28.5q0 -25 -56 -25h-520q-37 0 -37 27zM590 657h342v482z" />
<glyph unicode="&#xe7;" horiz-adv-x="1273" d="M45 639q0 242 158 420q178 201 483 201q68 0 138.5 -14.5t148.5 -31.5q35 0 28 33q-12 49 21 49q23 0 33 -36l110 -355q8 -18 8.5 -37t-16.5 -18q-29 0 -47 41q-78 156 -207 244q-104 72 -217 71q-164 0 -266 -185t-102.5 -427t100.5 -399q115 -180 321 -181 q119 0 235 69t165 204q9 35 43 35q16 0 16 -17t-6 -33q-76 -188 -240 -258q-104 -45 -276 -45l-86 2v-94q43 14 91 14t82 -29.5t34 -75.5t-48.5 -83t-125 -37t-156.5 19q-35 10 -35 29q0 34 51.5 16t85.5 -19q35 0 53.5 18.5t18.5 46.5t-19.5 49t-50.5 21t-51 -10v150 q-225 51 -350 231t-125 422z" />
<glyph unicode="&#xe8;" horiz-adv-x="1234" d="M-23 27q0 27 52 26h26q70 0 107 25q57 39 57 141v797q8 104 -67 141q-43 20 -102.5 20.5t-59.5 29t51 28.5h754q59 0 95 11t57.5 43t37.5 32q23 0 43 -61l123 -314q6 -18 6 -38t-16 -19q-31 0 -58 57q-39 86 -171 161t-259 75q-102 0 -137 -37t-35 -117v-342h205 q90 0 134 64.5t44 140.5q0 47 31 47q25 0 25 -47v-494q0 -41 -28 -41t-28 41q0 98 -46 166t-132 68h-205v-412q0 -178 217 -178q230 0 369 154q51 57 98 147q18 41 45 41q18 0 19 -23q0 -5 -8 -30l-193 -426q-23 -53 -41 -54q-18 0 -29 39q-8 55 -92 83t-166 28h-671 q-52 0 -52 27zM403.5 1548q-0.5 53 40.5 104.5t81 51.5t65 -31l205 -248q40 -51 4 -51q-23 0 -60 10l-286 97q-49 14 -49.5 67z" />
<glyph unicode="&#xe9;" horiz-adv-x="1234" d="M-23 27q0 27 52 26h26q70 0 107 25q57 39 57 141v797q8 104 -67 141q-43 20 -102.5 20.5t-59.5 29t51 28.5h754q59 0 95 11t57.5 43t37.5 32q23 0 43 -61l123 -314q6 -18 6 -38t-16 -19q-31 0 -58 57q-39 86 -171 161t-259 75q-102 0 -137 -37t-35 -117v-342h205 q90 0 134 64.5t44 140.5q0 47 31 47q25 0 25 -47v-494q0 -41 -28 -41t-28 41q0 98 -46 166t-132 68h-205v-412q0 -178 217 -178q230 0 369 154q51 57 98 147q18 41 45 41q18 0 19 -23q0 -5 -8 -30l-193 -426q-23 -53 -41 -54q-18 0 -29 39q-8 55 -92 83t-166 28h-671 q-52 0 -52 27zM410 1386q0 14 28 54l178 219q29 37 76 37t92 -49.5t45 -100.5q0 -63 -75 -78l-260 -84q-41 -12 -63 -12t-21 14z" />
<glyph unicode="&#xea;" horiz-adv-x="1234" d="M-23 27q0 27 52 26h26q70 0 107 25q57 39 57 141v797q8 104 -67 141q-43 20 -102.5 20.5t-59.5 29t51 28.5h754q59 0 95 11t57.5 43t37.5 32q23 0 43 -61l123 -314q6 -18 6 -38t-16 -19q-31 0 -58 57q-39 86 -171 161t-259 75q-102 0 -137 -37t-35 -117v-342h205 q90 0 134 64.5t44 140.5q0 47 31 47q25 0 25 -47v-494q0 -41 -28 -41t-28 41q0 98 -46 166t-132 68h-205v-412q0 -178 217 -178q230 0 369 154q51 57 98 147q18 41 45 41q18 0 19 -23q0 -5 -8 -30l-193 -426q-23 -53 -41 -54q-18 0 -29 39q-8 55 -92 83t-166 28h-671 q-52 0 -52 27zM282 1341q-31 0 19 58l274 274q33 29 41 29t41 -29l275 -289q29 -29 29 -41t-20.5 -8t-49.5 23l-275 149l-286 -149q-34 -17 -48 -17z" />
<glyph unicode="&#xeb;" horiz-adv-x="1234" d="M-23 27q0 27 52 26h26q70 0 107 25q57 39 57 141v797q8 104 -67 141q-43 20 -102.5 20.5t-59.5 29t51 28.5h754q59 0 95 11t57.5 43t37.5 32q23 0 43 -61l123 -314q6 -18 6 -38t-16 -19q-31 0 -58 57q-39 86 -171 161t-259 75q-102 0 -137 -37t-35 -117v-342h205 q90 0 134 64.5t44 140.5q0 47 31 47q25 0 25 -47v-494q0 -41 -28 -41t-28 41q0 98 -46 166t-132 68h-205v-412q0 -178 217 -178q230 0 369 154q51 57 98 147q18 41 45 41q18 0 19 -23q0 -5 -8 -30l-193 -426q-23 -53 -41 -54q-18 0 -29 39q-8 55 -92 83t-166 28h-671 q-52 0 -52 27zM324 1484q0 46 34.5 83t95 37t94.5 -36t34 -84t-33 -81t-95 -33t-96 34t-34 80zM655 1480q0 48 35 86t95.5 38t92 -32t31.5 -82t-33 -85t-94 -35t-94 31t-33 79z" />
<glyph unicode="&#xec;" horiz-adv-x="768" d="M14 1206q0 29 39 29h647q52 0 52 -29q-1 -28 -52 -28q-195 0 -194 -123v-850q10 -92 56 -122t115.5 -30t70.5 -26q0 -27 -62 -27h-604q-55 0 -55 27t55 26q182 0 180 166v836q0 76 -50 99.5t-159 23.5q-39 0 -39 28zM170 1536q0 53 41 103.5t82 50.5t63 -31l207 -248 q23 -29 23 -40t-19 -11q-37 6 -61 10l-287 98q-49 14 -49 68z" />
<glyph unicode="&#xed;" horiz-adv-x="768" d="M14 1206q0 29 39 29h647q52 0 52 -29q-1 -28 -52 -28q-195 0 -194 -123v-850q10 -92 56 -122t115.5 -30t70.5 -26q0 -27 -62 -27h-604q-55 0 -55 27t55 26q182 0 180 166v836q0 76 -50 99.5t-159 23.5q-39 0 -39 28zM205 1388q0 16 28 52l179 219q29 37 75.5 37t92 -49.5 t45.5 -100.5q0 -62 -76 -78l-262 -84q-41 -12 -62 -12q-20 0 -20 16z" />
<glyph unicode="&#xee;" horiz-adv-x="768" d="M14 1206q0 29 39 29h647q52 0 52 -29q-1 -28 -52 -28q-195 0 -194 -123v-850q10 -92 56 -122t115.5 -30t70.5 -26q0 -27 -62 -27h-604q-55 0 -55 27t55 26q182 0 180 166v836q0 76 -50 99.5t-159 23.5q-39 0 -39 28zM54 1359.5q7 18.5 28 39.5l274 274q33 29 41 29 t41 -29l275 -289q29 -29 28.5 -41t-21 -8t-48.5 23l-275 149l-286 -149q-34 -17 -49 -17t-8 18.5z" />
<glyph unicode="&#xef;" horiz-adv-x="768" d="M14 1206q0 29 39 29h647q52 0 52 -29q-1 -28 -52 -28q-195 0 -194 -123v-850q10 -92 56 -122t115.5 -30t70.5 -26q0 -27 -62 -27h-604q-55 0 -55 27t55 26q182 0 180 166v836q0 76 -50 99.5t-159 23.5q-39 0 -39 28zM90 1484q0 46 35 83t95 37t94 -36t34 -84t-33 -81 t-95 -33t-96 34t-34 80zM422 1480q0 48 35 86t95 38t92 -32t32 -82t-33 -85t-94 -35t-94 31t-33 79z" />
<glyph unicode="&#xf0;" horiz-adv-x="1740" />
<glyph unicode="&#xf1;" horiz-adv-x="1329" d="M-25 1210q0 25 54 25h452q58 0 58 -43q-4 -31 -4 -41l520 -889v684q0 127 -52.5 179.5t-152.5 52.5q-41 0 -41 28q0 29 41 29h424q53 0 53 -27q0 -10 -11.5 -20t-27.5 -10q-178 -28 -178 -232v-741q53 -35 107 -68q0 -10 -42 -27.5t-97.5 -53.5t-67 -47t-28.5 -33.5 t-28 -22.5q-16 0 -34 33l-658 1124v-862q0 -195 162 -195q57 0 57 -26.5t-57 -26.5h-395q-52 0 -52 27t52 26q92 0 134 58.5t42 136.5v792q0 76 -58 111q-43 27 -107 27t-65 32zM379 1414.5q0 25.5 33 66.5q74 100 180 100q45 0 91 -17q125 -48 156.5 -48t65.5 20 q27 20 49 20q23 0 23 -16q-1 -15 -19 -33q-29 -47 -95.5 -90t-145.5 -43q-55 0 -128 30.5t-100.5 31t-50.5 -24.5q-29 -23 -45 -22q-14 0 -14 25.5z" />
<glyph unicode="&#xf2;" horiz-adv-x="1454" d="M66 682q0 264 149 418q170 174 497.5 174t516.5 -201q168 -178 168 -445t-171 -468t-468 -201t-494.5 229.5t-197.5 493.5zM305.5 638q-0.5 -249 110.5 -425q125 -199 329 -199t305 158t101 405.5t-123 452.5t-317.5 205t-299.5 -174t-105.5 -423zM512 1549 q0 54 42 104.5t80 50.5t66 -31l205 -248q23 -29 23 -40t-21 -11t-57 10l-287 97q-51 14 -51 68z" />
<glyph unicode="&#xf3;" horiz-adv-x="1454" d="M66 682q0 264 149 418q170 174 497.5 174t516.5 -201q168 -178 168 -445t-171 -468t-468 -201t-494.5 229.5t-197.5 493.5zM305.5 638q-0.5 -249 110.5 -425q125 -199 329 -199t305 158t101 405.5t-123 452.5t-317.5 205t-299.5 -174t-105.5 -423zM479 1389q0 16 27 51 l180 219q29 37 76 37t92 -49.5t45 -98.5q0 -65 -78 -80l-258 -84q-41 -12 -62.5 -12t-21.5 17z" />
<glyph unicode="&#xf4;" horiz-adv-x="1454" d="M66 682q0 264 149 418q170 174 497.5 174t516.5 -201q168 -178 168 -445t-171 -468t-468 -201t-494.5 229.5t-197.5 493.5zM305.5 638q-0.5 -249 110.5 -425q125 -199 329 -199t305 158t101 405.5t-123 452.5t-317.5 205t-299.5 -174t-105.5 -423zM380 1382.5 q3 14.5 32 42.5l274 275q31 31 41 31t41 -31l272 -289q31 -31 31 -42q0 -26 -70 15l-276 152l-287 -152q-32 -16 -49 -16q-12 0 -9 14.5z" />
<glyph unicode="&#xf5;" horiz-adv-x="1454" d="M66 682q0 264 149 418q170 174 497.5 174t516.5 -201q168 -178 168 -445t-171 -468t-468 -201t-494.5 229.5t-197.5 493.5zM305.5 638q-0.5 -249 110.5 -425q125 -199 329 -199t305 158t101 405.5t-123 452.5t-317.5 205t-299.5 -174t-105.5 -423zM446.5 1442 q-0.5 25 34.5 65q70 100 178 101q45 0 102.5 -21.5t89.5 -33t60.5 -11.5t59 20.5t52 20.5t21.5 -15.5t-16 -31.5q-31 -49 -97.5 -92t-146.5 -43q-57 0 -129.5 30.5t-98.5 30.5t-52.5 -22.5t-41.5 -22.5t-15.5 25z" />
<glyph unicode="&#xf6;" horiz-adv-x="1454" d="M66 682q0 264 149 418q170 174 497.5 174t516.5 -201q168 -178 168 -445t-171 -468t-468 -201t-494.5 229.5t-197.5 493.5zM305.5 638q-0.5 -249 110.5 -425q125 -199 329 -199t305 158t101 405.5t-123 452.5t-317.5 205t-299.5 -174t-105.5 -423zM422 1499q0 49 32.5 84 t93 35t94.5 -36t34 -84t-33 -81t-94 -33t-94 33t-33 82zM748 1498q0 46 34.5 83t95 37t94.5 -36t34 -84t-33 -81t-95 -33t-96 34t-34 80z" />
<glyph unicode="&#xf7;" horiz-adv-x="1740" />
<glyph unicode="&#xf8;" horiz-adv-x="1454" d="M55 616q0 268 171 472t458 204q162 0 344 -71l70 122q18 41 41 41h26q45 0 45 -22q0 -14 -18 -45l-82 -139q147 -92 222 -236.5t75 -308.5q0 -266 -176 -468t-465 -202q-156 0 -328 66l-67 -125q-8 -14 -17 -31q-8 -10 -24 -10h-58q-20 0 -20 14q0 6 10 27l94 164 q-150 84 -225.5 231t-75.5 317zM342 662q0 -305 82 -484l549 961q-31 43 -91.5 67.5t-131.5 24.5q-121 0 -222.5 -65t-144.5 -193q-41 -143 -41 -311zM481 96q104 -72 227 -72q258 2 347 209q65 147 65 390q0 238 -80 432z" />
<glyph unicode="&#xf9;" horiz-adv-x="1329" d="M-35 1223q0 25 35 24h657q47 0 48 -30q0 -25 -64 -25t-117 -27q-72 -37 -71 -110v-725q0 -145 94 -231.5t219 -86.5t214 85t89 245v616q0 234 -192 234q-20 0 -36 9t-16 22q0 25 52 24h426q37 0 36 -24q1 -31 -36 -31q-86 -10 -127 -61.5t-52 -172.5v-616 q0 -184 -127 -280.5t-316.5 -96.5t-339 100t-148.5 265v739q0 68 -38 89.5t-155 33.5q-35 0 -35 31zM430 1575.5q0 52.5 41 104t81 51.5t64 -31l205 -246q23 -29 23 -41t-17 -12q-19 0 -59 10l-287 96q-51 16 -51 68.5z" />
<glyph unicode="&#xfa;" horiz-adv-x="1329" d="M-8 1210q0 25 37 25h657q45 0 45 -29t-45 -28q-80 0 -133 -27q-72 -37 -72 -111v-725q0 -147 93.5 -232t219.5 -85t215 85t89 247v616q0 232 -193 232q-53 0 -53 32q0 25 53 25h424q37 0 37 -28.5t-37 -28.5q-86 -10 -127 -59.5t-51 -172.5v-616q0 -186 -127 -282.5 t-316.5 -96.5t-339 100t-149.5 264v740q0 68 -40 90t-150 33q-37 0 -37 32zM506 1386q0 14 29 54l178 219q29 37 75.5 37t92 -49.5t45.5 -100.5q0 -62 -76 -78l-260 -84q-41 -12 -63 -12t-21 14z" />
<glyph unicode="&#xfb;" horiz-adv-x="1329" d="M-8 1210q0 25 37 25h657q45 0 45 -29t-45 -28q-80 0 -133 -27q-72 -37 -72 -111v-725q0 -147 93.5 -232t219.5 -85t215 85t89 247v616q0 232 -193 232q-53 0 -53 32q0 25 53 25h424q37 0 37 -28.5t-37 -28.5q-86 -10 -127 -59.5t-51 -172.5v-616q0 -186 -127 -282.5 t-316.5 -96.5t-339 100t-149.5 264v740q0 68 -40 90t-150 33q-37 0 -37 32zM325 1368q3 14 31 43l275 277q33 29 41 28q8 0 41 -28l274 -289q29 -29 29 -45q0 -10 -19.5 -6t-50.5 22l-274 152l-289 -152q-32 -16 -49 -16q-12 0 -9 14z" />
<glyph unicode="&#xfc;" horiz-adv-x="1329" d="M-8 1210q0 25 37 25h657q45 0 45 -29t-45 -28q-80 0 -133 -27q-72 -37 -72 -111v-725q0 -147 93.5 -232t219.5 -85t215 85t89 247v616q0 232 -193 232q-53 0 -53 32q0 25 53 25h424q37 0 37 -28.5t-37 -28.5q-86 -10 -127 -59.5t-51 -172.5v-616q0 -186 -127 -282.5 t-316.5 -96.5t-339 100t-149.5 264v740q0 68 -40 90t-150 33q-37 0 -37 32zM377 1498q0 46 34.5 83t95 37t94.5 -36t34 -84t-33 -81t-95 -33t-96 34t-34 80zM707 1498q0 46 34.5 83t95 37t94.5 -36t34 -84t-33 -81t-95 -33t-96 34t-34 80z" />
<glyph unicode="&#xfd;" horiz-adv-x="1234" d="M-90 1210q0 25 37 25h643q47 0 47 -29t-47 -28q-111 -12 -111 -74q0 -27 27 -76l233 -383l248 383q53 92 -24 128q-45 22 -95.5 22t-50.5 28.5t47 28.5h439q47 0 47 -31q0 -26 -47 -26q-88 0 -150.5 -47.5t-112.5 -129.5l-272 -411v-385q0 -78 57.5 -115t147.5 -37 q41 0 41 -26q0 -27 -41 -27h-672q-45 0 -45 27t45 26q205 0 205 166v316l-301 493q-41 76 -100.5 113t-157.5 37q-37 0 -37 32zM729 1311.5q0 17.5 29 52.5l176 219q29 37 77 37t93 -49t45 -101q0 -61 -76 -79l-262 -84q-37 -12 -59 -13q-23 0 -23 17.5z" />
<glyph unicode="&#xfe;" horiz-adv-x="1740" />
<glyph unicode="&#xff;" horiz-adv-x="1234" d="M-90 1210q0 25 37 25h643q47 0 47 -29t-47 -28q-111 -12 -111 -74q0 -27 27 -76l233 -383l248 383q53 92 -24 128q-45 22 -95.5 22t-50.5 28.5t47 28.5h439q47 0 47 -31q0 -26 -47 -26q-88 0 -150.5 -47.5t-112.5 -129.5l-272 -411v-385q0 -78 57.5 -115t147.5 -37 q41 0 41 -26q0 -27 -41 -27h-672q-45 0 -45 27t45 26q205 0 205 166v316l-301 493q-41 76 -100.5 113t-157.5 37q-37 0 -37 32zM403 1422q0 46 35 83t95 37t94.5 -36t34.5 -84t-33.5 -80.5t-95.5 -32.5t-96 33.5t-34 79.5zM735 1423q0 49 33 84t93 35t94 -36t34 -84 t-33 -80.5t-94 -32.5t-94 32.5t-33 81.5z" />
<glyph unicode="&#x152;" horiz-adv-x="2498" d="M49.5 736q-0.5 314 198.5 534q223 246 606 246q280 0 436 -193v96q0 33 24.5 41t71.5 8h517q41 -2 96 -2t93 17.5t55.5 53.5t33.5 36q18 0 45 -57l144 -355q10 -25 10 -50.5t-19 -25.5q-25 0 -55 60q-45 98 -208 182t-308 84q-209 0 -209 -186v-371h258q82 0 145.5 63.5 t63.5 178.5q0 55 25 55t24 -55v-580q0 -49 -24 -49q-25 0 -25 49q0 275 -209 275h-258v-517q0 -106 75 -166.5t207.5 -60.5t290.5 95t265 278q33 53 54 53t21 -20q0 -13 -10 -33l-227 -516q-23 -49 -37 -49t-27 49q-10 63 -79 84q-41 12 -129 12h-615q-29 -2 -41 -2 q-39 0 -39 51v96q-159 -178 -502 -178t-540.5 227.5t-198 541.5zM319.5 701.5q-0.5 -287.5 114.5 -468.5q127 -201 367 -200.5t389 237.5q135 215 135 505t-115 472q-129 205 -366.5 205t-386.5 -242q-137 -221 -137.5 -508.5z" />
<glyph unicode="&#x153;" horiz-adv-x="1984" d="M49 451q0 231 170 358t402 127q125 0 239.5 -42t188.5 -120q61 68 168.5 113t217.5 45t205 -50.5t150 -156.5q14 -27 57.5 -59.5t43 -39.5t-20.5 -14l-709 -176q29 -147 134 -232t233 -85q176 0 278 139q31 31 49.5 31t18.5 -15q-21 -84 -181.5 -200.5t-340.5 -116.5 t-336 139q-181 -139 -405 -139t-393 150.5t-169 343.5zM340 446.5q0 -176.5 71.5 -303.5t200.5 -127t201 126.5t72 301.5q0 176 -73 309.5t-199 133.5t-199.5 -132t-73.5 -308.5zM1145 483l387 97q35 12 35 72.5t-66 139t-147 78.5q-209 0 -209 -387z" />
<glyph unicode="&#x178;" horiz-adv-x="1452" d="M-106 1423q0 29 43 29h757q53 0 54 -35q0 -31 -54 -31q-129 -16 -129 -86q0 -35 31 -90l274 -452l291 452q25 39 25 82t-52.5 68.5t-111.5 25.5t-59 33t53 33h516q55 0 55 -33t-55 -33q-185 0 -307 -208l-322 -484v-452q0 -92 67.5 -135.5t174.5 -43.5q49 0 49 -31.5 t-49 -31.5h-791q-53 0 -53 29q0 12 15.5 23t37.5 11q242 0 242 195v371l-354 581q-51 92 -119 134t-186 42q-43 0 -43 37zM475 1673q0 55 41 98.5t112 43.5t110.5 -42t39.5 -98.5t-38.5 -95.5t-112.5 -39t-113 39t-39 94zM862 1673q0 55 41 98.5t112 43.5t110.5 -42 t39.5 -98.5t-38.5 -95.5t-112.5 -39t-113 39t-39 94z" />
<glyph unicode="&#x2c6;" horiz-adv-x="1081" d="M156 1053q0 22 37 59l323 324q39 35 50 34.5t46 -34.5l324 -340q33 -33 33 -46q0 -32 -82 15l-322 176l-340 -176q-69 -34 -69 -12z" />
<glyph unicode="&#x2dc;" horiz-adv-x="983" d="M170 1148q0 30 39 77q86 119 213 118q55 0 108.5 -20t102.5 -38.5t82 -18.5t76 24q35 25 59.5 25t23.5 -21q0 -17 -20 -37q-33 -59 -111.5 -107t-175.5 -48q-47 0 -80.5 9t-95 36t-91.5 27t-58 -29q-33 -27 -52.5 -27t-19.5 30z" />
<glyph unicode="&#x2000;" horiz-adv-x="1018" />
<glyph unicode="&#x2001;" horiz-adv-x="2036" />
<glyph unicode="&#x2002;" horiz-adv-x="1018" />
<glyph unicode="&#x2003;" horiz-adv-x="2036" />
<glyph unicode="&#x2004;" horiz-adv-x="678" />
<glyph unicode="&#x2005;" horiz-adv-x="509" />
<glyph unicode="&#x2006;" horiz-adv-x="339" />
<glyph unicode="&#x2007;" horiz-adv-x="339" />
<glyph unicode="&#x2008;" horiz-adv-x="254" />
<glyph unicode="&#x2009;" horiz-adv-x="407" />
<glyph unicode="&#x200a;" horiz-adv-x="113" />
<glyph unicode="&#x2010;" horiz-adv-x="516" d="M16 371l97 209h419l-96 -209h-420z" />
<glyph unicode="&#x2011;" horiz-adv-x="516" d="M16 371l97 209h419l-96 -209h-420z" />
<glyph unicode="&#x2012;" horiz-adv-x="516" d="M16 371l97 209h419l-96 -209h-420z" />
<glyph unicode="&#x2013;" horiz-adv-x="1032" d="M0 371l113 225h1048l-112 -225h-1049z" />
<glyph unicode="&#x2014;" horiz-adv-x="2048" d="M0 371l113 225h2064l-113 -225h-2064z" />
<glyph unicode="&#x2018;" horiz-adv-x="612" d="M82 1050.5q0 104.5 58.5 220t150.5 181.5q25 18 48.5 18t22.5 -22q1 -20 -24 -45q-51 -61 -102 -121q-43 -59 -43 -109.5t26 -50.5q10 0 31 8q64 23 92 23q59 0 95 -44t36 -113t-46 -121t-144 -52t-149.5 61.5t-51.5 166z" />
<glyph unicode="&#x2019;" horiz-adv-x="612" d="M145 1290q-6 76 51.5 131.5t131.5 55.5q160 0 204 -203q4 -16 5 -49q0 -96 -60.5 -194.5t-138.5 -176.5q-27 -27 -58 -27t-30 19q0 16 39.5 56t93.5 111.5t53 131.5q0 35 -30 35q-20 0 -58.5 -16.5t-83.5 -16.5t-82 34t-37 109z" />
<glyph unicode="&#x201c;" horiz-adv-x="1128" d="M98 1082.5q0 105.5 58.5 221t150.5 179.5q27 20 49.5 20t22.5 -22t-25 -45q-51 -61 -102 -121q-43 -59 -43 -109.5t27 -50.5q20 0 71 23q29 6 51 6q59 0 95 -44t36 -113t-46 -121t-144 -52t-149.5 61.5t-51.5 167zM598 1082.5q0 105.5 58.5 221t150.5 179.5 q27 20 49.5 20t22.5 -22t-25 -45q-51 -61 -102 -121q-43 -59 -43 -109.5t26 -50.5q18 0 72 23q29 6 51 6q59 0 95 -44t36 -113t-46 -121t-144 -52t-149.5 61.5t-51.5 167z" />
<glyph unicode="&#x201d;" horiz-adv-x="1128" d="M145 1290q-6 76 51.5 131.5t131.5 55.5q160 0 204 -203q4 -16 5 -49q0 -96 -60.5 -194.5t-138.5 -176.5q-27 -27 -58 -27t-30 19q0 16 39.5 56t93.5 111.5t53 131.5q0 35 -30 35q-20 0 -58.5 -16.5t-83.5 -16.5t-82 34t-37 109zM662 1290q-6 76 51 131.5t131 55.5 q161 0 205 -203q4 -16 4 -49q0 -96 -60.5 -194.5t-138.5 -176.5q-27 -27 -57.5 -27t-30.5 17.5t40 57.5t93.5 111.5t52.5 131.5q0 35 -30 35q-20 0 -58.5 -16.5t-83 -16.5t-82 34t-36.5 109z" />
<glyph unicode="&#x2022;" horiz-adv-x="612" d="M197 730q0 151 98 266.5t269 115.5t270.5 -115t99.5 -267.5t-94.5 -255.5t-273.5 -103t-274 104t-95 255z" />
<glyph unicode="&#x202f;" horiz-adv-x="407" />
<glyph unicode="&#x205f;" horiz-adv-x="509" />
<glyph unicode="&#x2122;" horiz-adv-x="1822" d="M-16 1257v211h678v-227h-50q0 92 -45 118.5t-164 26.5v-579q0 -45 29 -64.5t100 -33.5v-47h-403v47q31 8 64 16q49 18 49 82v579h-56q-78 0 -115.5 -23.5t-37.5 -105.5h-49zM758 662v47q55 0 75.5 27.5t20.5 70.5v500q2 31 2 55.5t-14.5 40.5t-67.5 16v49h307l226 -548 l241 548h291v-49q-63 -12 -80.5 -29.5t-17.5 -66.5v-516q0 -57 29.5 -77.5t84.5 -20.5v-47h-372v47q51 0 82.5 25.5t31.5 72.5v563l-290 -661q-27 -53 -35 -54q-6 0 -31 54l-289 661v-563q0 -47 28 -72.5t69 -25.5v-47h-291z" />
<glyph unicode="&#xe000;" horiz-adv-x="1239" d="M0 0v1239h1239v-1239h-1239z" />
</font>
</defs>
</svg>
